<?xml version="1.0" encoding="utf-8" standalone="no"?>
<!DOCTYPE svg PUBLIC "-//W3C//DTD SVG 1.1//EN"
  "http://www.w3.org/Graphics/SVG/1.1/DTD/svg11.dtd">
<svg xmlns:xlink="http://www.w3.org/1999/xlink" width="512.39952pt" height="368.39952pt" viewBox="0 0 512.39952 368.39952" xmlns="http://www.w3.org/2000/svg" version="1.1">
 <metadata>
  <rdf:RDF xmlns:dc="http://purl.org/dc/elements/1.1/" xmlns:cc="http://creativecommons.org/ns#" xmlns:rdf="http://www.w3.org/1999/02/22-rdf-syntax-ns#">
   <cc:Work>
    <dc:type rdf:resource="http://purl.org/dc/dcmitype/StillImage"/>
    <dc:date>2024-08-04T16:16:54.360555</dc:date>
    <dc:format>image/svg+xml</dc:format>
    <dc:creator>
     <cc:Agent>
      <dc:title>Matplotlib v3.8.2, https://matplotlib.org/</dc:title>
     </cc:Agent>
    </dc:creator>
   </cc:Work>
  </rdf:RDF>
 </metadata>
 <defs>
  <style type="text/css">*{stroke-linejoin: round; stroke-linecap: butt}</style>
 </defs>
 <g id="figure_1">
  <g id="patch_1">
   <path d="M 0 368.39952 
L 512.39952 368.39952 
L 512.39952 0 
L 0 0 
z
" style="fill: #ffffff"/>
  </g>
  <g id="axes_1">
   <g id="patch_2">
    <path d="M 58.878125 355.320614 
L 505.19952 355.320614 
L 505.19952 7.2 
L 58.878125 7.2 
z
" style="fill: #ffffff"/>
   </g>
   <g id="patch_3">
    <path d="M 119.011355 7.2 
L 119.011355 76.824123 
M 188.024073 7.2 
L 188.024073 76.824123 
" clip-path="url(#p5b2c5f3cd6)" style="fill: none; stroke: #ffffff; stroke-width: 3; stroke-linejoin: miter"/>
    <path d="M 119.011355 7.2 
L 119.011355 76.824123 
M 188.024073 7.2 
L 188.024073 76.824123 
" clip-path="url(#p5b2c5f3cd6)" style="fill: none; stroke: #808080; stroke-linejoin: miter"/>
    <g id="PolyCollection_1">
     <path d="M 188.024073 7.2 
L 119.011355 7.2 
L 119.011355 76.824123 
L 188.024073 76.824123 
L 188.024073 76.824123 
L 188.024073 7.2 
z
" clip-path="url(#p5b2c5f3cd6)" style="fill: #808080; fill-opacity: 0.5"/>
    </g>
    <g id="patch_4">
     <path d="M 79.165461 76.824123 
L 79.165461 333.515135 
M 97.030154 76.824123 
L 97.030154 333.515135 
" clip-path="url(#p5b2c5f3cd6)" style="fill: none; stroke: #ffffff; stroke-width: 3; stroke-linejoin: miter"/>
     <path d="M 79.165461 76.824123 
L 79.165461 333.515135 
M 97.030154 76.824123 
L 97.030154 333.515135 
" clip-path="url(#p5b2c5f3cd6)" style="fill: none; stroke: #808080; stroke-linejoin: miter"/>
     <g id="PolyCollection_2">
      <path d="M 97.030154 76.824123 
L 79.165461 76.824123 
L 79.165461 333.515135 
L 97.030154 333.515135 
L 97.030154 333.515135 
L 97.030154 76.824123 
z
" clip-path="url(#p5b2c5f3cd6)" style="fill: #808080; fill-opacity: 0.5"/>
     </g>
     <g id="patch_5">
      <path d="M 203.500052 76.824123 
L 203.500052 292.9501 
M 234.375188 76.824123 
L 234.375188 292.9501 
" clip-path="url(#p5b2c5f3cd6)" style="fill: none; stroke: #ffffff; stroke-width: 3; stroke-linejoin: miter"/>
      <path d="M 203.500052 76.824123 
L 203.500052 292.9501 
M 234.375188 76.824123 
L 234.375188 292.9501 
" clip-path="url(#p5b2c5f3cd6)" style="fill: none; stroke: #808080; stroke-linejoin: miter"/>
      <g id="PolyCollection_3">
       <path d="M 234.375188 76.824123 
L 203.500052 76.824123 
L 203.500052 292.9501 
L 234.375188 292.9501 
L 234.375188 292.9501 
L 234.375188 76.824123 
z
" clip-path="url(#p5b2c5f3cd6)" style="fill: #808080; fill-opacity: 0.5"/>
      </g>
      <g id="patch_6">
       <path d="M 217.619252 292.9501 
L 217.619252 317.939792 
M 220.255989 292.9501 
L 220.255989 317.939792 
" clip-path="url(#p5b2c5f3cd6)" style="fill: none; stroke: #ffffff; stroke-width: 3; stroke-linejoin: miter"/>
       <path d="M 217.619252 292.9501 
L 217.619252 317.939792 
M 220.255989 292.9501 
L 220.255989 317.939792 
" clip-path="url(#p5b2c5f3cd6)" style="fill: none; stroke: #808080; stroke-linejoin: miter"/>
       <g id="PolyCollection_4">
        <path d="M 220.255989 292.9501 
L 217.619252 292.9501 
L 217.619252 317.939792 
L 220.255989 317.939792 
L 220.255989 317.939792 
L 220.255989 292.9501 
z
" clip-path="url(#p5b2c5f3cd6)" style="fill: #808080; fill-opacity: 0.5"/>
       </g>
       <g id="patch_7">
        <path d="M 334.339865 292.9501 
L 334.339865 317.686161 
M 365.215001 292.9501 
L 365.215001 317.686161 
" clip-path="url(#p5b2c5f3cd6)" style="fill: none; stroke: #ffffff; stroke-width: 3; stroke-linejoin: miter"/>
        <path d="M 334.339865 292.9501 
L 334.339865 317.686161 
M 365.215001 292.9501 
L 365.215001 317.686161 
" clip-path="url(#p5b2c5f3cd6)" style="fill: none; stroke: #808080; stroke-linejoin: miter"/>
        <g id="PolyCollection_5">
         <path d="M 365.215001 292.9501 
L 334.339865 292.9501 
L 334.339865 317.686161 
L 365.215001 317.686161 
L 365.215001 317.686161 
L 365.215001 292.9501 
z
" clip-path="url(#p5b2c5f3cd6)" style="fill: #808080; fill-opacity: 0.5"/>
        </g>
        <g id="patch_8">
         <path d="M 348.527012 317.686161 
L 348.527012 330.400066 
M 351.027853 317.686161 
L 351.027853 330.400066 
" clip-path="url(#p5b2c5f3cd6)" style="fill: none; stroke: #ffffff; stroke-width: 3; stroke-linejoin: miter"/>
         <path d="M 348.527012 317.686161 
L 348.527012 330.400066 
M 351.027853 317.686161 
L 351.027853 330.400066 
" clip-path="url(#p5b2c5f3cd6)" style="fill: none; stroke: #808080; stroke-linejoin: miter"/>
         <g id="PolyCollection_6">
          <path d="M 351.027853 317.686161 
L 348.527012 317.686161 
L 348.527012 330.400066 
L 351.027853 330.400066 
L 351.027853 330.400066 
L 351.027853 317.686161 
z
" clip-path="url(#p5b2c5f3cd6)" style="fill: #808080; fill-opacity: 0.5"/>
         </g>
         <g id="patch_9">
          <path d="M 476.322307 317.686161 
L 476.322307 339.745272 
M 484.912184 317.686161 
L 484.912184 339.745272 
" clip-path="url(#p5b2c5f3cd6)" style="fill: none; stroke: #ffffff; stroke-width: 3; stroke-linejoin: miter"/>
          <path d="M 476.322307 317.686161 
L 476.322307 339.745272 
M 484.912184 317.686161 
L 484.912184 339.745272 
" clip-path="url(#p5b2c5f3cd6)" style="fill: none; stroke: #808080; stroke-linejoin: miter"/>
          <g id="PolyCollection_7">
           <path d="M 484.912184 317.686161 
L 476.322307 317.686161 
L 476.322307 339.745272 
L 484.912184 339.745272 
L 484.912184 339.745272 
L 484.912184 317.686161 
z
" clip-path="url(#p5b2c5f3cd6)" style="fill: #808080; fill-opacity: 0.5"/>
          </g>
          <g id="matplotlib.axis_1"/>
          <g id="matplotlib.axis_2">
           <g id="ytick_1">
            <g id="line2d_1">
             <defs>
              <path id="mbb64cecdb6" d="M 0 0 
L -3.5 0 
" style="stroke: #000000; stroke-width: 0.8"/>
             </defs>
             <g>
              <use xlink:href="#mbb64cecdb6" x="58.878125" y="355.320614" style="stroke: #000000; stroke-width: 0.8"/>
             </g>
            </g>
            <g id="text_1">
             <!-- 0 -->
             <g transform="translate(45.515625 359.119832) scale(0.1 -0.1)">
              <defs>
               <path id="DejaVuSans-30" d="M 2034 4250 
Q 1547 4250 1301 3770 
Q 1056 3291 1056 2328 
Q 1056 1369 1301 889 
Q 1547 409 2034 409 
Q 2525 409 2770 889 
Q 3016 1369 3016 2328 
Q 3016 3291 2770 3770 
Q 2525 4250 2034 4250 
z
M 2034 4750 
Q 2819 4750 3233 4129 
Q 3647 3509 3647 2328 
Q 3647 1150 3233 529 
Q 2819 -91 2034 -91 
Q 1250 -91 836 529 
Q 422 1150 422 2328 
Q 422 3509 836 4129 
Q 1250 4750 2034 4750 
z
" transform="scale(0.015625)"/>
              </defs>
              <use xlink:href="#DejaVuSans-30"/>
             </g>
            </g>
           </g>
           <g id="ytick_2">
            <g id="line2d_2">
             <g>
              <use xlink:href="#mbb64cecdb6" x="58.878125" y="324.169929" style="stroke: #000000; stroke-width: 0.8"/>
             </g>
            </g>
            <g id="text_2">
             <!-- $10^{5}$ -->
             <g transform="translate(34.278125 327.969148) scale(0.1 -0.1)">
              <defs>
               <path id="DejaVuSans-31" d="M 794 531 
L 1825 531 
L 1825 4091 
L 703 3866 
L 703 4441 
L 1819 4666 
L 2450 4666 
L 2450 531 
L 3481 531 
L 3481 0 
L 794 0 
L 794 531 
z
" transform="scale(0.015625)"/>
               <path id="DejaVuSans-35" d="M 691 4666 
L 3169 4666 
L 3169 4134 
L 1269 4134 
L 1269 2991 
Q 1406 3038 1543 3061 
Q 1681 3084 1819 3084 
Q 2600 3084 3056 2656 
Q 3513 2228 3513 1497 
Q 3513 744 3044 326 
Q 2575 -91 1722 -91 
Q 1428 -91 1123 -41 
Q 819 9 494 109 
L 494 744 
Q 775 591 1075 516 
Q 1375 441 1709 441 
Q 2250 441 2565 725 
Q 2881 1009 2881 1497 
Q 2881 1984 2565 2268 
Q 2250 2553 1709 2553 
Q 1456 2553 1204 2497 
Q 953 2441 691 2322 
L 691 4666 
z
" transform="scale(0.015625)"/>
              </defs>
              <use xlink:href="#DejaVuSans-31" transform="translate(0 0.684375)"/>
              <use xlink:href="#DejaVuSans-30" transform="translate(63.623047 0.684375)"/>
              <use xlink:href="#DejaVuSans-35" transform="translate(128.203125 38.965625) scale(0.7)"/>
             </g>
            </g>
           </g>
           <g id="ytick_3">
            <g id="line2d_3">
             <g>
              <use xlink:href="#mbb64cecdb6" x="58.878125" y="293.019245" style="stroke: #000000; stroke-width: 0.8"/>
             </g>
            </g>
            <g id="text_3">
             <!-- $2 \cdot 10^{5}$ -->
             <g transform="translate(20.878125 296.818464) scale(0.1 -0.1)">
              <defs>
               <path id="DejaVuSans-32" d="M 1228 531 
L 3431 531 
L 3431 0 
L 469 0 
L 469 531 
Q 828 903 1448 1529 
Q 2069 2156 2228 2338 
Q 2531 2678 2651 2914 
Q 2772 3150 2772 3378 
Q 2772 3750 2511 3984 
Q 2250 4219 1831 4219 
Q 1534 4219 1204 4116 
Q 875 4013 500 3803 
L 500 4441 
Q 881 4594 1212 4672 
Q 1544 4750 1819 4750 
Q 2544 4750 2975 4387 
Q 3406 4025 3406 3419 
Q 3406 3131 3298 2873 
Q 3191 2616 2906 2266 
Q 2828 2175 2409 1742 
Q 1991 1309 1228 531 
z
" transform="scale(0.015625)"/>
               <path id="DejaVuSans-22c5" d="M 684 2619 
L 1344 2619 
L 1344 1825 
L 684 1825 
L 684 2619 
z
" transform="scale(0.015625)"/>
              </defs>
              <use xlink:href="#DejaVuSans-32" transform="translate(0 0.684375)"/>
              <use xlink:href="#DejaVuSans-22c5" transform="translate(83.105469 0.684375)"/>
              <use xlink:href="#DejaVuSans-31" transform="translate(134.375 0.684375)"/>
              <use xlink:href="#DejaVuSans-30" transform="translate(197.998047 0.684375)"/>
              <use xlink:href="#DejaVuSans-35" transform="translate(262.578125 38.965625) scale(0.7)"/>
             </g>
            </g>
           </g>
           <g id="ytick_4">
            <g id="line2d_4">
             <g>
              <use xlink:href="#mbb64cecdb6" x="58.878125" y="261.868561" style="stroke: #000000; stroke-width: 0.8"/>
             </g>
            </g>
            <g id="text_4">
             <!-- $3 \cdot 10^{5}$ -->
             <g transform="translate(20.878125 265.667779) scale(0.1 -0.1)">
              <defs>
               <path id="DejaVuSans-33" d="M 2597 2516 
Q 3050 2419 3304 2112 
Q 3559 1806 3559 1356 
Q 3559 666 3084 287 
Q 2609 -91 1734 -91 
Q 1441 -91 1130 -33 
Q 819 25 488 141 
L 488 750 
Q 750 597 1062 519 
Q 1375 441 1716 441 
Q 2309 441 2620 675 
Q 2931 909 2931 1356 
Q 2931 1769 2642 2001 
Q 2353 2234 1838 2234 
L 1294 2234 
L 1294 2753 
L 1863 2753 
Q 2328 2753 2575 2939 
Q 2822 3125 2822 3475 
Q 2822 3834 2567 4026 
Q 2313 4219 1838 4219 
Q 1578 4219 1281 4162 
Q 984 4106 628 3988 
L 628 4550 
Q 988 4650 1302 4700 
Q 1616 4750 1894 4750 
Q 2613 4750 3031 4423 
Q 3450 4097 3450 3541 
Q 3450 3153 3228 2886 
Q 3006 2619 2597 2516 
z
" transform="scale(0.015625)"/>
              </defs>
              <use xlink:href="#DejaVuSans-33" transform="translate(0 0.684375)"/>
              <use xlink:href="#DejaVuSans-22c5" transform="translate(83.105469 0.684375)"/>
              <use xlink:href="#DejaVuSans-31" transform="translate(134.375 0.684375)"/>
              <use xlink:href="#DejaVuSans-30" transform="translate(197.998047 0.684375)"/>
              <use xlink:href="#DejaVuSans-35" transform="translate(262.578125 38.965625) scale(0.7)"/>
             </g>
            </g>
           </g>
           <g id="ytick_5">
            <g id="line2d_5">
             <g>
              <use xlink:href="#mbb64cecdb6" x="58.878125" y="230.717876" style="stroke: #000000; stroke-width: 0.8"/>
             </g>
            </g>
            <g id="text_5">
             <!-- $4 \cdot 10^{5}$ -->
             <g transform="translate(20.878125 234.517095) scale(0.1 -0.1)">
              <defs>
               <path id="DejaVuSans-34" d="M 2419 4116 
L 825 1625 
L 2419 1625 
L 2419 4116 
z
M 2253 4666 
L 3047 4666 
L 3047 1625 
L 3713 1625 
L 3713 1100 
L 3047 1100 
L 3047 0 
L 2419 0 
L 2419 1100 
L 313 1100 
L 313 1709 
L 2253 4666 
z
" transform="scale(0.015625)"/>
              </defs>
              <use xlink:href="#DejaVuSans-34" transform="translate(0 0.684375)"/>
              <use xlink:href="#DejaVuSans-22c5" transform="translate(83.105469 0.684375)"/>
              <use xlink:href="#DejaVuSans-31" transform="translate(134.375 0.684375)"/>
              <use xlink:href="#DejaVuSans-30" transform="translate(197.998047 0.684375)"/>
              <use xlink:href="#DejaVuSans-35" transform="translate(262.578125 38.965625) scale(0.7)"/>
             </g>
            </g>
           </g>
           <g id="ytick_6">
            <g id="line2d_6">
             <g>
              <use xlink:href="#mbb64cecdb6" x="58.878125" y="199.567192" style="stroke: #000000; stroke-width: 0.8"/>
             </g>
            </g>
            <g id="text_6">
             <!-- $5 \cdot 10^{5}$ -->
             <g transform="translate(20.878125 203.366411) scale(0.1 -0.1)">
              <use xlink:href="#DejaVuSans-35" transform="translate(0 0.684375)"/>
              <use xlink:href="#DejaVuSans-22c5" transform="translate(83.105469 0.684375)"/>
              <use xlink:href="#DejaVuSans-31" transform="translate(134.375 0.684375)"/>
              <use xlink:href="#DejaVuSans-30" transform="translate(197.998047 0.684375)"/>
              <use xlink:href="#DejaVuSans-35" transform="translate(262.578125 38.965625) scale(0.7)"/>
             </g>
            </g>
           </g>
           <g id="ytick_7">
            <g id="line2d_7">
             <g>
              <use xlink:href="#mbb64cecdb6" x="58.878125" y="168.416507" style="stroke: #000000; stroke-width: 0.8"/>
             </g>
            </g>
            <g id="text_7">
             <!-- $6 \cdot 10^{5}$ -->
             <g transform="translate(20.878125 172.215726) scale(0.1 -0.1)">
              <defs>
               <path id="DejaVuSans-36" d="M 2113 2584 
Q 1688 2584 1439 2293 
Q 1191 2003 1191 1497 
Q 1191 994 1439 701 
Q 1688 409 2113 409 
Q 2538 409 2786 701 
Q 3034 994 3034 1497 
Q 3034 2003 2786 2293 
Q 2538 2584 2113 2584 
z
M 3366 4563 
L 3366 3988 
Q 3128 4100 2886 4159 
Q 2644 4219 2406 4219 
Q 1781 4219 1451 3797 
Q 1122 3375 1075 2522 
Q 1259 2794 1537 2939 
Q 1816 3084 2150 3084 
Q 2853 3084 3261 2657 
Q 3669 2231 3669 1497 
Q 3669 778 3244 343 
Q 2819 -91 2113 -91 
Q 1303 -91 875 529 
Q 447 1150 447 2328 
Q 447 3434 972 4092 
Q 1497 4750 2381 4750 
Q 2619 4750 2861 4703 
Q 3103 4656 3366 4563 
z
" transform="scale(0.015625)"/>
              </defs>
              <use xlink:href="#DejaVuSans-36" transform="translate(0 0.684375)"/>
              <use xlink:href="#DejaVuSans-22c5" transform="translate(83.105469 0.684375)"/>
              <use xlink:href="#DejaVuSans-31" transform="translate(134.375 0.684375)"/>
              <use xlink:href="#DejaVuSans-30" transform="translate(197.998047 0.684375)"/>
              <use xlink:href="#DejaVuSans-35" transform="translate(262.578125 38.965625) scale(0.7)"/>
             </g>
            </g>
           </g>
           <g id="ytick_8">
            <g id="line2d_8">
             <g>
              <use xlink:href="#mbb64cecdb6" x="58.878125" y="137.265823" style="stroke: #000000; stroke-width: 0.8"/>
             </g>
            </g>
            <g id="text_8">
             <!-- $7 \cdot 10^{5}$ -->
             <g transform="translate(20.878125 141.065042) scale(0.1 -0.1)">
              <defs>
               <path id="DejaVuSans-37" d="M 525 4666 
L 3525 4666 
L 3525 4397 
L 1831 0 
L 1172 0 
L 2766 4134 
L 525 4134 
L 525 4666 
z
" transform="scale(0.015625)"/>
              </defs>
              <use xlink:href="#DejaVuSans-37" transform="translate(0 0.684375)"/>
              <use xlink:href="#DejaVuSans-22c5" transform="translate(83.105469 0.684375)"/>
              <use xlink:href="#DejaVuSans-31" transform="translate(134.375 0.684375)"/>
              <use xlink:href="#DejaVuSans-30" transform="translate(197.998047 0.684375)"/>
              <use xlink:href="#DejaVuSans-35" transform="translate(262.578125 38.965625) scale(0.7)"/>
             </g>
            </g>
           </g>
           <g id="ytick_9">
            <g id="line2d_9">
             <g>
              <use xlink:href="#mbb64cecdb6" x="58.878125" y="106.115139" style="stroke: #000000; stroke-width: 0.8"/>
             </g>
            </g>
            <g id="text_9">
             <!-- $8 \cdot 10^{5}$ -->
             <g transform="translate(20.878125 109.914357) scale(0.1 -0.1)">
              <defs>
               <path id="DejaVuSans-38" d="M 2034 2216 
Q 1584 2216 1326 1975 
Q 1069 1734 1069 1313 
Q 1069 891 1326 650 
Q 1584 409 2034 409 
Q 2484 409 2743 651 
Q 3003 894 3003 1313 
Q 3003 1734 2745 1975 
Q 2488 2216 2034 2216 
z
M 1403 2484 
Q 997 2584 770 2862 
Q 544 3141 544 3541 
Q 544 4100 942 4425 
Q 1341 4750 2034 4750 
Q 2731 4750 3128 4425 
Q 3525 4100 3525 3541 
Q 3525 3141 3298 2862 
Q 3072 2584 2669 2484 
Q 3125 2378 3379 2068 
Q 3634 1759 3634 1313 
Q 3634 634 3220 271 
Q 2806 -91 2034 -91 
Q 1263 -91 848 271 
Q 434 634 434 1313 
Q 434 1759 690 2068 
Q 947 2378 1403 2484 
z
M 1172 3481 
Q 1172 3119 1398 2916 
Q 1625 2713 2034 2713 
Q 2441 2713 2670 2916 
Q 2900 3119 2900 3481 
Q 2900 3844 2670 4047 
Q 2441 4250 2034 4250 
Q 1625 4250 1398 4047 
Q 1172 3844 1172 3481 
z
" transform="scale(0.015625)"/>
              </defs>
              <use xlink:href="#DejaVuSans-38" transform="translate(0 0.684375)"/>
              <use xlink:href="#DejaVuSans-22c5" transform="translate(83.105469 0.684375)"/>
              <use xlink:href="#DejaVuSans-31" transform="translate(134.375 0.684375)"/>
              <use xlink:href="#DejaVuSans-30" transform="translate(197.998047 0.684375)"/>
              <use xlink:href="#DejaVuSans-35" transform="translate(262.578125 38.965625) scale(0.7)"/>
             </g>
            </g>
           </g>
           <g id="ytick_10">
            <g id="line2d_10">
             <g>
              <use xlink:href="#mbb64cecdb6" x="58.878125" y="74.964454" style="stroke: #000000; stroke-width: 0.8"/>
             </g>
            </g>
            <g id="text_10">
             <!-- $9 \cdot 10^{5}$ -->
             <g transform="translate(20.878125 78.763673) scale(0.1 -0.1)">
              <defs>
               <path id="DejaVuSans-39" d="M 703 97 
L 703 672 
Q 941 559 1184 500 
Q 1428 441 1663 441 
Q 2288 441 2617 861 
Q 2947 1281 2994 2138 
Q 2813 1869 2534 1725 
Q 2256 1581 1919 1581 
Q 1219 1581 811 2004 
Q 403 2428 403 3163 
Q 403 3881 828 4315 
Q 1253 4750 1959 4750 
Q 2769 4750 3195 4129 
Q 3622 3509 3622 2328 
Q 3622 1225 3098 567 
Q 2575 -91 1691 -91 
Q 1453 -91 1209 -44 
Q 966 3 703 97 
z
M 1959 2075 
Q 2384 2075 2632 2365 
Q 2881 2656 2881 3163 
Q 2881 3666 2632 3958 
Q 2384 4250 1959 4250 
Q 1534 4250 1286 3958 
Q 1038 3666 1038 3163 
Q 1038 2656 1286 2365 
Q 1534 2075 1959 2075 
z
" transform="scale(0.015625)"/>
              </defs>
              <use xlink:href="#DejaVuSans-39" transform="translate(0 0.684375)"/>
              <use xlink:href="#DejaVuSans-22c5" transform="translate(83.105469 0.684375)"/>
              <use xlink:href="#DejaVuSans-31" transform="translate(134.375 0.684375)"/>
              <use xlink:href="#DejaVuSans-30" transform="translate(197.998047 0.684375)"/>
              <use xlink:href="#DejaVuSans-35" transform="translate(262.578125 38.965625) scale(0.7)"/>
             </g>
            </g>
           </g>
           <g id="ytick_11">
            <g id="line2d_11">
             <g>
              <use xlink:href="#mbb64cecdb6" x="58.878125" y="43.81377" style="stroke: #000000; stroke-width: 0.8"/>
             </g>
            </g>
            <g id="text_11">
             <!-- $10^{6}$ -->
             <g transform="translate(34.278125 47.612989) scale(0.1 -0.1)">
              <use xlink:href="#DejaVuSans-31" transform="translate(0 0.765625)"/>
              <use xlink:href="#DejaVuSans-30" transform="translate(63.623047 0.765625)"/>
              <use xlink:href="#DejaVuSans-36" transform="translate(128.203125 39.046875) scale(0.7)"/>
             </g>
            </g>
           </g>
           <g id="text_12">
            <!-- time ago (years) -->
            <g transform="translate(14.798438 222.693901) rotate(-90) scale(0.1 -0.1)">
             <defs>
              <path id="DejaVuSans-74" d="M 1172 4494 
L 1172 3500 
L 2356 3500 
L 2356 3053 
L 1172 3053 
L 1172 1153 
Q 1172 725 1289 603 
Q 1406 481 1766 481 
L 2356 481 
L 2356 0 
L 1766 0 
Q 1100 0 847 248 
Q 594 497 594 1153 
L 594 3053 
L 172 3053 
L 172 3500 
L 594 3500 
L 594 4494 
L 1172 4494 
z
" transform="scale(0.015625)"/>
              <path id="DejaVuSans-69" d="M 603 3500 
L 1178 3500 
L 1178 0 
L 603 0 
L 603 3500 
z
M 603 4863 
L 1178 4863 
L 1178 4134 
L 603 4134 
L 603 4863 
z
" transform="scale(0.015625)"/>
              <path id="DejaVuSans-6d" d="M 3328 2828 
Q 3544 3216 3844 3400 
Q 4144 3584 4550 3584 
Q 5097 3584 5394 3201 
Q 5691 2819 5691 2113 
L 5691 0 
L 5113 0 
L 5113 2094 
Q 5113 2597 4934 2840 
Q 4756 3084 4391 3084 
Q 3944 3084 3684 2787 
Q 3425 2491 3425 1978 
L 3425 0 
L 2847 0 
L 2847 2094 
Q 2847 2600 2669 2842 
Q 2491 3084 2119 3084 
Q 1678 3084 1418 2786 
Q 1159 2488 1159 1978 
L 1159 0 
L 581 0 
L 581 3500 
L 1159 3500 
L 1159 2956 
Q 1356 3278 1631 3431 
Q 1906 3584 2284 3584 
Q 2666 3584 2933 3390 
Q 3200 3197 3328 2828 
z
" transform="scale(0.015625)"/>
              <path id="DejaVuSans-65" d="M 3597 1894 
L 3597 1613 
L 953 1613 
Q 991 1019 1311 708 
Q 1631 397 2203 397 
Q 2534 397 2845 478 
Q 3156 559 3463 722 
L 3463 178 
Q 3153 47 2828 -22 
Q 2503 -91 2169 -91 
Q 1331 -91 842 396 
Q 353 884 353 1716 
Q 353 2575 817 3079 
Q 1281 3584 2069 3584 
Q 2775 3584 3186 3129 
Q 3597 2675 3597 1894 
z
M 3022 2063 
Q 3016 2534 2758 2815 
Q 2500 3097 2075 3097 
Q 1594 3097 1305 2825 
Q 1016 2553 972 2059 
L 3022 2063 
z
" transform="scale(0.015625)"/>
              <path id="DejaVuSans-20" transform="scale(0.015625)"/>
              <path id="DejaVuSans-61" d="M 2194 1759 
Q 1497 1759 1228 1600 
Q 959 1441 959 1056 
Q 959 750 1161 570 
Q 1363 391 1709 391 
Q 2188 391 2477 730 
Q 2766 1069 2766 1631 
L 2766 1759 
L 2194 1759 
z
M 3341 1997 
L 3341 0 
L 2766 0 
L 2766 531 
Q 2569 213 2275 61 
Q 1981 -91 1556 -91 
Q 1019 -91 701 211 
Q 384 513 384 1019 
Q 384 1609 779 1909 
Q 1175 2209 1959 2209 
L 2766 2209 
L 2766 2266 
Q 2766 2663 2505 2880 
Q 2244 3097 1772 3097 
Q 1472 3097 1187 3025 
Q 903 2953 641 2809 
L 641 3341 
Q 956 3463 1253 3523 
Q 1550 3584 1831 3584 
Q 2591 3584 2966 3190 
Q 3341 2797 3341 1997 
z
" transform="scale(0.015625)"/>
              <path id="DejaVuSans-67" d="M 2906 1791 
Q 2906 2416 2648 2759 
Q 2391 3103 1925 3103 
Q 1463 3103 1205 2759 
Q 947 2416 947 1791 
Q 947 1169 1205 825 
Q 1463 481 1925 481 
Q 2391 481 2648 825 
Q 2906 1169 2906 1791 
z
M 3481 434 
Q 3481 -459 3084 -895 
Q 2688 -1331 1869 -1331 
Q 1566 -1331 1297 -1286 
Q 1028 -1241 775 -1147 
L 775 -588 
Q 1028 -725 1275 -790 
Q 1522 -856 1778 -856 
Q 2344 -856 2625 -561 
Q 2906 -266 2906 331 
L 2906 616 
Q 2728 306 2450 153 
Q 2172 0 1784 0 
Q 1141 0 747 490 
Q 353 981 353 1791 
Q 353 2603 747 3093 
Q 1141 3584 1784 3584 
Q 2172 3584 2450 3431 
Q 2728 3278 2906 2969 
L 2906 3500 
L 3481 3500 
L 3481 434 
z
" transform="scale(0.015625)"/>
              <path id="DejaVuSans-6f" d="M 1959 3097 
Q 1497 3097 1228 2736 
Q 959 2375 959 1747 
Q 959 1119 1226 758 
Q 1494 397 1959 397 
Q 2419 397 2687 759 
Q 2956 1122 2956 1747 
Q 2956 2369 2687 2733 
Q 2419 3097 1959 3097 
z
M 1959 3584 
Q 2709 3584 3137 3096 
Q 3566 2609 3566 1747 
Q 3566 888 3137 398 
Q 2709 -91 1959 -91 
Q 1206 -91 779 398 
Q 353 888 353 1747 
Q 353 2609 779 3096 
Q 1206 3584 1959 3584 
z
" transform="scale(0.015625)"/>
              <path id="DejaVuSans-28" d="M 1984 4856 
Q 1566 4138 1362 3434 
Q 1159 2731 1159 2009 
Q 1159 1288 1364 580 
Q 1569 -128 1984 -844 
L 1484 -844 
Q 1016 -109 783 600 
Q 550 1309 550 2009 
Q 550 2706 781 3412 
Q 1013 4119 1484 4856 
L 1984 4856 
z
" transform="scale(0.015625)"/>
              <path id="DejaVuSans-79" d="M 2059 -325 
Q 1816 -950 1584 -1140 
Q 1353 -1331 966 -1331 
L 506 -1331 
L 506 -850 
L 844 -850 
Q 1081 -850 1212 -737 
Q 1344 -625 1503 -206 
L 1606 56 
L 191 3500 
L 800 3500 
L 1894 763 
L 2988 3500 
L 3597 3500 
L 2059 -325 
z
" transform="scale(0.015625)"/>
              <path id="DejaVuSans-72" d="M 2631 2963 
Q 2534 3019 2420 3045 
Q 2306 3072 2169 3072 
Q 1681 3072 1420 2755 
Q 1159 2438 1159 1844 
L 1159 0 
L 581 0 
L 581 3500 
L 1159 3500 
L 1159 2956 
Q 1341 3275 1631 3429 
Q 1922 3584 2338 3584 
Q 2397 3584 2469 3576 
Q 2541 3569 2628 3553 
L 2631 2963 
z
" transform="scale(0.015625)"/>
              <path id="DejaVuSans-73" d="M 2834 3397 
L 2834 2853 
Q 2591 2978 2328 3040 
Q 2066 3103 1784 3103 
Q 1356 3103 1142 2972 
Q 928 2841 928 2578 
Q 928 2378 1081 2264 
Q 1234 2150 1697 2047 
L 1894 2003 
Q 2506 1872 2764 1633 
Q 3022 1394 3022 966 
Q 3022 478 2636 193 
Q 2250 -91 1575 -91 
Q 1294 -91 989 -36 
Q 684 19 347 128 
L 347 722 
Q 666 556 975 473 
Q 1284 391 1588 391 
Q 1994 391 2212 530 
Q 2431 669 2431 922 
Q 2431 1156 2273 1281 
Q 2116 1406 1581 1522 
L 1381 1569 
Q 847 1681 609 1914 
Q 372 2147 372 2553 
Q 372 3047 722 3315 
Q 1072 3584 1716 3584 
Q 2034 3584 2315 3537 
Q 2597 3491 2834 3397 
z
" transform="scale(0.015625)"/>
              <path id="DejaVuSans-29" d="M 513 4856 
L 1013 4856 
Q 1481 4119 1714 3412 
Q 1947 2706 1947 2009 
Q 1947 1309 1714 600 
Q 1481 -109 1013 -844 
L 513 -844 
Q 928 -128 1133 580 
Q 1338 1288 1338 2009 
Q 1338 2731 1133 3434 
Q 928 4138 513 4856 
z
" transform="scale(0.015625)"/>
             </defs>
             <use xlink:href="#DejaVuSans-74"/>
             <use xlink:href="#DejaVuSans-69" x="39.208984"/>
             <use xlink:href="#DejaVuSans-6d" x="66.992188"/>
             <use xlink:href="#DejaVuSans-65" x="164.404297"/>
             <use xlink:href="#DejaVuSans-20" x="225.927734"/>
             <use xlink:href="#DejaVuSans-61" x="257.714844"/>
             <use xlink:href="#DejaVuSans-67" x="318.994141"/>
             <use xlink:href="#DejaVuSans-6f" x="382.470703"/>
             <use xlink:href="#DejaVuSans-20" x="443.652344"/>
             <use xlink:href="#DejaVuSans-28" x="475.439453"/>
             <use xlink:href="#DejaVuSans-79" x="514.453125"/>
             <use xlink:href="#DejaVuSans-65" x="573.632812"/>
             <use xlink:href="#DejaVuSans-61" x="635.15625"/>
             <use xlink:href="#DejaVuSans-72" x="696.435547"/>
             <use xlink:href="#DejaVuSans-73" x="737.548828"/>
             <use xlink:href="#DejaVuSans-29" x="789.648438"/>
            </g>
           </g>
          </g>
          <g id="patch_10">
           <path d="M 117.012332 76.824123 
L 116.012332 76.792686 
L 115.012332 76.755746 
L 114.012332 76.657999 
L 113.012332 76.625478 
L 112.012332 76.551853 
L 111.012332 76.513288 
L 110.012332 76.477874 
L 109.012332 76.420234 
L 108.012332 76.349848 
L 107.012332 76.297884 
L 106.012332 76.238794 
L 105.012332 76.150473 
L 104.012332 76.104329 
L 103.012332 76.061918 
L 102.012332 76.031425 
L 100.143479 76.00538 
" clip-path="url(#p5b2c5f3cd6)" style="fill: none; stroke: #ffffff; stroke-width: 3; stroke-linecap: round"/>
           <path d="M 117.012332 76.824123 
L 116.012332 76.792686 
L 115.012332 76.755746 
L 114.012332 76.657999 
L 113.012332 76.625478 
L 112.012332 76.551853 
L 111.012332 76.513288 
L 110.012332 76.477874 
L 109.012332 76.420234 
L 108.012332 76.349848 
L 107.012332 76.297884 
L 106.012332 76.238794 
L 105.012332 76.150473 
L 104.012332 76.104329 
L 103.012332 76.061918 
L 102.012332 76.031425 
L 100.143479 76.00538 
" clip-path="url(#p5b2c5f3cd6)" style="fill: none; stroke: #808080; stroke-linecap: round"/>
           <path d="M 104.143479 78.824123 
L 103.263111 78.348792 
L 102.385204 77.868538 
L 101.53449 77.333897 
L 100.232316 76.646449 
L 101.159669 76.620434 
L 102.071343 76.207715 
L 102.981608 75.792176 
L 104.324103 75.185371 
L 103.669204 75.824123 
L 103.61724 76.824123 
L 103.55815 78.824123 
z
" clip-path="url(#p5b2c5f3cd6)" style="fill: #ffffff; stroke: #ffffff; stroke-width: 3; stroke-linecap: round"/>
           <path d="M 104.143479 78.824123 
L 103.263111 78.348792 
L 102.385204 77.868538 
L 101.53449 77.333897 
L 100.232316 76.646449 
L 101.159669 76.620434 
L 102.071343 76.207715 
L 102.981608 75.792176 
L 104.324103 75.185371 
L 103.669204 75.824123 
L 103.61724 76.824123 
L 103.55815 78.824123 
z
" clip-path="url(#p5b2c5f3cd6)" style="fill: #ffffff; stroke: #808080; stroke-linecap: round"/>
           <g id="patch_11">
            <path d="M 190.022802 76.824123 
L 191.022802 76.855559 
L 192.022802 76.892499 
L 193.022802 76.990246 
L 194.022802 77.022768 
L 195.022802 77.096392 
L 196.022802 77.134958 
L 197.022802 77.170371 
L 198.022802 77.228011 
L 199.022802 77.298397 
L 200.384779 77.350361 
" clip-path="url(#p5b2c5f3cd6)" style="fill: none; stroke: #ffffff; stroke-width: 3; stroke-linecap: round"/>
            <path d="M 190.022802 76.824123 
L 191.022802 76.855559 
L 192.022802 76.892499 
L 193.022802 76.990246 
L 194.022802 77.022768 
L 195.022802 77.096392 
L 196.022802 77.134958 
L 197.022802 77.170371 
L 198.022802 77.228011 
L 199.022802 77.298397 
L 200.384779 77.350361 
" clip-path="url(#p5b2c5f3cd6)" style="fill: none; stroke: #808080; stroke-linecap: round"/>
            <path d="M 196.384779 74.824123 
L 197.265148 75.299454 
L 198.143054 75.779708 
L 198.993768 76.314349 
L 200.295942 77.001796 
L 199.368589 77.027811 
L 198.456915 77.44053 
L 197.546651 77.85607 
L 196.204155 78.462874 
L 196.859054 77.824123 
L 196.911018 76.824123 
L 196.970108 74.824123 
z
" clip-path="url(#p5b2c5f3cd6)" style="fill: #ffffff; stroke: #ffffff; stroke-width: 3; stroke-linecap: round"/>
            <path d="M 196.384779 74.824123 
L 197.265148 75.299454 
L 198.143054 75.779708 
L 198.993768 76.314349 
L 200.295942 77.001796 
L 199.368589 77.027811 
L 198.456915 77.44053 
L 197.546651 77.85607 
L 196.204155 78.462874 
L 196.859054 77.824123 
L 196.911018 76.824123 
L 196.970108 74.824123 
z
" clip-path="url(#p5b2c5f3cd6)" style="fill: #ffffff; stroke: #808080; stroke-linecap: round"/>
            <g id="patch_12">
             <path d="M 236.373384 292.9501 
L 237.373384 292.981536 
L 238.373384 293.018477 
L 239.373384 293.116223 
L 240.373384 293.148745 
L 241.373384 293.22237 
L 242.373384 293.260935 
L 243.373384 293.296348 
L 244.373384 293.353988 
L 245.373384 293.424374 
L 246.373384 293.476339 
L 247.373384 293.535428 
L 248.373384 293.623749 
L 249.373384 293.669894 
L 250.373384 293.712305 
L 251.373384 293.742797 
L 252.373384 293.768842 
L 253.373384 293.790042 
L 254.373384 293.844343 
L 255.373384 293.872281 
L 256.373384 293.902005 
L 257.373384 293.9274 
L 258.373384 293.9386 
L 259.373384 293.948724 
L 260.373384 293.94852 
L 261.373384 293.93901 
L 262.373384 293.927356 
L 263.373384 293.896327 
L 264.373384 293.885159 
L 265.373384 293.855042 
L 266.373384 293.795265 
L 267.373384 293.758073 
L 268.373384 293.718977 
L 269.373384 293.676537 
L 270.373384 293.643772 
L 271.373384 293.576346 
L 272.373384 293.53722 
L 273.373384 293.494545 
L 274.373384 293.423965 
L 275.373384 293.387574 
L 276.373384 293.329171 
L 277.373384 293.218218 
L 278.373384 293.14756 
L 279.373384 293.03462 
L 280.373384 292.988847 
L 281.373384 292.927564 
L 282.373384 292.879065 
L 283.373384 292.798242 
L 284.373384 292.679723 
L 285.373384 292.609512 
L 286.373384 292.52625 
L 287.373384 292.493108 
L 288.373384 292.441871 
L 289.373384 292.373472 
L 290.373384 292.307257 
L 291.373384 292.23034 
L 292.373384 292.203024 
L 293.373384 292.176547 
L 294.373384 292.153896 
L 295.373384 292.134365 
L 296.373384 292.107971 
L 297.373384 292.0582 
L 298.373384 292.023127 
L 299.373384 291.987261 
L 300.373384 291.971894 
L 301.373384 291.956125 
L 302.373384 291.952712 
L 303.373384 291.950295 
L 304.373384 291.950781 
L 305.373384 291.95271 
L 306.373384 291.965967 
L 307.373384 291.974357 
L 308.373384 291.995894 
L 309.373384 292.018927 
L 310.373384 292.03616 
L 311.373384 292.054623 
L 312.373384 292.075075 
L 313.373384 292.091675 
L 314.373384 292.154454 
L 315.373384 292.229719 
L 316.373384 292.262358 
L 317.373384 292.329922 
L 318.373384 292.383969 
L 319.373384 292.417673 
L 320.373384 292.507799 
L 321.373384 292.536334 
L 322.373384 292.56782 
L 323.373384 292.598831 
L 324.373384 292.653639 
L 325.373384 292.718226 
L 326.373384 292.756422 
L 327.373384 292.852356 
L 328.373384 292.901614 
L 329.373384 292.945683 
L 331.221722 292.985807 
" clip-path="url(#p5b2c5f3cd6)" style="fill: none; stroke: #ffffff; stroke-width: 3; stroke-linecap: round"/>
             <path d="M 236.373384 292.9501 
L 237.373384 292.981536 
L 238.373384 293.018477 
L 239.373384 293.116223 
L 240.373384 293.148745 
L 241.373384 293.22237 
L 242.373384 293.260935 
L 243.373384 293.296348 
L 244.373384 293.353988 
L 245.373384 293.424374 
L 246.373384 293.476339 
L 247.373384 293.535428 
L 248.373384 293.623749 
L 249.373384 293.669894 
L 250.373384 293.712305 
L 251.373384 293.742797 
L 252.373384 293.768842 
L 253.373384 293.790042 
L 254.373384 293.844343 
L 255.373384 293.872281 
L 256.373384 293.902005 
L 257.373384 293.9274 
L 258.373384 293.9386 
L 259.373384 293.948724 
L 260.373384 293.94852 
L 261.373384 293.93901 
L 262.373384 293.927356 
L 263.373384 293.896327 
L 264.373384 293.885159 
L 265.373384 293.855042 
L 266.373384 293.795265 
L 267.373384 293.758073 
L 268.373384 293.718977 
L 269.373384 293.676537 
L 270.373384 293.643772 
L 271.373384 293.576346 
L 272.373384 293.53722 
L 273.373384 293.494545 
L 274.373384 293.423965 
L 275.373384 293.387574 
L 276.373384 293.329171 
L 277.373384 293.218218 
L 278.373384 293.14756 
L 279.373384 293.03462 
L 280.373384 292.988847 
L 281.373384 292.927564 
L 282.373384 292.879065 
L 283.373384 292.798242 
L 284.373384 292.679723 
L 285.373384 292.609512 
L 286.373384 292.52625 
L 287.373384 292.493108 
L 288.373384 292.441871 
L 289.373384 292.373472 
L 290.373384 292.307257 
L 291.373384 292.23034 
L 292.373384 292.203024 
L 293.373384 292.176547 
L 294.373384 292.153896 
L 295.373384 292.134365 
L 296.373384 292.107971 
L 297.373384 292.0582 
L 298.373384 292.023127 
L 299.373384 291.987261 
L 300.373384 291.971894 
L 301.373384 291.956125 
L 302.373384 291.952712 
L 303.373384 291.950295 
L 304.373384 291.950781 
L 305.373384 291.95271 
L 306.373384 291.965967 
L 307.373384 291.974357 
L 308.373384 291.995894 
L 309.373384 292.018927 
L 310.373384 292.03616 
L 311.373384 292.054623 
L 312.373384 292.075075 
L 313.373384 292.091675 
L 314.373384 292.154454 
L 315.373384 292.229719 
L 316.373384 292.262358 
L 317.373384 292.329922 
L 318.373384 292.383969 
L 319.373384 292.417673 
L 320.373384 292.507799 
L 321.373384 292.536334 
L 322.373384 292.56782 
L 323.373384 292.598831 
L 324.373384 292.653639 
L 325.373384 292.718226 
L 326.373384 292.756422 
L 327.373384 292.852356 
L 328.373384 292.901614 
L 329.373384 292.945683 
L 331.221722 292.985807 
" clip-path="url(#p5b2c5f3cd6)" style="fill: none; stroke: #808080; stroke-linecap: round"/>
             <path d="M 327.221722 290.9501 
L 328.10209 291.425431 
L 328.979997 291.905685 
L 329.830711 292.440326 
L 331.132885 293.127773 
L 330.205532 293.153788 
L 329.293857 293.566508 
L 328.383593 293.982047 
L 327.041097 294.588851 
L 327.695996 293.9501 
L 327.74796 292.9501 
L 327.80705 290.9501 
z
" clip-path="url(#p5b2c5f3cd6)" style="fill: #ffffff; stroke: #ffffff; stroke-width: 3; stroke-linecap: round"/>
             <path d="M 327.221722 290.9501 
L 328.10209 291.425431 
L 328.979997 291.905685 
L 329.830711 292.440326 
L 331.132885 293.127773 
L 330.205532 293.153788 
L 329.293857 293.566508 
L 328.383593 293.982047 
L 327.041097 294.588851 
L 327.695996 293.9501 
L 327.74796 292.9501 
L 327.80705 290.9501 
z
" clip-path="url(#p5b2c5f3cd6)" style="fill: #ffffff; stroke: #808080; stroke-linecap: round"/>
             <g id="patch_13">
              <path d="M 367.212138 317.686161 
L 368.212138 317.717598 
L 369.212138 317.754538 
L 370.212138 317.852285 
L 371.212138 317.884806 
L 372.212138 317.958431 
L 373.212138 317.996996 
L 374.212138 318.03241 
L 375.212138 318.090049 
L 376.212138 318.160436 
L 377.212138 318.2124 
L 378.212138 318.27149 
L 379.212138 318.359811 
L 380.212138 318.405955 
L 381.212138 318.448366 
L 382.212138 318.478859 
L 383.212138 318.504903 
L 384.212138 318.526104 
L 385.212138 318.580405 
L 386.212138 318.608342 
L 387.212138 318.638066 
L 388.212138 318.663461 
L 389.212138 318.674661 
L 390.212138 318.684785 
L 391.212138 318.684581 
L 392.212138 318.675071 
L 393.212138 318.663418 
L 394.212138 318.632388 
L 395.212138 318.62122 
L 396.212138 318.591103 
L 397.212138 318.531326 
L 398.212138 318.494134 
L 399.212138 318.455038 
L 400.212138 318.412599 
L 401.212138 318.379834 
L 402.212138 318.312407 
L 403.212138 318.273281 
L 404.212138 318.230607 
L 405.212138 318.160026 
L 406.212138 318.123635 
L 407.212138 318.065232 
L 408.212138 317.954279 
L 409.212138 317.883621 
L 410.212138 317.770681 
L 411.212138 317.724908 
L 412.212138 317.663625 
L 413.212138 317.615126 
L 414.212138 317.534303 
L 415.212138 317.415784 
L 416.212138 317.345574 
L 417.212138 317.262311 
L 418.212138 317.229169 
L 419.212138 317.177932 
L 420.212138 317.109534 
L 421.212138 317.043318 
L 422.212138 316.966401 
L 423.212138 316.939086 
L 424.212138 316.912608 
L 425.212138 316.889958 
L 426.212138 316.870426 
L 427.212138 316.844032 
L 428.212138 316.794261 
L 429.212138 316.759188 
L 430.212138 316.723323 
L 431.212138 316.707955 
L 432.212138 316.692186 
L 433.212138 316.688774 
L 434.212138 316.686356 
L 435.212138 316.686842 
L 436.212138 316.688771 
L 437.212138 316.702028 
L 438.212138 316.710419 
L 439.212138 316.731956 
L 440.212138 316.754988 
L 441.212138 316.772222 
L 442.212138 316.790684 
L 443.212138 316.811136 
L 444.212138 316.827736 
L 445.212138 316.890515 
L 446.212138 316.96578 
L 447.212138 316.998419 
L 448.212138 317.065983 
L 449.212138 317.12003 
L 450.212138 317.153734 
L 451.212138 317.24386 
L 452.212138 317.272395 
L 453.212138 317.303881 
L 454.212138 317.334892 
L 455.212138 317.3897 
L 456.212138 317.454288 
L 457.212138 317.492483 
L 458.212138 317.588417 
L 459.212138 317.637675 
L 460.212138 317.681745 
L 461.212138 317.721868 
L 462.212138 317.830235 
L 463.212138 317.871863 
L 464.212138 317.934005 
L 465.212138 318.003967 
L 466.212138 318.108472 
L 467.212138 318.145459 
L 468.212138 318.191336 
L 469.212138 318.259831 
L 470.212138 318.308577 
L 471.212138 318.386174 
L 473.203076 318.416715 
" clip-path="url(#p5b2c5f3cd6)" style="fill: none; stroke: #ffffff; stroke-width: 3; stroke-linecap: round"/>
              <path d="M 367.212138 317.686161 
L 368.212138 317.717598 
L 369.212138 317.754538 
L 370.212138 317.852285 
L 371.212138 317.884806 
L 372.212138 317.958431 
L 373.212138 317.996996 
L 374.212138 318.03241 
L 375.212138 318.090049 
L 376.212138 318.160436 
L 377.212138 318.2124 
L 378.212138 318.27149 
L 379.212138 318.359811 
L 380.212138 318.405955 
L 381.212138 318.448366 
L 382.212138 318.478859 
L 383.212138 318.504903 
L 384.212138 318.526104 
L 385.212138 318.580405 
L 386.212138 318.608342 
L 387.212138 318.638066 
L 388.212138 318.663461 
L 389.212138 318.674661 
L 390.212138 318.684785 
L 391.212138 318.684581 
L 392.212138 318.675071 
L 393.212138 318.663418 
L 394.212138 318.632388 
L 395.212138 318.62122 
L 396.212138 318.591103 
L 397.212138 318.531326 
L 398.212138 318.494134 
L 399.212138 318.455038 
L 400.212138 318.412599 
L 401.212138 318.379834 
L 402.212138 318.312407 
L 403.212138 318.273281 
L 404.212138 318.230607 
L 405.212138 318.160026 
L 406.212138 318.123635 
L 407.212138 318.065232 
L 408.212138 317.954279 
L 409.212138 317.883621 
L 410.212138 317.770681 
L 411.212138 317.724908 
L 412.212138 317.663625 
L 413.212138 317.615126 
L 414.212138 317.534303 
L 415.212138 317.415784 
L 416.212138 317.345574 
L 417.212138 317.262311 
L 418.212138 317.229169 
L 419.212138 317.177932 
L 420.212138 317.109534 
L 421.212138 317.043318 
L 422.212138 316.966401 
L 423.212138 316.939086 
L 424.212138 316.912608 
L 425.212138 316.889958 
L 426.212138 316.870426 
L 427.212138 316.844032 
L 428.212138 316.794261 
L 429.212138 316.759188 
L 430.212138 316.723323 
L 431.212138 316.707955 
L 432.212138 316.692186 
L 433.212138 316.688774 
L 434.212138 316.686356 
L 435.212138 316.686842 
L 436.212138 316.688771 
L 437.212138 316.702028 
L 438.212138 316.710419 
L 439.212138 316.731956 
L 440.212138 316.754988 
L 441.212138 316.772222 
L 442.212138 316.790684 
L 443.212138 316.811136 
L 444.212138 316.827736 
L 445.212138 316.890515 
L 446.212138 316.96578 
L 447.212138 316.998419 
L 448.212138 317.065983 
L 449.212138 317.12003 
L 450.212138 317.153734 
L 451.212138 317.24386 
L 452.212138 317.272395 
L 453.212138 317.303881 
L 454.212138 317.334892 
L 455.212138 317.3897 
L 456.212138 317.454288 
L 457.212138 317.492483 
L 458.212138 317.588417 
L 459.212138 317.637675 
L 460.212138 317.681745 
L 461.212138 317.721868 
L 462.212138 317.830235 
L 463.212138 317.871863 
L 464.212138 317.934005 
L 465.212138 318.003967 
L 466.212138 318.108472 
L 467.212138 318.145459 
L 468.212138 318.191336 
L 469.212138 318.259831 
L 470.212138 318.308577 
L 471.212138 318.386174 
L 473.203076 318.416715 
" clip-path="url(#p5b2c5f3cd6)" style="fill: none; stroke: #808080; stroke-linecap: round"/>
              <path d="M 469.203076 315.686161 
L 470.083445 316.161492 
L 470.961352 316.641746 
L 471.812065 317.176387 
L 473.11424 317.863835 
L 472.186886 317.889849 
L 471.275212 318.302569 
L 470.364948 318.718108 
L 469.022452 319.324912 
L 469.677351 318.686161 
L 469.729315 317.686161 
L 469.788405 315.686161 
z
" clip-path="url(#p5b2c5f3cd6)" style="fill: #ffffff; stroke: #ffffff; stroke-width: 3; stroke-linecap: round"/>
              <path d="M 469.203076 315.686161 
L 470.083445 316.161492 
L 470.961352 316.641746 
L 471.812065 317.176387 
L 473.11424 317.863835 
L 472.186886 317.889849 
L 471.275212 318.302569 
L 470.364948 318.718108 
L 469.022452 319.324912 
L 469.677351 318.686161 
L 469.729315 317.686161 
L 469.788405 315.686161 
z
" clip-path="url(#p5b2c5f3cd6)" style="fill: #ffffff; stroke: #808080; stroke-linecap: round"/>
              <g id="patch_14">
               <path d="M 58.878125 355.320614 
L 58.878125 7.2 
" style="fill: none; stroke: #000000; stroke-width: 0.8; stroke-linejoin: miter; stroke-linecap: square"/>
              </g>
              <g id="text_13">
               <g id="patch_15">
                <path d="M 130.029433 48.851124 
L 177.005995 48.851124 
Q 179.005995 48.851124 179.005995 46.851124 
L 179.005995 37.172999 
Q 179.005995 35.172999 177.005995 35.172999 
L 130.029433 35.172999 
Q 128.029433 35.172999 128.029433 37.172999 
L 128.029433 46.851124 
Q 128.029433 48.851124 130.029433 48.851124 
z
" style="fill: #ffffff; opacity: 0.6"/>
               </g>
               <!-- Ancestral -->
               <g transform="translate(130.029433 44.771436) scale(0.1 -0.1)">
                <defs>
                 <path id="DejaVuSans-41" d="M 2188 4044 
L 1331 1722 
L 3047 1722 
L 2188 4044 
z
M 1831 4666 
L 2547 4666 
L 4325 0 
L 3669 0 
L 3244 1197 
L 1141 1197 
L 716 0 
L 50 0 
L 1831 4666 
z
" transform="scale(0.015625)"/>
                 <path id="DejaVuSans-6e" d="M 3513 2113 
L 3513 0 
L 2938 0 
L 2938 2094 
Q 2938 2591 2744 2837 
Q 2550 3084 2163 3084 
Q 1697 3084 1428 2787 
Q 1159 2491 1159 1978 
L 1159 0 
L 581 0 
L 581 3500 
L 1159 3500 
L 1159 2956 
Q 1366 3272 1645 3428 
Q 1925 3584 2291 3584 
Q 2894 3584 3203 3211 
Q 3513 2838 3513 2113 
z
" transform="scale(0.015625)"/>
                 <path id="DejaVuSans-63" d="M 3122 3366 
L 3122 2828 
Q 2878 2963 2633 3030 
Q 2388 3097 2138 3097 
Q 1578 3097 1268 2742 
Q 959 2388 959 1747 
Q 959 1106 1268 751 
Q 1578 397 2138 397 
Q 2388 397 2633 464 
Q 2878 531 3122 666 
L 3122 134 
Q 2881 22 2623 -34 
Q 2366 -91 2075 -91 
Q 1284 -91 818 406 
Q 353 903 353 1747 
Q 353 2603 823 3093 
Q 1294 3584 2113 3584 
Q 2378 3584 2631 3529 
Q 2884 3475 3122 3366 
z
" transform="scale(0.015625)"/>
                 <path id="DejaVuSans-6c" d="M 603 4863 
L 1178 4863 
L 1178 0 
L 603 0 
L 603 4863 
z
" transform="scale(0.015625)"/>
                </defs>
                <use xlink:href="#DejaVuSans-41"/>
                <use xlink:href="#DejaVuSans-6e" x="68.408203"/>
                <use xlink:href="#DejaVuSans-63" x="131.787109"/>
                <use xlink:href="#DejaVuSans-65" x="186.767578"/>
                <use xlink:href="#DejaVuSans-73" x="248.291016"/>
                <use xlink:href="#DejaVuSans-74" x="300.390625"/>
                <use xlink:href="#DejaVuSans-72" x="339.599609"/>
                <use xlink:href="#DejaVuSans-61" x="380.712891"/>
                <use xlink:href="#DejaVuSans-6c" x="441.992188"/>
               </g>
              </g>
              <g id="text_14">
               <g id="patch_16">
                <path d="M 64.925933 212.008691 
L 111.269683 212.008691 
Q 113.269683 212.008691 113.269683 210.008691 
L 113.269683 200.330566 
Q 113.269683 198.330566 111.269683 198.330566 
L 64.925933 198.330566 
Q 62.925933 198.330566 62.925933 200.330566 
L 62.925933 210.008691 
Q 62.925933 212.008691 64.925933 212.008691 
z
" style="fill: #ffffff; opacity: 0.6"/>
               </g>
               <!-- Denisova -->
               <g transform="translate(64.925933 207.929004) scale(0.1 -0.1)">
                <defs>
                 <path id="DejaVuSans-44" d="M 1259 4147 
L 1259 519 
L 2022 519 
Q 2988 519 3436 956 
Q 3884 1394 3884 2338 
Q 3884 3275 3436 3711 
Q 2988 4147 2022 4147 
L 1259 4147 
z
M 628 4666 
L 1925 4666 
Q 3281 4666 3915 4102 
Q 4550 3538 4550 2338 
Q 4550 1131 3912 565 
Q 3275 0 1925 0 
L 628 0 
L 628 4666 
z
" transform="scale(0.015625)"/>
                 <path id="DejaVuSans-76" d="M 191 3500 
L 800 3500 
L 1894 563 
L 2988 3500 
L 3597 3500 
L 2284 0 
L 1503 0 
L 191 3500 
z
" transform="scale(0.015625)"/>
                </defs>
                <use xlink:href="#DejaVuSans-44"/>
                <use xlink:href="#DejaVuSans-65" x="77.001953"/>
                <use xlink:href="#DejaVuSans-6e" x="138.525391"/>
                <use xlink:href="#DejaVuSans-69" x="201.904297"/>
                <use xlink:href="#DejaVuSans-73" x="229.6875"/>
                <use xlink:href="#DejaVuSans-6f" x="281.787109"/>
                <use xlink:href="#DejaVuSans-76" x="342.96875"/>
                <use xlink:href="#DejaVuSans-61" x="402.148438"/>
               </g>
              </g>
              <g id="text_15">
               <g id="patch_17">
                <path d="M 191.168089 191.726174 
L 246.707152 191.726174 
Q 248.707152 191.726174 248.707152 189.726174 
L 248.707152 180.048049 
Q 248.707152 178.048049 246.707152 178.048049 
L 191.168089 178.048049 
Q 189.168089 178.048049 189.168089 180.048049 
L 189.168089 189.726174 
Q 189.168089 191.726174 191.168089 191.726174 
z
" style="fill: #ffffff; opacity: 0.6"/>
               </g>
               <!-- Neandertal -->
               <g transform="translate(191.168089 187.646486) scale(0.1 -0.1)">
                <defs>
                 <path id="DejaVuSans-4e" d="M 628 4666 
L 1478 4666 
L 3547 763 
L 3547 4666 
L 4159 4666 
L 4159 0 
L 3309 0 
L 1241 3903 
L 1241 0 
L 628 0 
L 628 4666 
z
" transform="scale(0.015625)"/>
                 <path id="DejaVuSans-64" d="M 2906 2969 
L 2906 4863 
L 3481 4863 
L 3481 0 
L 2906 0 
L 2906 525 
Q 2725 213 2448 61 
Q 2172 -91 1784 -91 
Q 1150 -91 751 415 
Q 353 922 353 1747 
Q 353 2572 751 3078 
Q 1150 3584 1784 3584 
Q 2172 3584 2448 3432 
Q 2725 3281 2906 2969 
z
M 947 1747 
Q 947 1113 1208 752 
Q 1469 391 1925 391 
Q 2381 391 2643 752 
Q 2906 1113 2906 1747 
Q 2906 2381 2643 2742 
Q 2381 3103 1925 3103 
Q 1469 3103 1208 2742 
Q 947 2381 947 1747 
z
" transform="scale(0.015625)"/>
                </defs>
                <use xlink:href="#DejaVuSans-4e"/>
                <use xlink:href="#DejaVuSans-65" x="74.804688"/>
                <use xlink:href="#DejaVuSans-61" x="136.328125"/>
                <use xlink:href="#DejaVuSans-6e" x="197.607422"/>
                <use xlink:href="#DejaVuSans-64" x="260.986328"/>
                <use xlink:href="#DejaVuSans-65" x="324.462891"/>
                <use xlink:href="#DejaVuSans-72" x="385.986328"/>
                <use xlink:href="#DejaVuSans-74" x="427.099609"/>
                <use xlink:href="#DejaVuSans-61" x="466.308594"/>
                <use xlink:href="#DejaVuSans-6c" x="527.587891"/>
               </g>
              </g>
              <g id="text_16">
               <g id="patch_18">
                <path d="M 207.714964 312.284009 
L 230.160277 312.284009 
Q 232.160277 312.284009 232.160277 310.284009 
L 232.160277 300.605884 
Q 232.160277 298.605884 230.160277 298.605884 
L 207.714964 298.605884 
Q 205.714964 298.605884 205.714964 300.605884 
L 205.714964 310.284009 
Q 205.714964 312.284009 207.714964 312.284009 
z
" style="fill: #ffffff; opacity: 0.6"/>
               </g>
               <!-- Altai -->
               <g transform="translate(207.714964 308.204321) scale(0.1 -0.1)">
                <use xlink:href="#DejaVuSans-41"/>
                <use xlink:href="#DejaVuSans-6c" x="68.408203"/>
                <use xlink:href="#DejaVuSans-74" x="96.191406"/>
                <use xlink:href="#DejaVuSans-61" x="135.400391"/>
                <use xlink:href="#DejaVuSans-69" x="196.679688"/>
               </g>
              </g>
              <g id="text_17">
               <g id="patch_19">
                <path d="M 309.716495 312.157193 
L 389.83837 312.157193 
Q 391.83837 312.157193 391.83837 310.157193 
L 391.83837 300.479068 
Q 391.83837 298.479068 389.83837 298.479068 
L 309.716495 298.479068 
Q 307.716495 298.479068 307.716495 300.479068 
L 307.716495 310.157193 
Q 307.716495 312.157193 309.716495 312.157193 
z
" style="fill: #ffffff; opacity: 0.6"/>
               </g>
               <!-- WestNeandertal -->
               <g transform="translate(309.716495 308.077506) scale(0.1 -0.1)">
                <defs>
                 <path id="DejaVuSans-57" d="M 213 4666 
L 850 4666 
L 1831 722 
L 2809 4666 
L 3519 4666 
L 4500 722 
L 5478 4666 
L 6119 4666 
L 4947 0 
L 4153 0 
L 3169 4050 
L 2175 0 
L 1381 0 
L 213 4666 
z
" transform="scale(0.015625)"/>
                </defs>
                <use xlink:href="#DejaVuSans-57"/>
                <use xlink:href="#DejaVuSans-65" x="93.001953"/>
                <use xlink:href="#DejaVuSans-73" x="154.525391"/>
                <use xlink:href="#DejaVuSans-74" x="206.625"/>
                <use xlink:href="#DejaVuSans-4e" x="245.833984"/>
                <use xlink:href="#DejaVuSans-65" x="320.638672"/>
                <use xlink:href="#DejaVuSans-61" x="382.162109"/>
                <use xlink:href="#DejaVuSans-6e" x="443.441406"/>
                <use xlink:href="#DejaVuSans-64" x="506.820312"/>
                <use xlink:href="#DejaVuSans-65" x="570.296875"/>
                <use xlink:href="#DejaVuSans-72" x="631.820312"/>
                <use xlink:href="#DejaVuSans-74" x="672.933594"/>
                <use xlink:href="#DejaVuSans-61" x="712.142578"/>
                <use xlink:href="#DejaVuSans-6c" x="773.421875"/>
               </g>
              </g>
              <g id="text_18">
               <g id="patch_20">
                <path d="M 317.364152 330.882176 
L 382.190714 330.882176 
Q 384.190714 330.882176 384.190714 328.882176 
L 384.190714 319.204051 
Q 384.190714 317.204051 382.190714 317.204051 
L 317.364152 317.204051 
Q 315.364152 317.204051 315.364152 319.204051 
L 315.364152 328.882176 
Q 315.364152 330.882176 317.364152 330.882176 
z
" style="fill: #ffffff; opacity: 0.6"/>
               </g>
               <!-- Chagyrskaya -->
               <g transform="translate(317.364152 326.802489) scale(0.1 -0.1)">
                <defs>
                 <path id="DejaVuSans-43" d="M 4122 4306 
L 4122 3641 
Q 3803 3938 3442 4084 
Q 3081 4231 2675 4231 
Q 1875 4231 1450 3742 
Q 1025 3253 1025 2328 
Q 1025 1406 1450 917 
Q 1875 428 2675 428 
Q 3081 428 3442 575 
Q 3803 722 4122 1019 
L 4122 359 
Q 3791 134 3420 21 
Q 3050 -91 2638 -91 
Q 1578 -91 968 557 
Q 359 1206 359 2328 
Q 359 3453 968 4101 
Q 1578 4750 2638 4750 
Q 3056 4750 3426 4639 
Q 3797 4528 4122 4306 
z
" transform="scale(0.015625)"/>
                 <path id="DejaVuSans-68" d="M 3513 2113 
L 3513 0 
L 2938 0 
L 2938 2094 
Q 2938 2591 2744 2837 
Q 2550 3084 2163 3084 
Q 1697 3084 1428 2787 
Q 1159 2491 1159 1978 
L 1159 0 
L 581 0 
L 581 4863 
L 1159 4863 
L 1159 2956 
Q 1366 3272 1645 3428 
Q 1925 3584 2291 3584 
Q 2894 3584 3203 3211 
Q 3513 2838 3513 2113 
z
" transform="scale(0.015625)"/>
                 <path id="DejaVuSans-6b" d="M 581 4863 
L 1159 4863 
L 1159 1991 
L 2875 3500 
L 3609 3500 
L 1753 1863 
L 3688 0 
L 2938 0 
L 1159 1709 
L 1159 0 
L 581 0 
L 581 4863 
z
" transform="scale(0.015625)"/>
                </defs>
                <use xlink:href="#DejaVuSans-43"/>
                <use xlink:href="#DejaVuSans-68" x="69.824219"/>
                <use xlink:href="#DejaVuSans-61" x="133.203125"/>
                <use xlink:href="#DejaVuSans-67" x="194.482422"/>
                <use xlink:href="#DejaVuSans-79" x="257.958984"/>
                <use xlink:href="#DejaVuSans-72" x="317.138672"/>
                <use xlink:href="#DejaVuSans-73" x="358.251953"/>
                <use xlink:href="#DejaVuSans-6b" x="410.351562"/>
                <use xlink:href="#DejaVuSans-61" x="466.511719"/>
                <use xlink:href="#DejaVuSans-79" x="527.791016"/>
                <use xlink:href="#DejaVuSans-61" x="586.970703"/>
               </g>
              </g>
              <g id="text_19">
               <g id="patch_21">
                <path d="M 463.735214 335.554779 
L 497.499277 335.554779 
Q 499.499277 335.554779 499.499277 333.554779 
L 499.499277 323.876654 
Q 499.499277 321.876654 497.499277 321.876654 
L 463.735214 321.876654 
Q 461.735214 321.876654 461.735214 323.876654 
L 461.735214 333.554779 
Q 461.735214 335.554779 463.735214 335.554779 
z
" style="fill: #ffffff; opacity: 0.6"/>
               </g>
               <!-- Vindija -->
               <g transform="translate(463.735214 331.475091) scale(0.1 -0.1)">
                <defs>
                 <path id="DejaVuSans-56" d="M 1831 0 
L 50 4666 
L 709 4666 
L 2188 738 
L 3669 4666 
L 4325 4666 
L 2547 0 
L 1831 0 
z
" transform="scale(0.015625)"/>
                 <path id="DejaVuSans-6a" d="M 603 3500 
L 1178 3500 
L 1178 -63 
Q 1178 -731 923 -1031 
Q 669 -1331 103 -1331 
L -116 -1331 
L -116 -844 
L 38 -844 
Q 366 -844 484 -692 
Q 603 -541 603 -63 
L 603 3500 
z
M 603 4863 
L 1178 4863 
L 1178 4134 
L 603 4134 
L 603 4863 
z
" transform="scale(0.015625)"/>
                </defs>
                <use xlink:href="#DejaVuSans-56"/>
                <use xlink:href="#DejaVuSans-69" x="66.158203"/>
                <use xlink:href="#DejaVuSans-6e" x="93.941406"/>
                <use xlink:href="#DejaVuSans-64" x="157.320312"/>
                <use xlink:href="#DejaVuSans-69" x="220.796875"/>
                <use xlink:href="#DejaVuSans-6a" x="248.580078"/>
                <use xlink:href="#DejaVuSans-61" x="276.363281"/>
               </g>
              </g>
             </g>
            </g>
            <defs>
             <clipPath id="p5b2c5f3cd6">
              <rect x="58.878125" y="7.2" width="446.321395" height="348.120614"/>
             </clipPath>
            </defs>
           </g>
          </g>
         </g>
        </g>
       </g>
      </g>
     </g>
    </g>
   </g>
  </g>
 </g>
</svg>
