<?xml version="1.0" encoding="utf-8" standalone="no"?>
<!DOCTYPE svg PUBLIC "-//W3C//DTD SVG 1.1//EN"
  "http://www.w3.org/Graphics/SVG/1.1/DTD/svg11.dtd">
<svg xmlns:xlink="http://www.w3.org/1999/xlink" width="512.39952pt" height="368.39952pt" viewBox="0 0 512.39952 368.39952" xmlns="http://www.w3.org/2000/svg" version="1.1">
 <metadata>
  <rdf:RDF xmlns:dc="http://purl.org/dc/elements/1.1/" xmlns:cc="http://creativecommons.org/ns#" xmlns:rdf="http://www.w3.org/1999/02/22-rdf-syntax-ns#">
   <cc:Work>
    <dc:type rdf:resource="http://purl.org/dc/dcmitype/StillImage"/>
    <dc:date>2024-08-05T10:57:04.517022</dc:date>
    <dc:format>image/svg+xml</dc:format>
    <dc:creator>
     <cc:Agent>
      <dc:title>Matplotlib v3.8.2, https://matplotlib.org/</dc:title>
     </cc:Agent>
    </dc:creator>
   </cc:Work>
  </rdf:RDF>
 </metadata>
 <defs>
  <style type="text/css">*{stroke-linejoin: round; stroke-linecap: butt}</style>
 </defs>
 <g id="figure_1">
  <g id="patch_1">
   <path d="M 0 368.39952 
L 512.39952 368.39952 
L 512.39952 0 
L 0 0 
z
" style="fill: #ffffff"/>
  </g>
  <g id="axes_1">
   <g id="patch_2">
    <path d="M 64.778125 159.432332 
L 253.19952 159.432332 
L 253.19952 22.318125 
L 64.778125 22.318125 
z
" style="fill: #ffffff"/>
   </g>
   <path d="M 225.151344 140.388693 
L 224.151344 140.357256 
L 223.151344 140.320316 
L 222.151344 140.222569 
L 221.151344 140.190048 
L 220.151344 140.116423 
L 219.151344 140.077857 
L 218.151344 140.042444 
L 217.151344 139.984804 
L 216.151344 139.914418 
L 215.151344 139.862454 
L 214.151344 139.803364 
L 213.151344 139.715043 
L 212.151344 139.668899 
L 211.151344 139.626488 
L 210.151344 139.595995 
L 209.151344 139.56995 
L 208.151344 139.54875 
L 207.151344 139.494449 
L 206.151344 139.466512 
L 205.151344 139.436788 
L 204.151344 139.411393 
L 203.151344 139.400192 
L 202.151344 139.390068 
L 201.151344 139.390273 
L 200.151344 139.399783 
L 199.151344 139.411436 
L 198.151344 139.442465 
L 197.151344 139.453633 
L 196.151344 139.483751 
L 195.151344 139.543528 
L 194.151344 139.580719 
L 193.151344 139.619815 
L 192.151344 139.662255 
L 191.151344 139.69502 
L 190.151344 139.762447 
L 189.151344 139.801573 
L 188.151344 139.844247 
L 187.151344 139.914828 
L 186.151344 139.951219 
L 185.151344 140.009622 
L 184.151344 140.120574 
L 183.151344 140.191233 
L 182.151344 140.304173 
L 181.151344 140.349945 
L 180.151344 140.411229 
L 179.151344 140.459728 
L 178.151344 140.540551 
L 177.151344 140.65907 
L 176.151344 140.72928 
L 175.151344 140.812543 
L 174.151344 140.845684 
L 173.151344 140.896922 
L 172.151344 140.96532 
L 171.151344 141.031536 
L 170.151344 141.108453 
L 169.151344 141.135768 
L 168.151344 141.162246 
L 167.151344 141.184896 
L 166.151344 141.204428 
L 165.151344 141.230821 
L 163.223712 141.280592 
" clip-path="url(#p7d25cfaa99)" style="fill: none; stroke-dasharray: 3.7,1.6; stroke-dashoffset: 0; stroke: #808080"/>
   <g id="patch_3">
    <path d="M 73.342734 22.318125 
L 73.342734 159.432332 
M 161.339498 22.318125 
L 161.339498 159.432332 
" clip-path="url(#p7d25cfaa99)" style="fill: none; stroke: #ffffff; stroke-width: 3; stroke-linejoin: miter"/>
    <path d="M 73.342734 22.318125 
L 73.342734 159.432332 
M 161.339498 22.318125 
L 161.339498 159.432332 
" clip-path="url(#p7d25cfaa99)" style="fill: none; stroke: #808080; stroke-linejoin: miter"/>
    <g id="PolyCollection_1">
     <path d="M 161.339498 22.318125 
L 73.342734 22.318125 
L 73.342734 159.432332 
L 161.339498 159.432332 
L 161.339498 159.432332 
L 161.339498 22.318125 
z
" clip-path="url(#p7d25cfaa99)" style="fill: #808080; fill-opacity: 0.5"/>
    </g>
    <g id="patch_4">
     <path d="M 227.035558 45.170493 
L 227.035558 140.388693 
M 244.634911 45.170493 
L 244.634911 140.388693 
" clip-path="url(#p7d25cfaa99)" style="fill: none; stroke: #ffffff; stroke-width: 3; stroke-linejoin: miter"/>
     <path d="M 227.035558 45.170493 
L 227.035558 140.388693 
M 244.634911 45.170493 
L 244.634911 140.388693 
" clip-path="url(#p7d25cfaa99)" style="fill: none; stroke: #808080; stroke-linejoin: miter"/>
     <g id="PolyCollection_2">
      <path d="M 244.634911 45.170493 
L 227.035558 45.170493 
L 227.035558 140.388693 
L 244.634911 140.388693 
L 244.634911 140.388693 
L 244.634911 45.170493 
z
" clip-path="url(#p7d25cfaa99)" style="fill: #808080; fill-opacity: 0.5"/>
     </g>
     <g id="matplotlib.axis_1">
      <g id="xtick_1">
       <g id="line2d_1"/>
       <g id="text_1">
        <!-- X -->
        <g transform="translate(113.916116 170.53077) scale(0.1 -0.1)">
         <defs>
          <path id="DejaVuSans-58" d="M 403 4666 
L 1081 4666 
L 2241 2931 
L 3406 4666 
L 4084 4666 
L 2584 2425 
L 4184 0 
L 3506 0 
L 2194 1984 
L 872 0 
L 191 0 
L 1856 2491 
L 403 4666 
z
" transform="scale(0.015625)"/>
         </defs>
         <use xlink:href="#DejaVuSans-58"/>
        </g>
       </g>
      </g>
     </g>
     <g id="matplotlib.axis_2">
      <g id="ytick_1">
       <g id="line2d_2">
        <defs>
         <path id="m1252779148" d="M 0 0 
L -3.5 0 
" style="stroke: #000000; stroke-width: 0.8"/>
        </defs>
        <g>
         <use xlink:href="#m1252779148" x="64.778125" y="159.432332" style="stroke: #000000; stroke-width: 0.8"/>
        </g>
       </g>
       <g id="text_2">
        <!-- 0 -->
        <g transform="translate(51.415625 163.231551) scale(0.1 -0.1)">
         <defs>
          <path id="DejaVuSans-30" d="M 2034 4250 
Q 1547 4250 1301 3770 
Q 1056 3291 1056 2328 
Q 1056 1369 1301 889 
Q 1547 409 2034 409 
Q 2525 409 2770 889 
Q 3016 1369 3016 2328 
Q 3016 3291 2770 3770 
Q 2525 4250 2034 4250 
z
M 2034 4750 
Q 2819 4750 3233 4129 
Q 3647 3509 3647 2328 
Q 3647 1150 3233 529 
Q 2819 -91 2034 -91 
Q 1250 -91 836 529 
Q 422 1150 422 2328 
Q 422 3509 836 4129 
Q 1250 4750 2034 4750 
z
" transform="scale(0.015625)"/>
         </defs>
         <use xlink:href="#DejaVuSans-30"/>
        </g>
       </g>
      </g>
      <g id="ytick_2">
       <g id="line2d_3">
        <g>
         <use xlink:href="#m1252779148" x="64.778125" y="140.388693" style="stroke: #000000; stroke-width: 0.8"/>
        </g>
       </g>
       <g id="text_3">
        <!-- 0.2 -->
        <g transform="translate(41.875 144.187911) scale(0.1 -0.1)">
         <defs>
          <path id="DejaVuSans-2e" d="M 684 794 
L 1344 794 
L 1344 0 
L 684 0 
L 684 794 
z
" transform="scale(0.015625)"/>
          <path id="DejaVuSans-32" d="M 1228 531 
L 3431 531 
L 3431 0 
L 469 0 
L 469 531 
Q 828 903 1448 1529 
Q 2069 2156 2228 2338 
Q 2531 2678 2651 2914 
Q 2772 3150 2772 3378 
Q 2772 3750 2511 3984 
Q 2250 4219 1831 4219 
Q 1534 4219 1204 4116 
Q 875 4013 500 3803 
L 500 4441 
Q 881 4594 1212 4672 
Q 1544 4750 1819 4750 
Q 2544 4750 2975 4387 
Q 3406 4025 3406 3419 
Q 3406 3131 3298 2873 
Q 3191 2616 2906 2266 
Q 2828 2175 2409 1742 
Q 1991 1309 1228 531 
z
" transform="scale(0.015625)"/>
         </defs>
         <use xlink:href="#DejaVuSans-30"/>
         <use xlink:href="#DejaVuSans-2e" x="63.623047"/>
         <use xlink:href="#DejaVuSans-32" x="95.410156"/>
        </g>
       </g>
      </g>
      <g id="ytick_3">
       <g id="line2d_4">
        <g>
         <use xlink:href="#m1252779148" x="64.778125" y="45.170493" style="stroke: #000000; stroke-width: 0.8"/>
        </g>
       </g>
       <g id="text_4">
        <!-- 1.2 -->
        <g transform="translate(41.875 48.969712) scale(0.1 -0.1)">
         <defs>
          <path id="DejaVuSans-31" d="M 794 531 
L 1825 531 
L 1825 4091 
L 703 3866 
L 703 4441 
L 1819 4666 
L 2450 4666 
L 2450 531 
L 3481 531 
L 3481 0 
L 794 0 
L 794 531 
z
" transform="scale(0.015625)"/>
         </defs>
         <use xlink:href="#DejaVuSans-31"/>
         <use xlink:href="#DejaVuSans-2e" x="63.623047"/>
         <use xlink:href="#DejaVuSans-32" x="95.410156"/>
        </g>
       </g>
      </g>
      <g id="text_5">
       <!-- $t$ ($2N_e$) -->
       <g transform="translate(35.795312 107.575229) rotate(-90) scale(0.1 -0.1)">
        <defs>
         <path id="DejaVuSans-Oblique-74" d="M 2706 3500 
L 2619 3053 
L 1472 3053 
L 1100 1153 
Q 1081 1047 1072 975 
Q 1063 903 1063 863 
Q 1063 663 1183 572 
Q 1303 481 1569 481 
L 2150 481 
L 2053 0 
L 1503 0 
Q 991 0 739 200 
Q 488 400 488 806 
Q 488 878 497 964 
Q 506 1050 525 1153 
L 897 3053 
L 409 3053 
L 500 3500 
L 978 3500 
L 1172 4494 
L 1747 4494 
L 1556 3500 
L 2706 3500 
z
" transform="scale(0.015625)"/>
         <path id="DejaVuSans-20" transform="scale(0.015625)"/>
         <path id="DejaVuSans-28" d="M 1984 4856 
Q 1566 4138 1362 3434 
Q 1159 2731 1159 2009 
Q 1159 1288 1364 580 
Q 1569 -128 1984 -844 
L 1484 -844 
Q 1016 -109 783 600 
Q 550 1309 550 2009 
Q 550 2706 781 3412 
Q 1013 4119 1484 4856 
L 1984 4856 
z
" transform="scale(0.015625)"/>
         <path id="DejaVuSans-Oblique-4e" d="M 1081 4666 
L 1931 4666 
L 3219 666 
L 4000 4666 
L 4616 4666 
L 3706 0 
L 2853 0 
L 1569 4025 
L 788 0 
L 172 0 
L 1081 4666 
z
" transform="scale(0.015625)"/>
         <path id="DejaVuSans-Oblique-65" d="M 3078 2063 
Q 3088 2113 3092 2166 
Q 3097 2219 3097 2272 
Q 3097 2653 2873 2875 
Q 2650 3097 2266 3097 
Q 1838 3097 1509 2826 
Q 1181 2556 1013 2059 
L 3078 2063 
z
M 3578 1613 
L 903 1613 
Q 884 1494 878 1425 
Q 872 1356 872 1306 
Q 872 872 1139 634 
Q 1406 397 1894 397 
Q 2269 397 2603 481 
Q 2938 566 3225 728 
L 3116 159 
Q 2806 34 2476 -28 
Q 2147 -91 1806 -91 
Q 1078 -91 686 257 
Q 294 606 294 1247 
Q 294 1794 489 2264 
Q 684 2734 1063 3103 
Q 1306 3334 1642 3459 
Q 1978 3584 2356 3584 
Q 2950 3584 3301 3228 
Q 3653 2872 3653 2272 
Q 3653 2128 3634 1964 
Q 3616 1800 3578 1613 
z
" transform="scale(0.015625)"/>
         <path id="DejaVuSans-29" d="M 513 4856 
L 1013 4856 
Q 1481 4119 1714 3412 
Q 1947 2706 1947 2009 
Q 1947 1309 1714 600 
Q 1481 -109 1013 -844 
L 513 -844 
Q 928 -128 1133 580 
Q 1338 1288 1338 2009 
Q 1338 2731 1133 3434 
Q 928 4138 513 4856 
z
" transform="scale(0.015625)"/>
        </defs>
        <use xlink:href="#DejaVuSans-Oblique-74" transform="translate(0 0.125)"/>
        <use xlink:href="#DejaVuSans-20" transform="translate(39.208984 0.125)"/>
        <use xlink:href="#DejaVuSans-28" transform="translate(70.996094 0.125)"/>
        <use xlink:href="#DejaVuSans-32" transform="translate(110.009766 0.125)"/>
        <use xlink:href="#DejaVuSans-Oblique-4e" transform="translate(173.632812 0.125)"/>
        <use xlink:href="#DejaVuSans-Oblique-65" transform="translate(248.4375 -16.28125) scale(0.7)"/>
        <use xlink:href="#DejaVuSans-29" transform="translate(294.238281 0.125)"/>
       </g>
      </g>
     </g>
     <g id="patch_5">
      <path d="M 163.340373 45.170493 
L 164.340373 45.201929 
L 165.340373 45.23887 
L 166.340373 45.336616 
L 167.340373 45.369138 
L 168.340373 45.442762 
L 169.340373 45.481328 
L 170.340373 45.516741 
L 171.340373 45.574381 
L 172.340373 45.644767 
L 173.340373 45.696732 
L 174.340373 45.755821 
L 175.340373 45.844142 
L 176.340373 45.890287 
L 177.340373 45.932698 
L 178.340373 45.96319 
L 179.340373 45.989235 
L 180.340373 46.010435 
L 181.340373 46.064736 
L 182.340373 46.092674 
L 183.340373 46.122398 
L 184.340373 46.147793 
L 185.340373 46.158993 
L 186.340373 46.169117 
L 187.340373 46.168913 
L 188.340373 46.159403 
L 189.340373 46.147749 
L 190.340373 46.11672 
L 191.340373 46.105552 
L 192.340373 46.075435 
L 193.340373 46.015658 
L 194.340373 45.978466 
L 195.340373 45.93937 
L 196.340373 45.89693 
L 197.340373 45.864165 
L 198.340373 45.796739 
L 199.340373 45.757613 
L 200.340373 45.714938 
L 201.340373 45.644358 
L 202.340373 45.607967 
L 203.340373 45.549564 
L 204.340373 45.438611 
L 205.340373 45.367953 
L 206.340373 45.255013 
L 207.340373 45.20924 
L 208.340373 45.147957 
L 209.340373 45.099457 
L 210.340373 45.018635 
L 211.340373 44.900116 
L 212.340373 44.829905 
L 213.340373 44.746643 
L 214.340373 44.713501 
L 215.340373 44.662264 
L 216.340373 44.593865 
L 217.340373 44.52765 
L 218.340373 44.450733 
L 219.340373 44.423417 
L 220.340373 44.39694 
L 221.340373 44.374289 
L 222.340373 44.354758 
L 223.915387 44.328364 
" clip-path="url(#p7d25cfaa99)" style="fill: none; stroke: #ffffff; stroke-width: 3; stroke-linecap: round"/>
      <path d="M 163.340373 45.170493 
L 164.340373 45.201929 
L 165.340373 45.23887 
L 166.340373 45.336616 
L 167.340373 45.369138 
L 168.340373 45.442762 
L 169.340373 45.481328 
L 170.340373 45.516741 
L 171.340373 45.574381 
L 172.340373 45.644767 
L 173.340373 45.696732 
L 174.340373 45.755821 
L 175.340373 45.844142 
L 176.340373 45.890287 
L 177.340373 45.932698 
L 178.340373 45.96319 
L 179.340373 45.989235 
L 180.340373 46.010435 
L 181.340373 46.064736 
L 182.340373 46.092674 
L 183.340373 46.122398 
L 184.340373 46.147793 
L 185.340373 46.158993 
L 186.340373 46.169117 
L 187.340373 46.168913 
L 188.340373 46.159403 
L 189.340373 46.147749 
L 190.340373 46.11672 
L 191.340373 46.105552 
L 192.340373 46.075435 
L 193.340373 46.015658 
L 194.340373 45.978466 
L 195.340373 45.93937 
L 196.340373 45.89693 
L 197.340373 45.864165 
L 198.340373 45.796739 
L 199.340373 45.757613 
L 200.340373 45.714938 
L 201.340373 45.644358 
L 202.340373 45.607967 
L 203.340373 45.549564 
L 204.340373 45.438611 
L 205.340373 45.367953 
L 206.340373 45.255013 
L 207.340373 45.20924 
L 208.340373 45.147957 
L 209.340373 45.099457 
L 210.340373 45.018635 
L 211.340373 44.900116 
L 212.340373 44.829905 
L 213.340373 44.746643 
L 214.340373 44.713501 
L 215.340373 44.662264 
L 216.340373 44.593865 
L 217.340373 44.52765 
L 218.340373 44.450733 
L 219.340373 44.423417 
L 220.340373 44.39694 
L 221.340373 44.374289 
L 222.340373 44.354758 
L 223.915387 44.328364 
" clip-path="url(#p7d25cfaa99)" style="fill: none; stroke: #808080; stroke-linecap: round"/>
      <path d="M 219.915387 43.170493 
L 220.795755 43.645824 
L 221.673662 44.126078 
L 222.524376 44.660719 
L 223.82655 45.348166 
L 222.899197 45.374181 
L 221.987523 45.786901 
L 221.077258 46.20244 
L 219.734762 46.809244 
L 220.389661 46.170493 
L 220.441625 45.170493 
L 220.500715 43.170493 
z
" clip-path="url(#p7d25cfaa99)" style="fill: #ffffff; stroke: #ffffff; stroke-width: 3; stroke-linecap: round"/>
      <path d="M 219.915387 43.170493 
L 220.795755 43.645824 
L 221.673662 44.126078 
L 222.524376 44.660719 
L 223.82655 45.348166 
L 222.899197 45.374181 
L 221.987523 45.786901 
L 221.077258 46.20244 
L 219.734762 46.809244 
L 220.389661 46.170493 
L 220.441625 45.170493 
L 220.500715 43.170493 
z
" clip-path="url(#p7d25cfaa99)" style="fill: #ffffff; stroke: #808080; stroke-linecap: round"/>
      <path d="M 163.223712 140.388693 
" clip-path="url(#p7d25cfaa99)" style="fill: none; stroke-dasharray: 3.7,1.6; stroke-dashoffset: 0; stroke: #808080"/>
      <path d="M 162.223712 140.388693 
L 164.223712 141.388693 
L 164.223712 139.388693 
z
" clip-path="url(#p7d25cfaa99)" style="fill: #808080; stroke: #808080; stroke-linejoin: miter"/>
      <g id="patch_6">
       <path d="M 64.778125 159.432332 
L 64.778125 22.318125 
" style="fill: none; stroke: #000000; stroke-width: 0.8; stroke-linejoin: miter; stroke-linecap: square"/>
      </g>
      <g id="text_6">
       <!-- A -->
       <g transform="translate(64.778125 16.318125) scale(0.12 -0.12)">
        <defs>
         <path id="DejaVuSans-41" d="M 2188 4044 
L 1331 1722 
L 3047 1722 
L 2188 4044 
z
M 1831 4666 
L 2547 4666 
L 4325 0 
L 3669 0 
L 3244 1197 
L 1141 1197 
L 716 0 
L 50 0 
L 1831 4666 
z
" transform="scale(0.015625)"/>
        </defs>
        <use xlink:href="#DejaVuSans-41"/>
       </g>
      </g>
     </g>
     <g id="axes_2">
      <g id="patch_7">
       <path d="M 316.778125 159.432332 
L 505.19952 159.432332 
L 505.19952 22.318125 
L 316.778125 22.318125 
z
" style="fill: #ffffff"/>
      </g>
      <g id="patch_8">
       <path d="M 396.504448 22.318125 
L 396.504448 45.170493 
L 325.342734 45.170493 
L 332.57167 49.017693 
L 339.190449 52.864893 
L 345.250573 56.712093 
L 350.799193 60.559293 
L 355.879483 64.406493 
L 360.530973 68.253693 
L 364.789854 72.100893 
L 368.689266 75.948093 
L 372.259549 79.795293 
L 375.528484 83.642493 
L 378.521505 87.489693 
L 381.2619 91.336893 
L 383.770993 95.184093 
L 386.611674 99.993093 
L 389.155878 104.802093 
L 391.434547 109.611093 
L 393.475395 114.420093 
L 395.303243 119.229093 
L 397.246635 124.999893 
L 398.949247 130.770693 
L 400.440911 136.541493 
L 401.331205 140.388693 
L 396.504448 140.388693 
L 396.504448 159.432332 
M 425.473197 22.318125 
L 425.473197 45.170493 
L 496.634911 45.170493 
L 489.405975 49.017693 
L 482.787196 52.864893 
L 476.727072 56.712093 
L 471.178452 60.559293 
L 466.098162 64.406493 
L 461.446672 68.253693 
L 457.187791 72.100893 
L 453.288379 75.948093 
L 449.718096 79.795293 
L 446.449161 83.642493 
L 443.45614 87.489693 
L 440.715745 91.336893 
L 438.206652 95.184093 
L 435.365971 99.993093 
L 432.821767 104.802093 
L 430.543098 109.611093 
L 428.50225 114.420093 
L 426.674402 119.229093 
L 424.73101 124.999893 
L 423.028398 130.770693 
L 421.536734 136.541493 
L 420.64644 140.388693 
L 425.473197 140.388693 
L 425.473197 159.432332 
L 425.473197 159.432332 
" clip-path="url(#p69bf081ee3)" style="fill: none; stroke: #ffffff; stroke-width: 3; stroke-linejoin: miter"/>
       <path d="M 396.504448 22.318125 
L 396.504448 45.170493 
L 325.342734 45.170493 
L 332.57167 49.017693 
L 339.190449 52.864893 
L 345.250573 56.712093 
L 350.799193 60.559293 
L 355.879483 64.406493 
L 360.530973 68.253693 
L 364.789854 72.100893 
L 368.689266 75.948093 
L 372.259549 79.795293 
L 375.528484 83.642493 
L 378.521505 87.489693 
L 381.2619 91.336893 
L 383.770993 95.184093 
L 386.611674 99.993093 
L 389.155878 104.802093 
L 391.434547 109.611093 
L 393.475395 114.420093 
L 395.303243 119.229093 
L 397.246635 124.999893 
L 398.949247 130.770693 
L 400.440911 136.541493 
L 401.331205 140.388693 
L 396.504448 140.388693 
L 396.504448 159.432332 
M 425.473197 22.318125 
L 425.473197 45.170493 
L 496.634911 45.170493 
L 489.405975 49.017693 
L 482.787196 52.864893 
L 476.727072 56.712093 
L 471.178452 60.559293 
L 466.098162 64.406493 
L 461.446672 68.253693 
L 457.187791 72.100893 
L 453.288379 75.948093 
L 449.718096 79.795293 
L 446.449161 83.642493 
L 443.45614 87.489693 
L 440.715745 91.336893 
L 438.206652 95.184093 
L 435.365971 99.993093 
L 432.821767 104.802093 
L 430.543098 109.611093 
L 428.50225 114.420093 
L 426.674402 119.229093 
L 424.73101 124.999893 
L 423.028398 130.770693 
L 421.536734 136.541493 
L 420.64644 140.388693 
L 425.473197 140.388693 
L 425.473197 159.432332 
L 425.473197 159.432332 
" clip-path="url(#p69bf081ee3)" style="fill: none; stroke: #0000ff; stroke-linejoin: miter"/>
       <g id="PolyCollection_3">
        <path d="M 425.473197 22.318125 
L 396.504448 22.318125 
L 396.504448 45.170493 
L 325.342734 45.170493 
L 327.210161 46.132293 
L 329.036871 47.094093 
L 330.823751 48.055893 
L 332.57167 49.017693 
L 334.281477 49.979493 
L 335.954004 50.941293 
L 337.590063 51.903093 
L 339.190449 52.864893 
L 340.755941 53.826693 
L 342.287299 54.788493 
L 343.785266 55.750293 
L 345.250573 56.712093 
L 346.683929 57.673893 
L 348.086033 58.635693 
L 349.457565 59.597493 
L 350.799193 60.559293 
L 352.111567 61.521093 
L 353.395327 62.482893 
L 354.651095 63.444693 
L 355.879483 64.406493 
L 357.081087 65.368293 
L 358.256491 66.330093 
L 359.406267 67.291893 
L 360.530973 68.253693 
L 361.631155 69.215493 
L 362.70735 70.177293 
L 363.760079 71.139093 
L 364.789854 72.100893 
L 365.797177 73.062693 
L 366.782535 74.024493 
L 367.746409 74.986293 
L 368.689266 75.948093 
L 369.611566 76.909893 
L 370.513755 77.871693 
L 371.396274 78.833493 
L 372.259549 79.795293 
L 373.104002 80.757093 
L 373.930043 81.718893 
L 374.738073 82.680693 
L 375.528484 83.642493 
L 376.301661 84.604293 
L 377.05798 85.566093 
L 377.797808 86.527893 
L 378.521505 87.489693 
L 379.229422 88.451493 
L 379.921904 89.413293 
L 380.599287 90.375093 
L 381.2619 91.336893 
L 381.910066 92.298693 
L 382.544099 93.260493 
L 383.164308 94.222293 
L 383.770993 95.184093 
L 384.364451 96.145893 
L 384.944969 97.107693 
L 385.512829 98.069493 
L 386.068307 99.031293 
L 386.611674 99.993093 
L 387.143193 100.954893 
L 387.663123 101.916693 
L 388.171717 102.878493 
L 388.669221 103.840293 
L 389.155878 104.802093 
L 389.631923 105.763893 
L 390.097589 106.725693 
L 390.553101 107.687493 
L 390.998682 108.649293 
L 391.434547 109.611093 
L 391.860908 110.572893 
L 392.277973 111.534693 
L 392.685944 112.496493 
L 393.08502 113.458293 
L 393.475395 114.420093 
L 393.857257 115.381893 
L 394.230794 116.343693 
L 394.596186 117.305493 
L 394.953611 118.267293 
L 395.303243 119.229093 
L 395.645251 120.190893 
L 395.979802 121.152693 
L 396.307059 122.114493 
L 396.62718 123.076293 
L 396.940321 124.038093 
L 397.246635 124.999893 
L 397.546269 125.961693 
L 397.839371 126.923493 
L 398.126081 127.885293 
L 398.406541 128.847093 
L 398.680885 129.808893 
L 398.949247 130.770693 
L 399.211758 131.732493 
L 399.468545 132.694293 
L 399.719733 133.656093 
L 399.965444 134.617893 
L 400.205798 135.579693 
L 400.440911 136.541493 
L 400.670898 137.503293 
L 400.89587 138.465093 
L 401.115936 139.426893 
L 401.331205 140.388693 
L 396.504448 140.388693 
L 396.504448 159.432332 
L 425.473197 159.432332 
L 425.473197 159.432332 
L 425.473197 140.388693 
L 420.64644 140.388693 
L 420.861709 139.426893 
L 421.081775 138.465093 
L 421.306747 137.503293 
L 421.536734 136.541493 
L 421.771847 135.579693 
L 422.012201 134.617893 
L 422.257912 133.656093 
L 422.5091 132.694293 
L 422.765887 131.732493 
L 423.028398 130.770693 
L 423.29676 129.808893 
L 423.571104 128.847093 
L 423.851564 127.885293 
L 424.138274 126.923493 
L 424.431376 125.961693 
L 424.73101 124.999893 
L 425.037324 124.038093 
L 425.350465 123.076293 
L 425.670586 122.114493 
L 425.997843 121.152693 
L 426.332394 120.190893 
L 426.674402 119.229093 
L 427.024034 118.267293 
L 427.381459 117.305493 
L 427.746851 116.343693 
L 428.120388 115.381893 
L 428.50225 114.420093 
L 428.892625 113.458293 
L 429.291701 112.496493 
L 429.699672 111.534693 
L 430.116737 110.572893 
L 430.543098 109.611093 
L 430.978963 108.649293 
L 431.424544 107.687493 
L 431.880056 106.725693 
L 432.345722 105.763893 
L 432.821767 104.802093 
L 433.308424 103.840293 
L 433.805928 102.878493 
L 434.314522 101.916693 
L 434.834452 100.954893 
L 435.365971 99.993093 
L 435.909338 99.031293 
L 436.464816 98.069493 
L 437.032676 97.107693 
L 437.613194 96.145893 
L 438.206652 95.184093 
L 438.813337 94.222293 
L 439.433546 93.260493 
L 440.067579 92.298693 
L 440.715745 91.336893 
L 441.378358 90.375093 
L 442.055741 89.413293 
L 442.748223 88.451493 
L 443.45614 87.489693 
L 444.179837 86.527893 
L 444.919665 85.566093 
L 445.675984 84.604293 
L 446.449161 83.642493 
L 447.239572 82.680693 
L 448.047602 81.718893 
L 448.873643 80.757093 
L 449.718096 79.795293 
L 450.581371 78.833493 
L 451.46389 77.871693 
L 452.366079 76.909893 
L 453.288379 75.948093 
L 454.231236 74.986293 
L 455.19511 74.024493 
L 456.180468 73.062693 
L 457.187791 72.100893 
L 458.217566 71.139093 
L 459.270295 70.177293 
L 460.34649 69.215493 
L 461.446672 68.253693 
L 462.571378 67.291893 
L 463.721154 66.330093 
L 464.896558 65.368293 
L 466.098162 64.406493 
L 467.32655 63.444693 
L 468.582318 62.482893 
L 469.866078 61.521093 
L 471.178452 60.559293 
L 472.52008 59.597493 
L 473.891612 58.635693 
L 475.293716 57.673893 
L 476.727072 56.712093 
L 478.192379 55.750293 
L 479.690346 54.788493 
L 481.221704 53.826693 
L 482.787196 52.864893 
L 484.387582 51.903093 
L 486.023641 50.941293 
L 487.696168 49.979493 
L 489.405975 49.017693 
L 491.153894 48.055893 
L 492.940774 47.094093 
L 494.767484 46.132293 
L 496.634911 45.170493 
L 425.473197 45.170493 
L 425.473197 22.318125 
z
" clip-path="url(#p69bf081ee3)" style="fill: #0000ff; fill-opacity: 0.5"/>
       </g>
       <g id="matplotlib.axis_3">
        <g id="xtick_2">
         <g id="line2d_5"/>
         <g id="text_7">
          <!-- X -->
          <g transform="translate(407.563822 170.53077) scale(0.1 -0.1)">
           <use xlink:href="#DejaVuSans-58"/>
          </g>
         </g>
        </g>
       </g>
       <g id="matplotlib.axis_4">
        <g id="ytick_4">
         <g id="line2d_6">
          <g>
           <use xlink:href="#m1252779148" x="316.778125" y="159.432332" style="stroke: #000000; stroke-width: 0.8"/>
          </g>
         </g>
         <g id="text_8">
          <!-- 0 -->
          <g transform="translate(303.415625 163.231551) scale(0.1 -0.1)">
           <use xlink:href="#DejaVuSans-30"/>
          </g>
         </g>
        </g>
        <g id="ytick_5">
         <g id="line2d_7">
          <g>
           <use xlink:href="#m1252779148" x="316.778125" y="140.388693" style="stroke: #000000; stroke-width: 0.8"/>
          </g>
         </g>
         <g id="text_9">
          <!-- 0.2 -->
          <g transform="translate(293.875 144.187911) scale(0.1 -0.1)">
           <use xlink:href="#DejaVuSans-30"/>
           <use xlink:href="#DejaVuSans-2e" x="63.623047"/>
           <use xlink:href="#DejaVuSans-32" x="95.410156"/>
          </g>
         </g>
        </g>
        <g id="ytick_6">
         <g id="line2d_8">
          <g>
           <use xlink:href="#m1252779148" x="316.778125" y="45.170493" style="stroke: #000000; stroke-width: 0.8"/>
          </g>
         </g>
         <g id="text_10">
          <!-- 1.2 -->
          <g transform="translate(293.875 48.969712) scale(0.1 -0.1)">
           <use xlink:href="#DejaVuSans-31"/>
           <use xlink:href="#DejaVuSans-2e" x="63.623047"/>
           <use xlink:href="#DejaVuSans-32" x="95.410156"/>
          </g>
         </g>
        </g>
        <g id="text_11">
         <!-- $t$ ($2N_e$) -->
         <g transform="translate(287.795312 107.575229) rotate(-90) scale(0.1 -0.1)">
          <use xlink:href="#DejaVuSans-Oblique-74" transform="translate(0 0.125)"/>
          <use xlink:href="#DejaVuSans-20" transform="translate(39.208984 0.125)"/>
          <use xlink:href="#DejaVuSans-28" transform="translate(70.996094 0.125)"/>
          <use xlink:href="#DejaVuSans-32" transform="translate(110.009766 0.125)"/>
          <use xlink:href="#DejaVuSans-Oblique-4e" transform="translate(173.632812 0.125)"/>
          <use xlink:href="#DejaVuSans-Oblique-65" transform="translate(248.4375 -16.28125) scale(0.7)"/>
          <use xlink:href="#DejaVuSans-29" transform="translate(294.238281 0.125)"/>
         </g>
        </g>
       </g>
       <g id="patch_9">
        <path d="M 316.778125 159.432332 
L 316.778125 22.318125 
" style="fill: none; stroke: #000000; stroke-width: 0.8; stroke-linejoin: miter; stroke-linecap: square"/>
       </g>
       <g id="text_12">
        <!-- B -->
        <g transform="translate(316.778125 16.318125) scale(0.12 -0.12)">
         <defs>
          <path id="DejaVuSans-42" d="M 1259 2228 
L 1259 519 
L 2272 519 
Q 2781 519 3026 730 
Q 3272 941 3272 1375 
Q 3272 1813 3026 2020 
Q 2781 2228 2272 2228 
L 1259 2228 
z
M 1259 4147 
L 1259 2741 
L 2194 2741 
Q 2656 2741 2882 2914 
Q 3109 3088 3109 3444 
Q 3109 3797 2882 3972 
Q 2656 4147 2194 4147 
L 1259 4147 
z
M 628 4666 
L 2241 4666 
Q 2963 4666 3353 4366 
Q 3744 4066 3744 3513 
Q 3744 3084 3544 2831 
Q 3344 2578 2956 2516 
Q 3422 2416 3680 2098 
Q 3938 1781 3938 1306 
Q 3938 681 3513 340 
Q 3088 0 2303 0 
L 628 0 
L 628 4666 
z
" transform="scale(0.015625)"/>
         </defs>
         <use xlink:href="#DejaVuSans-42"/>
        </g>
       </g>
      </g>
      <g id="axes_3">
       <g id="patch_10">
        <path d="M 64.778125 330.84327 
L 253.19952 330.84327 
L 253.19952 193.729062 
L 64.778125 193.729062 
z
" style="fill: #ffffff"/>
       </g>
       <g id="matplotlib.axis_5">
        <g id="xtick_3">
         <g id="line2d_9">
          <defs>
           <path id="m82be86e1e0" d="M 0 0 
L 0 3.5 
" style="stroke: #000000; stroke-width: 0.8"/>
          </defs>
          <g>
           <use xlink:href="#m82be86e1e0" x="64.778125" y="330.84327" style="stroke: #000000; stroke-width: 0.8"/>
          </g>
         </g>
         <g id="text_13">
          <!-- 0 -->
          <g transform="translate(61.596875 345.441707) scale(0.1 -0.1)">
           <use xlink:href="#DejaVuSans-30"/>
          </g>
         </g>
        </g>
        <g id="xtick_4">
         <g id="line2d_10">
          <g>
           <use xlink:href="#m82be86e1e0" x="87.209243" y="330.84327" style="stroke: #000000; stroke-width: 0.8"/>
          </g>
         </g>
         <g id="text_14">
          <!-- 0.2 -->
          <g transform="translate(79.257681 345.441707) scale(0.1 -0.1)">
           <use xlink:href="#DejaVuSans-30"/>
           <use xlink:href="#DejaVuSans-2e" x="63.623047"/>
           <use xlink:href="#DejaVuSans-32" x="95.410156"/>
          </g>
         </g>
        </g>
        <g id="xtick_5">
         <g id="line2d_11">
          <g>
           <use xlink:href="#m82be86e1e0" x="199.364836" y="330.84327" style="stroke: #000000; stroke-width: 0.8"/>
          </g>
         </g>
         <g id="text_15">
          <!-- 1.2 -->
          <g transform="translate(191.413273 345.441707) scale(0.1 -0.1)">
           <use xlink:href="#DejaVuSans-31"/>
           <use xlink:href="#DejaVuSans-2e" x="63.623047"/>
           <use xlink:href="#DejaVuSans-32" x="95.410156"/>
          </g>
         </g>
        </g>
        <g id="text_16">
         <!-- $t$ ($2N_e$) -->
         <g transform="translate(142.288822 359.119832) scale(0.1 -0.1)">
          <use xlink:href="#DejaVuSans-Oblique-74" transform="translate(0 0.125)"/>
          <use xlink:href="#DejaVuSans-20" transform="translate(39.208984 0.125)"/>
          <use xlink:href="#DejaVuSans-28" transform="translate(70.996094 0.125)"/>
          <use xlink:href="#DejaVuSans-32" transform="translate(110.009766 0.125)"/>
          <use xlink:href="#DejaVuSans-Oblique-4e" transform="translate(173.632812 0.125)"/>
          <use xlink:href="#DejaVuSans-Oblique-65" transform="translate(248.4375 -16.28125) scale(0.7)"/>
          <use xlink:href="#DejaVuSans-29" transform="translate(294.238281 0.125)"/>
         </g>
        </g>
       </g>
       <g id="matplotlib.axis_6">
        <g id="ytick_7">
         <g id="line2d_12">
          <g>
           <use xlink:href="#m1252779148" x="64.778125" y="302.897791" style="stroke: #000000; stroke-width: 0.8"/>
          </g>
         </g>
         <g id="text_17">
          <!-- $2 \cdot 10^{-5}$ -->
          <g transform="translate(20.878125 306.69701) scale(0.1 -0.1)">
           <defs>
            <path id="DejaVuSans-22c5" d="M 684 2619 
L 1344 2619 
L 1344 1825 
L 684 1825 
L 684 2619 
z
" transform="scale(0.015625)"/>
            <path id="DejaVuSans-2212" d="M 678 2272 
L 4684 2272 
L 4684 1741 
L 678 1741 
L 678 2272 
z
" transform="scale(0.015625)"/>
            <path id="DejaVuSans-35" d="M 691 4666 
L 3169 4666 
L 3169 4134 
L 1269 4134 
L 1269 2991 
Q 1406 3038 1543 3061 
Q 1681 3084 1819 3084 
Q 2600 3084 3056 2656 
Q 3513 2228 3513 1497 
Q 3513 744 3044 326 
Q 2575 -91 1722 -91 
Q 1428 -91 1123 -41 
Q 819 9 494 109 
L 494 744 
Q 775 591 1075 516 
Q 1375 441 1709 441 
Q 2250 441 2565 725 
Q 2881 1009 2881 1497 
Q 2881 1984 2565 2268 
Q 2250 2553 1709 2553 
Q 1456 2553 1204 2497 
Q 953 2441 691 2322 
L 691 4666 
z
" transform="scale(0.015625)"/>
           </defs>
           <use xlink:href="#DejaVuSans-32" transform="translate(0 0.684375)"/>
           <use xlink:href="#DejaVuSans-22c5" transform="translate(83.105469 0.684375)"/>
           <use xlink:href="#DejaVuSans-31" transform="translate(134.375 0.684375)"/>
           <use xlink:href="#DejaVuSans-30" transform="translate(197.998047 0.684375)"/>
           <use xlink:href="#DejaVuSans-2212" transform="translate(262.578125 38.965625) scale(0.7)"/>
           <use xlink:href="#DejaVuSans-35" transform="translate(321.230469 38.965625) scale(0.7)"/>
          </g>
         </g>
        </g>
        <g id="ytick_8">
         <g id="line2d_13">
          <g>
           <use xlink:href="#m1252779148" x="64.778125" y="265.085732" style="stroke: #000000; stroke-width: 0.8"/>
          </g>
         </g>
         <g id="text_18">
          <!-- $4 \cdot 10^{-5}$ -->
          <g transform="translate(20.878125 268.884951) scale(0.1 -0.1)">
           <defs>
            <path id="DejaVuSans-34" d="M 2419 4116 
L 825 1625 
L 2419 1625 
L 2419 4116 
z
M 2253 4666 
L 3047 4666 
L 3047 1625 
L 3713 1625 
L 3713 1100 
L 3047 1100 
L 3047 0 
L 2419 0 
L 2419 1100 
L 313 1100 
L 313 1709 
L 2253 4666 
z
" transform="scale(0.015625)"/>
           </defs>
           <use xlink:href="#DejaVuSans-34" transform="translate(0 0.684375)"/>
           <use xlink:href="#DejaVuSans-22c5" transform="translate(83.105469 0.684375)"/>
           <use xlink:href="#DejaVuSans-31" transform="translate(134.375 0.684375)"/>
           <use xlink:href="#DejaVuSans-30" transform="translate(197.998047 0.684375)"/>
           <use xlink:href="#DejaVuSans-2212" transform="translate(262.578125 38.965625) scale(0.7)"/>
           <use xlink:href="#DejaVuSans-35" transform="translate(321.230469 38.965625) scale(0.7)"/>
          </g>
         </g>
        </g>
        <g id="ytick_9">
         <g id="line2d_14">
          <g>
           <use xlink:href="#m1252779148" x="64.778125" y="227.273672" style="stroke: #000000; stroke-width: 0.8"/>
          </g>
         </g>
         <g id="text_19">
          <!-- $6 \cdot 10^{-5}$ -->
          <g transform="translate(20.878125 231.072891) scale(0.1 -0.1)">
           <defs>
            <path id="DejaVuSans-36" d="M 2113 2584 
Q 1688 2584 1439 2293 
Q 1191 2003 1191 1497 
Q 1191 994 1439 701 
Q 1688 409 2113 409 
Q 2538 409 2786 701 
Q 3034 994 3034 1497 
Q 3034 2003 2786 2293 
Q 2538 2584 2113 2584 
z
M 3366 4563 
L 3366 3988 
Q 3128 4100 2886 4159 
Q 2644 4219 2406 4219 
Q 1781 4219 1451 3797 
Q 1122 3375 1075 2522 
Q 1259 2794 1537 2939 
Q 1816 3084 2150 3084 
Q 2853 3084 3261 2657 
Q 3669 2231 3669 1497 
Q 3669 778 3244 343 
Q 2819 -91 2113 -91 
Q 1303 -91 875 529 
Q 447 1150 447 2328 
Q 447 3434 972 4092 
Q 1497 4750 2381 4750 
Q 2619 4750 2861 4703 
Q 3103 4656 3366 4563 
z
" transform="scale(0.015625)"/>
           </defs>
           <use xlink:href="#DejaVuSans-36" transform="translate(0 0.684375)"/>
           <use xlink:href="#DejaVuSans-22c5" transform="translate(83.105469 0.684375)"/>
           <use xlink:href="#DejaVuSans-31" transform="translate(134.375 0.684375)"/>
           <use xlink:href="#DejaVuSans-30" transform="translate(197.998047 0.684375)"/>
           <use xlink:href="#DejaVuSans-2212" transform="translate(262.578125 38.965625) scale(0.7)"/>
           <use xlink:href="#DejaVuSans-35" transform="translate(321.230469 38.965625) scale(0.7)"/>
          </g>
         </g>
        </g>
        <g id="text_20">
         <!-- coalescent rate -->
         <g transform="translate(14.798438 300.929135) rotate(-90) scale(0.1 -0.1)">
          <defs>
           <path id="DejaVuSans-63" d="M 3122 3366 
L 3122 2828 
Q 2878 2963 2633 3030 
Q 2388 3097 2138 3097 
Q 1578 3097 1268 2742 
Q 959 2388 959 1747 
Q 959 1106 1268 751 
Q 1578 397 2138 397 
Q 2388 397 2633 464 
Q 2878 531 3122 666 
L 3122 134 
Q 2881 22 2623 -34 
Q 2366 -91 2075 -91 
Q 1284 -91 818 406 
Q 353 903 353 1747 
Q 353 2603 823 3093 
Q 1294 3584 2113 3584 
Q 2378 3584 2631 3529 
Q 2884 3475 3122 3366 
z
" transform="scale(0.015625)"/>
           <path id="DejaVuSans-6f" d="M 1959 3097 
Q 1497 3097 1228 2736 
Q 959 2375 959 1747 
Q 959 1119 1226 758 
Q 1494 397 1959 397 
Q 2419 397 2687 759 
Q 2956 1122 2956 1747 
Q 2956 2369 2687 2733 
Q 2419 3097 1959 3097 
z
M 1959 3584 
Q 2709 3584 3137 3096 
Q 3566 2609 3566 1747 
Q 3566 888 3137 398 
Q 2709 -91 1959 -91 
Q 1206 -91 779 398 
Q 353 888 353 1747 
Q 353 2609 779 3096 
Q 1206 3584 1959 3584 
z
" transform="scale(0.015625)"/>
           <path id="DejaVuSans-61" d="M 2194 1759 
Q 1497 1759 1228 1600 
Q 959 1441 959 1056 
Q 959 750 1161 570 
Q 1363 391 1709 391 
Q 2188 391 2477 730 
Q 2766 1069 2766 1631 
L 2766 1759 
L 2194 1759 
z
M 3341 1997 
L 3341 0 
L 2766 0 
L 2766 531 
Q 2569 213 2275 61 
Q 1981 -91 1556 -91 
Q 1019 -91 701 211 
Q 384 513 384 1019 
Q 384 1609 779 1909 
Q 1175 2209 1959 2209 
L 2766 2209 
L 2766 2266 
Q 2766 2663 2505 2880 
Q 2244 3097 1772 3097 
Q 1472 3097 1187 3025 
Q 903 2953 641 2809 
L 641 3341 
Q 956 3463 1253 3523 
Q 1550 3584 1831 3584 
Q 2591 3584 2966 3190 
Q 3341 2797 3341 1997 
z
" transform="scale(0.015625)"/>
           <path id="DejaVuSans-6c" d="M 603 4863 
L 1178 4863 
L 1178 0 
L 603 0 
L 603 4863 
z
" transform="scale(0.015625)"/>
           <path id="DejaVuSans-65" d="M 3597 1894 
L 3597 1613 
L 953 1613 
Q 991 1019 1311 708 
Q 1631 397 2203 397 
Q 2534 397 2845 478 
Q 3156 559 3463 722 
L 3463 178 
Q 3153 47 2828 -22 
Q 2503 -91 2169 -91 
Q 1331 -91 842 396 
Q 353 884 353 1716 
Q 353 2575 817 3079 
Q 1281 3584 2069 3584 
Q 2775 3584 3186 3129 
Q 3597 2675 3597 1894 
z
M 3022 2063 
Q 3016 2534 2758 2815 
Q 2500 3097 2075 3097 
Q 1594 3097 1305 2825 
Q 1016 2553 972 2059 
L 3022 2063 
z
" transform="scale(0.015625)"/>
           <path id="DejaVuSans-73" d="M 2834 3397 
L 2834 2853 
Q 2591 2978 2328 3040 
Q 2066 3103 1784 3103 
Q 1356 3103 1142 2972 
Q 928 2841 928 2578 
Q 928 2378 1081 2264 
Q 1234 2150 1697 2047 
L 1894 2003 
Q 2506 1872 2764 1633 
Q 3022 1394 3022 966 
Q 3022 478 2636 193 
Q 2250 -91 1575 -91 
Q 1294 -91 989 -36 
Q 684 19 347 128 
L 347 722 
Q 666 556 975 473 
Q 1284 391 1588 391 
Q 1994 391 2212 530 
Q 2431 669 2431 922 
Q 2431 1156 2273 1281 
Q 2116 1406 1581 1522 
L 1381 1569 
Q 847 1681 609 1914 
Q 372 2147 372 2553 
Q 372 3047 722 3315 
Q 1072 3584 1716 3584 
Q 2034 3584 2315 3537 
Q 2597 3491 2834 3397 
z
" transform="scale(0.015625)"/>
           <path id="DejaVuSans-6e" d="M 3513 2113 
L 3513 0 
L 2938 0 
L 2938 2094 
Q 2938 2591 2744 2837 
Q 2550 3084 2163 3084 
Q 1697 3084 1428 2787 
Q 1159 2491 1159 1978 
L 1159 0 
L 581 0 
L 581 3500 
L 1159 3500 
L 1159 2956 
Q 1366 3272 1645 3428 
Q 1925 3584 2291 3584 
Q 2894 3584 3203 3211 
Q 3513 2838 3513 2113 
z
" transform="scale(0.015625)"/>
           <path id="DejaVuSans-74" d="M 1172 4494 
L 1172 3500 
L 2356 3500 
L 2356 3053 
L 1172 3053 
L 1172 1153 
Q 1172 725 1289 603 
Q 1406 481 1766 481 
L 2356 481 
L 2356 0 
L 1766 0 
Q 1100 0 847 248 
Q 594 497 594 1153 
L 594 3053 
L 172 3053 
L 172 3500 
L 594 3500 
L 594 4494 
L 1172 4494 
z
" transform="scale(0.015625)"/>
           <path id="DejaVuSans-72" d="M 2631 2963 
Q 2534 3019 2420 3045 
Q 2306 3072 2169 3072 
Q 1681 3072 1420 2755 
Q 1159 2438 1159 1844 
L 1159 0 
L 581 0 
L 581 3500 
L 1159 3500 
L 1159 2956 
Q 1341 3275 1631 3429 
Q 1922 3584 2338 3584 
Q 2397 3584 2469 3576 
Q 2541 3569 2628 3553 
L 2631 2963 
z
" transform="scale(0.015625)"/>
          </defs>
          <use xlink:href="#DejaVuSans-63"/>
          <use xlink:href="#DejaVuSans-6f" x="54.980469"/>
          <use xlink:href="#DejaVuSans-61" x="116.162109"/>
          <use xlink:href="#DejaVuSans-6c" x="177.441406"/>
          <use xlink:href="#DejaVuSans-65" x="205.224609"/>
          <use xlink:href="#DejaVuSans-73" x="266.748047"/>
          <use xlink:href="#DejaVuSans-63" x="318.847656"/>
          <use xlink:href="#DejaVuSans-65" x="373.828125"/>
          <use xlink:href="#DejaVuSans-6e" x="435.351562"/>
          <use xlink:href="#DejaVuSans-74" x="498.730469"/>
          <use xlink:href="#DejaVuSans-20" x="537.939453"/>
          <use xlink:href="#DejaVuSans-72" x="569.726562"/>
          <use xlink:href="#DejaVuSans-61" x="610.839844"/>
          <use xlink:href="#DejaVuSans-74" x="672.119141"/>
          <use xlink:href="#DejaVuSans-65" x="711.328125"/>
         </g>
        </g>
       </g>
       <g id="line2d_15">
        <path d="M 64.778125 246.179702 
L 86.690735 246.179702 
L 87.502313 199.961526 
L 90.748626 211.163415 
L 93.994939 221.628277 
L 97.241251 231.348569 
L 100.487564 240.330112 
L 103.733876 248.589963 
L 106.980189 256.154196 
L 110.226502 263.05576 
L 113.472814 269.332482 
L 116.719127 275.025298 
L 119.96544 280.176748 
L 123.211752 284.829727 
L 126.458065 289.026503 
L 129.704377 292.807962 
L 132.95069 296.213067 
L 136.197003 299.27849 
L 139.443315 302.038393 
L 142.689628 304.524321 
L 145.935941 306.765184 
L 149.993831 309.261515 
L 154.051722 311.461901 
L 158.109613 313.406708 
L 162.167504 315.131137 
L 167.036973 316.952263 
L 171.906441 318.544788 
L 177.587489 320.163554 
L 184.080114 321.757137 
L 191.384317 323.290998 
L 198.688521 324.610806 
L 199.500099 246.179702 
L 226.282178 246.179702 
L 226.282178 246.179702 
" clip-path="url(#pfb4d6e6038)" style="fill: none; stroke: #000000; stroke-width: 1.5; stroke-linecap: square"/>
       </g>
       <g id="line2d_16">
        <path d="M 64.778125 246.179702 
L 86.690735 246.179702 
L 87.502313 199.961526 
L 90.748626 211.163415 
L 93.994939 221.628277 
L 97.241251 231.348569 
L 100.487564 240.330112 
L 103.733876 248.589963 
L 106.980189 256.154196 
L 110.226502 263.05576 
L 113.472814 269.332482 
L 116.719127 275.025298 
L 119.96544 280.176748 
L 123.211752 284.829727 
L 126.458065 289.026503 
L 129.704377 292.807962 
L 132.95069 296.213067 
L 136.197003 299.27849 
L 139.443315 302.038393 
L 142.689628 304.524321 
L 145.935941 306.765184 
L 149.993831 309.261515 
L 154.051722 311.461901 
L 158.109613 313.406708 
L 162.167504 315.131137 
L 167.036973 316.952263 
L 171.906441 318.544788 
L 177.587489 320.163554 
L 184.080114 321.757137 
L 191.384317 323.290998 
L 198.688521 324.610806 
L 199.500099 246.179702 
L 226.282178 246.179702 
L 226.282178 246.179702 
" clip-path="url(#pfb4d6e6038)" style="fill: none; stroke-dasharray: 5.55,2.4; stroke-dashoffset: 0; stroke: #0000ff; stroke-width: 1.5"/>
       </g>
       <g id="patch_11">
        <path d="M 64.778125 330.84327 
L 64.778125 193.729062 
" style="fill: none; stroke: #000000; stroke-width: 0.8; stroke-linejoin: miter; stroke-linecap: square"/>
       </g>
       <g id="patch_12">
        <path d="M 253.19952 330.84327 
L 253.19952 193.729062 
" style="fill: none; stroke: #000000; stroke-width: 0.8; stroke-linejoin: miter; stroke-linecap: square"/>
       </g>
       <g id="patch_13">
        <path d="M 64.778125 330.84327 
L 253.19952 330.84327 
" style="fill: none; stroke: #000000; stroke-width: 0.8; stroke-linejoin: miter; stroke-linecap: square"/>
       </g>
       <g id="patch_14">
        <path d="M 64.778125 193.729062 
L 253.19952 193.729062 
" style="fill: none; stroke: #000000; stroke-width: 0.8; stroke-linejoin: miter; stroke-linecap: square"/>
       </g>
       <g id="text_21">
        <!-- C -->
        <g transform="translate(64.778125 187.729062) scale(0.12 -0.12)">
         <defs>
          <path id="DejaVuSans-43" d="M 4122 4306 
L 4122 3641 
Q 3803 3938 3442 4084 
Q 3081 4231 2675 4231 
Q 1875 4231 1450 3742 
Q 1025 3253 1025 2328 
Q 1025 1406 1450 917 
Q 1875 428 2675 428 
Q 3081 428 3442 575 
Q 3803 722 4122 1019 
L 4122 359 
Q 3791 134 3420 21 
Q 3050 -91 2638 -91 
Q 1578 -91 968 557 
Q 359 1206 359 2328 
Q 359 3453 968 4101 
Q 1578 4750 2638 4750 
Q 3056 4750 3426 4639 
Q 3797 4528 4122 4306 
z
" transform="scale(0.015625)"/>
         </defs>
         <use xlink:href="#DejaVuSans-43"/>
        </g>
       </g>
       <g id="legend_1">
        <g id="patch_15">
         <path d="M 112.235107 209.467681 
L 248.34152 209.467681 
Q 249.72952 209.467681 249.72952 208.079681 
L 249.72952 198.587062 
Q 249.72952 197.199062 248.34152 197.199062 
L 112.235107 197.199062 
Q 110.847107 197.199062 110.847107 198.587062 
L 110.847107 208.079681 
Q 110.847107 209.467681 112.235107 209.467681 
L 112.235107 209.467681 
z
" style="fill: none; opacity: 0"/>
        </g>
        <g id="line2d_17">
         <path d="M 113.623107 202.819378 
L 120.563107 202.819378 
L 127.503107 202.819378 
" style="fill: none; stroke: #000000; stroke-width: 2; stroke-linecap: square"/>
        </g>
        <g id="text_22">
         <!-- structured -->
         <g transform="translate(133.055107 205.248378) scale(0.0694 -0.0694)">
          <defs>
           <path id="DejaVuSans-75" d="M 544 1381 
L 544 3500 
L 1119 3500 
L 1119 1403 
Q 1119 906 1312 657 
Q 1506 409 1894 409 
Q 2359 409 2629 706 
Q 2900 1003 2900 1516 
L 2900 3500 
L 3475 3500 
L 3475 0 
L 2900 0 
L 2900 538 
Q 2691 219 2414 64 
Q 2138 -91 1772 -91 
Q 1169 -91 856 284 
Q 544 659 544 1381 
z
M 1991 3584 
L 1991 3584 
z
" transform="scale(0.015625)"/>
           <path id="DejaVuSans-64" d="M 2906 2969 
L 2906 4863 
L 3481 4863 
L 3481 0 
L 2906 0 
L 2906 525 
Q 2725 213 2448 61 
Q 2172 -91 1784 -91 
Q 1150 -91 751 415 
Q 353 922 353 1747 
Q 353 2572 751 3078 
Q 1150 3584 1784 3584 
Q 2172 3584 2448 3432 
Q 2725 3281 2906 2969 
z
M 947 1747 
Q 947 1113 1208 752 
Q 1469 391 1925 391 
Q 2381 391 2643 752 
Q 2906 1113 2906 1747 
Q 2906 2381 2643 2742 
Q 2381 3103 1925 3103 
Q 1469 3103 1208 2742 
Q 947 2381 947 1747 
z
" transform="scale(0.015625)"/>
          </defs>
          <use xlink:href="#DejaVuSans-73"/>
          <use xlink:href="#DejaVuSans-74" x="52.099609"/>
          <use xlink:href="#DejaVuSans-72" x="91.308594"/>
          <use xlink:href="#DejaVuSans-75" x="132.421875"/>
          <use xlink:href="#DejaVuSans-63" x="195.800781"/>
          <use xlink:href="#DejaVuSans-74" x="250.78125"/>
          <use xlink:href="#DejaVuSans-75" x="289.990234"/>
          <use xlink:href="#DejaVuSans-72" x="353.369141"/>
          <use xlink:href="#DejaVuSans-65" x="392.232422"/>
          <use xlink:href="#DejaVuSans-64" x="453.755859"/>
         </g>
        </g>
        <g id="line2d_18">
         <path d="M 182.830089 202.819378 
L 189.770089 202.819378 
L 196.710089 202.819378 
" style="fill: none; stroke-dasharray: 7.4,3.2; stroke-dashoffset: 0; stroke: #0000ff; stroke-width: 2"/>
        </g>
        <g id="text_23">
         <!-- unstructured -->
         <g transform="translate(202.262089 205.248378) scale(0.0694 -0.0694)">
          <use xlink:href="#DejaVuSans-75"/>
          <use xlink:href="#DejaVuSans-6e" x="63.378906"/>
          <use xlink:href="#DejaVuSans-73" x="126.757812"/>
          <use xlink:href="#DejaVuSans-74" x="178.857422"/>
          <use xlink:href="#DejaVuSans-72" x="218.066406"/>
          <use xlink:href="#DejaVuSans-75" x="259.179688"/>
          <use xlink:href="#DejaVuSans-63" x="322.558594"/>
          <use xlink:href="#DejaVuSans-74" x="377.539062"/>
          <use xlink:href="#DejaVuSans-75" x="416.748047"/>
          <use xlink:href="#DejaVuSans-72" x="480.126953"/>
          <use xlink:href="#DejaVuSans-65" x="518.990234"/>
          <use xlink:href="#DejaVuSans-64" x="580.513672"/>
         </g>
        </g>
       </g>
      </g>
      <g id="axes_4">
       <g id="patch_16">
        <path d="M 316.778125 330.84327 
L 505.19952 330.84327 
L 505.19952 193.729062 
L 316.778125 193.729062 
z
" style="fill: #ffffff"/>
       </g>
       <g id="PathCollection_1">
        <defs>
         <path id="m0ab5afbd1b" d="M -3 0 
L 3 0 
M 0 3 
L 0 -3 
" style="stroke: #000000; stroke-width: 1.5"/>
        </defs>
        <g clip-path="url(#p07eaec0495)">
         <use xlink:href="#m0ab5afbd1b" x="330.444017" y="197.416966" style="stroke: #000000; stroke-width: 1.5"/>
         <use xlink:href="#m0ab5afbd1b" x="489.33391" y="264.130118" style="stroke: #000000; stroke-width: 1.5"/>
        </g>
       </g>
       <g id="PathCollection_2">
        <defs>
         <path id="mb65aa658c8" d="M -3 0 
L 3 0 
M 0 3 
L 0 -3 
" style="stroke: #0000ff; stroke-width: 1.5"/>
        </defs>
        <g clip-path="url(#p07eaec0495)">
         <use xlink:href="#mb65aa658c8" x="330.444017" y="211.506805" style="fill: #0000ff; stroke: #0000ff; stroke-width: 1.5"/>
         <use xlink:href="#mb65aa658c8" x="489.33391" y="271.175038" style="fill: #0000ff; stroke: #0000ff; stroke-width: 1.5"/>
        </g>
       </g>
       <g id="matplotlib.axis_7">
        <g id="xtick_6">
         <g id="line2d_19">
          <g>
           <use xlink:href="#m82be86e1e0" x="346.309627" y="330.84327" style="stroke: #000000; stroke-width: 0.8"/>
          </g>
         </g>
         <g id="text_24">
          <!-- $\mathdefault{10^{-7}}$ -->
          <g transform="translate(334.559627 345.441707) scale(0.1 -0.1)">
           <defs>
            <path id="DejaVuSans-37" d="M 525 4666 
L 3525 4666 
L 3525 4397 
L 1831 0 
L 1172 0 
L 2766 4134 
L 525 4134 
L 525 4666 
z
" transform="scale(0.015625)"/>
           </defs>
           <use xlink:href="#DejaVuSans-31" transform="translate(0 0.684375)"/>
           <use xlink:href="#DejaVuSans-30" transform="translate(63.623047 0.684375)"/>
           <use xlink:href="#DejaVuSans-2212" transform="translate(128.203125 38.965625) scale(0.7)"/>
           <use xlink:href="#DejaVuSans-37" transform="translate(186.855469 38.965625) scale(0.7)"/>
          </g>
         </g>
        </g>
        <g id="xtick_7">
         <g id="line2d_20">
          <g>
           <use xlink:href="#m82be86e1e0" x="391.70674" y="330.84327" style="stroke: #000000; stroke-width: 0.8"/>
          </g>
         </g>
         <g id="text_25">
          <!-- $\mathdefault{10^{-5}}$ -->
          <g transform="translate(379.95674 345.441707) scale(0.1 -0.1)">
           <use xlink:href="#DejaVuSans-31" transform="translate(0 0.684375)"/>
           <use xlink:href="#DejaVuSans-30" transform="translate(63.623047 0.684375)"/>
           <use xlink:href="#DejaVuSans-2212" transform="translate(128.203125 38.965625) scale(0.7)"/>
           <use xlink:href="#DejaVuSans-35" transform="translate(186.855469 38.965625) scale(0.7)"/>
          </g>
         </g>
        </g>
        <g id="xtick_8">
         <g id="line2d_21">
          <g>
           <use xlink:href="#m82be86e1e0" x="437.103852" y="330.84327" style="stroke: #000000; stroke-width: 0.8"/>
          </g>
         </g>
         <g id="text_26">
          <!-- $\mathdefault{10^{-3}}$ -->
          <g transform="translate(425.353852 345.441707) scale(0.1 -0.1)">
           <defs>
            <path id="DejaVuSans-33" d="M 2597 2516 
Q 3050 2419 3304 2112 
Q 3559 1806 3559 1356 
Q 3559 666 3084 287 
Q 2609 -91 1734 -91 
Q 1441 -91 1130 -33 
Q 819 25 488 141 
L 488 750 
Q 750 597 1062 519 
Q 1375 441 1716 441 
Q 2309 441 2620 675 
Q 2931 909 2931 1356 
Q 2931 1769 2642 2001 
Q 2353 2234 1838 2234 
L 1294 2234 
L 1294 2753 
L 1863 2753 
Q 2328 2753 2575 2939 
Q 2822 3125 2822 3475 
Q 2822 3834 2567 4026 
Q 2313 4219 1838 4219 
Q 1578 4219 1281 4162 
Q 984 4106 628 3988 
L 628 4550 
Q 988 4650 1302 4700 
Q 1616 4750 1894 4750 
Q 2613 4750 3031 4423 
Q 3450 4097 3450 3541 
Q 3450 3153 3228 2886 
Q 3006 2619 2597 2516 
z
" transform="scale(0.015625)"/>
           </defs>
           <use xlink:href="#DejaVuSans-31" transform="translate(0 0.765625)"/>
           <use xlink:href="#DejaVuSans-30" transform="translate(63.623047 0.765625)"/>
           <use xlink:href="#DejaVuSans-2212" transform="translate(128.203125 39.046875) scale(0.7)"/>
           <use xlink:href="#DejaVuSans-33" transform="translate(186.855469 39.046875) scale(0.7)"/>
          </g>
         </g>
        </g>
        <g id="xtick_9">
         <g id="line2d_22">
          <g>
           <use xlink:href="#m82be86e1e0" x="482.500964" y="330.84327" style="stroke: #000000; stroke-width: 0.8"/>
          </g>
         </g>
         <g id="text_27">
          <!-- $\mathdefault{10^{-1}}$ -->
          <g transform="translate(470.750964 345.441707) scale(0.1 -0.1)">
           <use xlink:href="#DejaVuSans-31" transform="translate(0 0.684375)"/>
           <use xlink:href="#DejaVuSans-30" transform="translate(63.623047 0.684375)"/>
           <use xlink:href="#DejaVuSans-2212" transform="translate(128.203125 38.965625) scale(0.7)"/>
           <use xlink:href="#DejaVuSans-31" transform="translate(186.855469 38.965625) scale(0.7)"/>
          </g>
         </g>
        </g>
        <g id="text_28">
         <!-- $r$ -->
         <g transform="translate(408.888822 359.119832) scale(0.1 -0.1)">
          <defs>
           <path id="DejaVuSans-Oblique-72" d="M 2853 2969 
Q 2766 3016 2653 3041 
Q 2541 3066 2413 3066 
Q 1953 3066 1609 2717 
Q 1266 2369 1153 1784 
L 800 0 
L 225 0 
L 909 3500 
L 1484 3500 
L 1375 2956 
Q 1603 3259 1920 3421 
Q 2238 3584 2597 3584 
Q 2691 3584 2781 3573 
Q 2872 3563 2963 3538 
L 2853 2969 
z
" transform="scale(0.015625)"/>
          </defs>
          <use xlink:href="#DejaVuSans-Oblique-72"/>
         </g>
        </g>
       </g>
       <g id="matplotlib.axis_8">
        <g id="ytick_10">
         <g id="line2d_23">
          <g>
           <use xlink:href="#m1252779148" x="316.778125" y="330.84327" style="stroke: #000000; stroke-width: 0.8"/>
          </g>
         </g>
         <g id="text_29">
          <!-- 0 -->
          <g transform="translate(303.415625 334.642489) scale(0.1 -0.1)">
           <use xlink:href="#DejaVuSans-30"/>
          </g>
         </g>
        </g>
        <g id="ytick_11">
         <g id="line2d_24">
          <g>
           <use xlink:href="#m1252779148" x="316.778125" y="301.404642" style="stroke: #000000; stroke-width: 0.8"/>
          </g>
         </g>
         <g id="text_30">
          <!-- $2 \cdot 10^{-7}$ -->
          <g transform="translate(272.878125 305.203861) scale(0.1 -0.1)">
           <use xlink:href="#DejaVuSans-32" transform="translate(0 0.684375)"/>
           <use xlink:href="#DejaVuSans-22c5" transform="translate(83.105469 0.684375)"/>
           <use xlink:href="#DejaVuSans-31" transform="translate(134.375 0.684375)"/>
           <use xlink:href="#DejaVuSans-30" transform="translate(197.998047 0.684375)"/>
           <use xlink:href="#DejaVuSans-2212" transform="translate(262.578125 38.965625) scale(0.7)"/>
           <use xlink:href="#DejaVuSans-37" transform="translate(321.230469 38.965625) scale(0.7)"/>
          </g>
         </g>
        </g>
        <g id="ytick_12">
         <g id="line2d_25">
          <g>
           <use xlink:href="#m1252779148" x="316.778125" y="271.966015" style="stroke: #000000; stroke-width: 0.8"/>
          </g>
         </g>
         <g id="text_31">
          <!-- $4 \cdot 10^{-7}$ -->
          <g transform="translate(272.878125 275.765233) scale(0.1 -0.1)">
           <use xlink:href="#DejaVuSans-34" transform="translate(0 0.684375)"/>
           <use xlink:href="#DejaVuSans-22c5" transform="translate(83.105469 0.684375)"/>
           <use xlink:href="#DejaVuSans-31" transform="translate(134.375 0.684375)"/>
           <use xlink:href="#DejaVuSans-30" transform="translate(197.998047 0.684375)"/>
           <use xlink:href="#DejaVuSans-2212" transform="translate(262.578125 38.965625) scale(0.7)"/>
           <use xlink:href="#DejaVuSans-37" transform="translate(321.230469 38.965625) scale(0.7)"/>
          </g>
         </g>
        </g>
        <g id="ytick_13">
         <g id="line2d_26">
          <g>
           <use xlink:href="#m1252779148" x="316.778125" y="242.527387" style="stroke: #000000; stroke-width: 0.8"/>
          </g>
         </g>
         <g id="text_32">
          <!-- $6 \cdot 10^{-7}$ -->
          <g transform="translate(272.878125 246.326606) scale(0.1 -0.1)">
           <use xlink:href="#DejaVuSans-36" transform="translate(0 0.684375)"/>
           <use xlink:href="#DejaVuSans-22c5" transform="translate(83.105469 0.684375)"/>
           <use xlink:href="#DejaVuSans-31" transform="translate(134.375 0.684375)"/>
           <use xlink:href="#DejaVuSans-30" transform="translate(197.998047 0.684375)"/>
           <use xlink:href="#DejaVuSans-2212" transform="translate(262.578125 38.965625) scale(0.7)"/>
           <use xlink:href="#DejaVuSans-37" transform="translate(321.230469 38.965625) scale(0.7)"/>
          </g>
         </g>
        </g>
        <g id="ytick_14">
         <g id="line2d_27">
          <g>
           <use xlink:href="#m1252779148" x="316.778125" y="213.088759" style="stroke: #000000; stroke-width: 0.8"/>
          </g>
         </g>
         <g id="text_33">
          <!-- $8 \cdot 10^{-7}$ -->
          <g transform="translate(272.878125 216.887978) scale(0.1 -0.1)">
           <defs>
            <path id="DejaVuSans-38" d="M 2034 2216 
Q 1584 2216 1326 1975 
Q 1069 1734 1069 1313 
Q 1069 891 1326 650 
Q 1584 409 2034 409 
Q 2484 409 2743 651 
Q 3003 894 3003 1313 
Q 3003 1734 2745 1975 
Q 2488 2216 2034 2216 
z
M 1403 2484 
Q 997 2584 770 2862 
Q 544 3141 544 3541 
Q 544 4100 942 4425 
Q 1341 4750 2034 4750 
Q 2731 4750 3128 4425 
Q 3525 4100 3525 3541 
Q 3525 3141 3298 2862 
Q 3072 2584 2669 2484 
Q 3125 2378 3379 2068 
Q 3634 1759 3634 1313 
Q 3634 634 3220 271 
Q 2806 -91 2034 -91 
Q 1263 -91 848 271 
Q 434 634 434 1313 
Q 434 1759 690 2068 
Q 947 2378 1403 2484 
z
M 1172 3481 
Q 1172 3119 1398 2916 
Q 1625 2713 2034 2713 
Q 2441 2713 2670 2916 
Q 2900 3119 2900 3481 
Q 2900 3844 2670 4047 
Q 2441 4250 2034 4250 
Q 1625 4250 1398 4047 
Q 1172 3844 1172 3481 
z
" transform="scale(0.015625)"/>
           </defs>
           <use xlink:href="#DejaVuSans-38" transform="translate(0 0.684375)"/>
           <use xlink:href="#DejaVuSans-22c5" transform="translate(83.105469 0.684375)"/>
           <use xlink:href="#DejaVuSans-31" transform="translate(134.375 0.684375)"/>
           <use xlink:href="#DejaVuSans-30" transform="translate(197.998047 0.684375)"/>
           <use xlink:href="#DejaVuSans-2212" transform="translate(262.578125 38.965625) scale(0.7)"/>
           <use xlink:href="#DejaVuSans-37" transform="translate(321.230469 38.965625) scale(0.7)"/>
          </g>
         </g>
        </g>
        <g id="text_34">
         <!-- $E[H_2]$ -->
         <g transform="translate(266.798437 275.486166) rotate(-90) scale(0.1 -0.1)">
          <defs>
           <path id="DejaVuSans-Oblique-45" d="M 1081 4666 
L 4031 4666 
L 3928 4134 
L 1606 4134 
L 1338 2753 
L 3566 2753 
L 3463 2222 
L 1234 2222 
L 909 531 
L 3284 531 
L 3181 0 
L 172 0 
L 1081 4666 
z
" transform="scale(0.015625)"/>
           <path id="DejaVuSans-5b" d="M 550 4863 
L 1875 4863 
L 1875 4416 
L 1125 4416 
L 1125 -397 
L 1875 -397 
L 1875 -844 
L 550 -844 
L 550 4863 
z
" transform="scale(0.015625)"/>
           <path id="DejaVuSans-Oblique-48" d="M 1081 4666 
L 1716 4666 
L 1344 2753 
L 3634 2753 
L 4006 4666 
L 4641 4666 
L 3731 0 
L 3097 0 
L 3531 2222 
L 1241 2222 
L 806 0 
L 172 0 
L 1081 4666 
z
" transform="scale(0.015625)"/>
           <path id="DejaVuSans-5d" d="M 1947 4863 
L 1947 -844 
L 622 -844 
L 622 -397 
L 1369 -397 
L 1369 4416 
L 622 4416 
L 622 4863 
L 1947 4863 
z
" transform="scale(0.015625)"/>
          </defs>
          <use xlink:href="#DejaVuSans-Oblique-45" transform="translate(0 0.015625)"/>
          <use xlink:href="#DejaVuSans-5b" transform="translate(63.183594 0.015625)"/>
          <use xlink:href="#DejaVuSans-Oblique-48" transform="translate(102.197266 0.015625)"/>
          <use xlink:href="#DejaVuSans-32" transform="translate(177.392578 -16.390625) scale(0.7)"/>
          <use xlink:href="#DejaVuSans-5d" transform="translate(224.663086 0.015625)"/>
         </g>
        </g>
       </g>
       <g id="line2d_28">
        <path d="M 339.476681 205.111493 
L 348.934809 205.208788 
L 353.631062 205.304625 
L 358.327315 205.458141 
L 363.023568 205.703272 
L 367.719821 206.092725 
L 372.416074 206.706555 
L 377.112327 207.662026 
L 381.80858 209.12093 
L 386.504833 211.285018 
L 391.201086 214.363669 
L 395.897338 218.500389 
L 400.593591 223.675135 
L 405.289844 229.656501 
L 409.986097 236.083391 
L 414.68235 242.611335 
L 419.378603 248.900351 
L 424.074856 254.424977 
L 428.771109 258.551831 
L 433.467362 261.080824 
L 438.163615 262.447339 
L 442.859868 263.196504 
L 447.556121 263.634961 
L 452.252374 263.90033 
L 456.948627 264.062495 
L 461.64488 264.162079 
L 466.341133 264.223459 
L 471.037386 264.261389 
L 475.733639 264.28487 
L 480.429892 264.299409 
" clip-path="url(#p07eaec0495)" style="fill: none; stroke: #000000; stroke-width: 1.5; stroke-linecap: square"/>
       </g>
       <g id="line2d_29">
        <path d="M 339.476681 214.534687 
L 348.934809 214.656633 
L 353.631062 214.776693 
L 358.327315 214.968899 
L 363.023568 215.275522 
L 367.719821 215.761941 
L 372.416074 216.526757 
L 377.112327 217.712669 
L 381.80858 219.51236 
L 386.504833 222.156196 
L 391.201086 225.860766 
L 395.897338 230.724105 
L 400.593591 236.60034 
L 405.289844 243.061563 
L 409.986097 249.535894 
L 414.68235 255.506117 
L 419.378603 260.565007 
L 424.074856 264.427889 
L 428.771109 267.060021 
L 433.467362 268.702421 
L 438.163615 269.688363 
L 442.859868 270.277394 
L 447.556121 270.630743 
L 452.252374 270.843972 
L 456.948627 270.973534 
L 461.64488 271.052762 
L 466.341133 271.101454 
L 471.037386 271.131487 
L 475.733639 271.150057 
L 480.429892 271.161557 
" clip-path="url(#p07eaec0495)" style="fill: none; stroke-dasharray: 5.55,2.4; stroke-dashoffset: 0; stroke: #0000ff; stroke-width: 1.5"/>
       </g>
       <g id="patch_17">
        <path d="M 316.778125 330.84327 
L 316.778125 193.729062 
" style="fill: none; stroke: #000000; stroke-width: 0.8; stroke-linejoin: miter; stroke-linecap: square"/>
       </g>
       <g id="patch_18">
        <path d="M 505.19952 330.84327 
L 505.19952 193.729062 
" style="fill: none; stroke: #000000; stroke-width: 0.8; stroke-linejoin: miter; stroke-linecap: square"/>
       </g>
       <g id="patch_19">
        <path d="M 316.778125 330.84327 
L 505.19952 330.84327 
" style="fill: none; stroke: #000000; stroke-width: 0.8; stroke-linejoin: miter; stroke-linecap: square"/>
       </g>
       <g id="patch_20">
        <path d="M 316.778125 193.729062 
L 505.19952 193.729062 
" style="fill: none; stroke: #000000; stroke-width: 0.8; stroke-linejoin: miter; stroke-linecap: square"/>
       </g>
       <g id="text_35">
        <!-- D -->
        <g transform="translate(316.778125 187.729062) scale(0.12 -0.12)">
         <defs>
          <path id="DejaVuSans-44" d="M 1259 4147 
L 1259 519 
L 2022 519 
Q 2988 519 3436 956 
Q 3884 1394 3884 2338 
Q 3884 3275 3436 3711 
Q 2988 4147 2022 4147 
L 1259 4147 
z
M 628 4666 
L 1925 4666 
Q 3281 4666 3915 4102 
Q 4550 3538 4550 2338 
Q 4550 1131 3912 565 
Q 3275 0 1925 0 
L 628 0 
L 628 4666 
z
" transform="scale(0.015625)"/>
         </defs>
         <use xlink:href="#DejaVuSans-44"/>
        </g>
       </g>
      </g>
     </g>
     <defs>
      <clipPath id="p7d25cfaa99">
       <rect x="64.778125" y="22.318125" width="188.421395" height="137.114207"/>
      </clipPath>
      <clipPath id="p69bf081ee3">
       <rect x="316.778125" y="22.318125" width="188.421395" height="137.114207"/>
      </clipPath>
      <clipPath id="pfb4d6e6038">
       <rect x="64.778125" y="193.729062" width="188.421395" height="137.114208"/>
      </clipPath>
      <clipPath id="p07eaec0495">
       <rect x="316.778125" y="193.729062" width="188.421395" height="137.114208"/>
      </clipPath>
     </defs>
    </g>
   </g>
  </g>
 </g>
</svg>
