<?xml version="1.0" encoding="UTF-8" standalone="no"?>
<!-- Created with Inkscape (http://www.inkscape.org/) -->

<svg
   version="1.1"
   id="svg2"
   width="768"
   height="266.66666"
   viewBox="0 0 768 266.66666"
   sodipodi:docname="INTEBIOLCO_black-center-reverse.svg"
   inkscape:version="1.2.2 (b0a8486541, 2022-12-01)"
   xmlns:inkscape="http://www.inkscape.org/namespaces/inkscape"
   xmlns:sodipodi="http://sodipodi.sourceforge.net/DTD/sodipodi-0.dtd"
   xmlns="http://www.w3.org/2000/svg"
   xmlns:svg="http://www.w3.org/2000/svg">
  <defs
     id="defs6">
    <clipPath
       clipPathUnits="userSpaceOnUse"
       id="clipPath20">
      <path
         d="M 0,81.544 H 51.839 V 0 H 0 Z"
         id="path18" />
    </clipPath>
    <clipPath
       clipPathUnits="userSpaceOnUse"
       id="clipPath58">
      <path
         d="M 0,9.391 H 236.964 V 0 H 0 Z"
         id="path56" />
    </clipPath>
  </defs>
  <sodipodi:namedview
     id="namedview4"
     pagecolor="#ffffff"
     bordercolor="#cccccc"
     borderopacity="1"
     inkscape:showpageshadow="0"
     inkscape:pageopacity="1"
     inkscape:pagecheckerboard="0"
     inkscape:deskcolor="#d1d1d1"
     showgrid="false"
     inkscape:zoom="0.88500005"
     inkscape:cx="327.6836"
     inkscape:cy="99.999995"
     inkscape:window-width="1920"
     inkscape:window-height="1141"
     inkscape:window-x="0"
     inkscape:window-y="0"
     inkscape:window-maximized="1"
     inkscape:current-layer="g12">
    <inkscape:page
       x="0"
       y="0"
       id="page8"
       width="768"
       height="266.66666" />
  </sodipodi:namedview>
  <g
     id="g10"
     inkscape:groupmode="layer"
     inkscape:label="Page 1"
     transform="matrix(1.3333333,0,0,-1.3333333,0,266.66667)">
    <g
       id="g12"
       transform="translate(220.42265,331.68449)">
      <g
         id="g14"
         transform="translate(38.983205,-236.83006)">
        <g
           id="g16"
           clip-path="url(#clipPath20)">
          <g
             id="g22"
             transform="translate(25.9189,0.2607)">
            <path
               d="m 0,0 c -0.151,0.041 -0.599,0.505 -0.984,1.084 l -0.058,0.087 -0.102,0.023 c -16.928,3.949 -26.358,29.942 -24.233,50.802 0.246,2.408 0.648,4.676 1.2,6.776 0.565,2.15 1.295,4.159 2.172,5.971 0.978,2.024 2.157,3.799 3.506,5.277 2.812,3.082 6.288,4.739 10.052,4.793 0.087,10e-4 0.331,0.008 0.352,0.235 0.659,1.343 2.355,2.281 3.62,2.457 l 0.177,0.025 0.044,0.173 c 0.035,0.141 0.841,3.319 4.258,3.319 3.426,0 4.25,-3.269 4.258,-3.303 L 4.305,77.544 4.482,77.52 c 1.268,-0.178 2.954,-1.127 3.616,-2.467 0.017,-0.231 0.263,-0.239 0.346,-0.24 3.769,-0.054 7.244,-1.711 10.056,-4.793 1.547,-1.677 2.88,-3.785 3.964,-6.269 l 0.219,-0.515 c 1.363,-3.272 2.269,-7.054 2.696,-11.24 C 27.502,31.135 18.072,5.143 1.146,1.194 L 1.044,1.171 0.986,1.084 C 0.6,0.505 0.153,0.041 0,0"
               style="fill:#ffffff;fill-opacity:1;fill-rule:nonzero;stroke:none"
               id="path24" />
          </g>
          <g
             id="g26"
             transform="translate(50.8525,40.5898)">
            <path
               d="m 0,0 c -0.294,-3.414 -0.852,-6.807 -1.672,-10.134 -0.804,-3.256 -1.86,-6.452 -3.199,-9.527 -1.385,-3.183 -3.11,-6.279 -5.206,-9.049 -0.438,-0.578 -0.89,-1.144 -1.361,-1.693 -0.69,-0.808 -1.422,-1.579 -2.197,-2.307 -0.941,-0.883 -1.956,-1.708 -3.031,-2.446 -1.694,-1.163 -3.543,-2.098 -5.481,-2.738 -0.393,-0.128 -0.405,-0.152 -0.873,-0.257 0.38,0.813 0.663,1.796 0.622,2.898 0.706,0.251 1.394,0.552 2.061,0.895 2.959,1.518 5.522,3.842 7.598,6.421 2.068,2.568 3.743,5.454 5.119,8.429 1.369,2.962 2.453,6.055 3.294,9.206 0.865,3.245 1.472,6.559 1.82,9.899 0.343,3.299 0.437,6.631 0.214,9.942 -0.243,3.608 -0.848,7.211 -2.056,10.628 -0.939,2.657 -2.256,5.26 -4.173,7.35 -1.968,2.148 -4.616,3.633 -7.581,3.639 -1.98,0.003 -3.346,-1.51 -3.753,-3.447 -0.332,-1.558 -0.009,-3.498 0.979,-4.767 0.418,-0.432 0.351,-0.553 0.221,-0.555 -0.842,-0.008 -5.142,0.659 -4.773,4.878 0.239,2.749 1.581,4.557 3.116,5.648 1.391,0.875 2.973,0.978 3.625,0.978 0.802,0 1.604,-0.05 2.392,-0.196 0.318,-0.045 0.67,-0.161 0.964,-0.241 0.323,-0.088 0.643,-0.189 0.959,-0.303 0.621,-0.224 1.225,-0.497 1.804,-0.813 1.391,-0.757 2.614,-1.755 3.703,-2.9 1.169,-1.227 2.132,-2.659 2.94,-4.143 0.792,-1.452 1.431,-2.98 1.964,-4.545 0.58,-1.706 1.009,-3.465 1.333,-5.237 C -0.303,13.73 -0.086,11.93 0.063,10.125 0.342,6.762 0.288,3.36 0,0 m -24.642,-39.338 c -0.01,-0.014 -0.147,-0.18 -0.291,-0.196 -0.144,0.016 -0.28,0.182 -0.292,0.196 -0.731,0.919 -1.822,2.702 -1.411,4.83 0.116,0.6 1.123,0.87 1.703,0.876 0.579,-0.006 1.587,-0.276 1.704,-0.876 0.41,-2.128 -0.681,-3.911 -1.413,-4.83 m -3.076,1.444 c -1.94,0.64 -3.788,1.575 -5.482,2.738 -1.075,0.738 -2.09,1.563 -3.031,2.446 -0.775,0.728 -1.507,1.499 -2.198,2.307 -0.47,0.549 -0.923,1.115 -1.36,1.693 -2.096,2.77 -3.821,5.866 -5.207,9.049 -1.338,3.075 -2.395,6.271 -3.198,9.527 -0.821,3.327 -1.378,6.72 -1.672,10.134 -0.289,3.36 -0.342,6.762 -0.064,10.125 0.15,1.805 0.367,3.605 0.692,5.388 0.323,1.772 0.753,3.531 1.333,5.237 0.533,1.565 1.172,3.093 1.964,4.545 0.809,1.484 1.772,2.916 2.94,4.143 1.089,1.145 2.312,2.143 3.703,2.9 0.58,0.316 1.183,0.589 1.804,0.813 0.315,0.114 0.635,0.215 0.959,0.303 0.294,0.08 0.664,0.201 0.964,0.241 0.788,0.146 1.59,0.196 2.391,0.196 0.653,0 2.235,-0.103 3.627,-0.978 1.533,-1.091 2.877,-2.899 3.115,-5.648 0.369,-4.219 -3.931,-4.886 -4.773,-4.878 -0.129,0.002 -0.197,0.123 0.221,0.555 0.989,1.269 1.311,3.209 0.98,4.767 -0.408,1.937 -1.774,3.45 -3.755,3.447 -2.964,-0.006 -5.611,-1.491 -7.581,-3.639 -1.916,-2.09 -3.233,-4.693 -4.172,-7.35 -1.208,-3.417 -1.813,-7.02 -2.056,-10.628 -0.223,-3.311 -0.13,-6.643 0.214,-9.942 0.347,-3.34 0.955,-6.654 1.82,-9.899 0.841,-3.151 1.925,-6.244 3.294,-9.206 1.376,-2.975 3.051,-5.861 5.119,-8.429 2.076,-2.579 4.639,-4.903 7.598,-6.421 0.667,-0.343 1.355,-0.644 2.062,-0.895 -0.041,-1.102 0.24,-2.085 0.621,-2.898 -0.468,0.105 -0.48,0.129 -0.872,0.257 M -8.459,7.983 c -0.581,3.549 -2.339,8.219 -6.142,10.616 4.505,2.645 6.459,5.547 6.906,6.707 2.513,-3.572 4.248,-8.932 4.654,-15.764 C -3.96,9.062 -5.914,8.207 -8.459,7.983 m -5.396,-26.535 c 1.566,2.767 2.894,5.676 3.861,8.707 0.709,2.223 1.226,4.519 1.55,6.842 0.34,2.454 0.463,4.94 0.361,7.402 -0.028,0.685 -0.105,1.783 -0.297,3.09 2.457,0.216 4.353,0.991 5.37,1.503 0.489,-10.014 -1.715,-21.123 -6.042,-29.73 -0.807,0.159 -3.204,0.731 -4.803,2.186 m -8.148,-9.912 c 2.172,1.561 5.02,4.515 7.892,9.469 1.611,-1.42 3.862,-2.009 4.821,-2.205 -2.493,-4.821 -5.662,-8.814 -9.407,-11.333 -0.656,0.507 -2.519,2.073 -3.306,4.069 m -5.427,-0.303 c 1.159,-0.844 2.343,-1.326 2.497,-1.375 0.154,0.049 1.337,0.531 2.496,1.375 0.819,-1.942 2.525,-3.445 3.301,-4.057 -1.07,-0.679 -2.183,-1.241 -3.343,-1.665 -0.006,0.041 -0.01,0.082 -0.017,0.124 -0.239,1.232 -1.849,1.484 -2.437,1.486 -0.588,-0.002 -2.198,-0.254 -2.437,-1.486 -0.007,-0.042 -0.01,-0.083 -0.018,-0.124 -1.158,0.424 -2.272,0.986 -3.342,1.665 0.776,0.612 2.482,2.115 3.3,4.057 m -8.324,9.772 c 2.872,-4.954 5.719,-7.908 7.89,-9.469 -0.786,-1.996 -2.65,-3.562 -3.304,-4.069 -3.746,2.519 -6.915,6.512 -9.408,11.333 0.959,0.196 3.21,0.785 4.822,2.205 M -46.826,9.542 c 0.407,6.832 2.142,12.192 4.656,15.764 0.446,-1.16 2.399,-4.062 6.905,-6.707 -3.829,-2.305 -5.561,-7.067 -6.143,-10.616 -2.545,0.224 -4.498,1.079 -5.418,1.559 m 5.34,-2.053 c -0.192,-1.307 -0.269,-2.405 -0.297,-3.09 -0.102,-2.462 0.02,-4.948 0.362,-7.402 0.322,-2.323 0.84,-4.619 1.549,-6.842 0.967,-3.031 2.295,-5.94 3.861,-8.707 -1.599,-1.455 -3.995,-2.027 -4.803,-2.186 -4.328,8.607 -6.53,19.716 -6.042,29.73 1.017,-0.512 2.913,-1.287 5.37,-1.503 m 14.816,28.644 c 0.72,-0.445 1.285,-1.146 1.487,-1.967 0.06,-0.244 0.152,-0.389 0.25,-0.389 0.098,0 0.19,0.145 0.249,0.389 0.203,0.821 0.768,1.522 1.488,1.967 2.179,1.344 4.65,0.454 5.639,-1.481 -0.505,-0.085 -0.951,-0.209 -1.556,-0.391 -0.878,-0.303 -1.604,-0.674 -2.221,-1.235 -1.386,-1.259 -2.612,-3.21 -2.84,-5.695 -0.623,-6.832 7.211,-5.76 7.606,-5.727 1.012,0 1.776,1.595 1.776,3.709 0,2.115 -0.784,3.71 -1.776,3.71 -0.607,0 -1.658,-0.485 -1.755,-2.379 -0.069,-1.33 0.583,-3.099 1.423,-3.209 0.435,-0.058 0.835,0.714 0.959,1.495 0.11,0.68 0.052,1.747 -0.554,1.899 -0.192,0.048 -0.385,-0.069 -0.434,-0.262 -0.044,-0.173 0.376,-0.47 0.361,-1.253 -0.025,-1.169 -1.199,-0.585 -1.041,1.271 0.141,1.647 0.982,1.542 1.016,1.544 0.471,0 1.179,-0.981 1.179,-2.816 0,-1.633 -0.788,-3.391 -2.293,-2.473 -1.268,0.928 -1.769,3.062 -1.418,4.714 0.159,0.758 0.813,2.822 2.923,2.822 3.044,0 5.881,-1.6 8.143,-4.576 -0.248,-0.798 -1.816,-3.832 -6.802,-6.737 -0.108,-0.054 -0.265,-0.145 -0.274,-0.142 -1.521,0.62 -2.949,1.006 -4.608,0.912 -1.469,-0.084 -2.903,-0.354 -4.331,-0.688 -0.281,-0.066 -0.57,-0.141 -0.859,-0.141 -0.289,0 -0.577,0.075 -0.859,0.141 -1.428,0.334 -2.862,0.604 -4.331,0.688 -1.659,0.094 -3.087,-0.292 -4.608,-0.912 -0.009,-0.003 -0.166,0.088 -0.273,0.142 -4.987,2.905 -6.556,5.939 -6.804,6.737 2.264,2.976 5.1,4.576 8.144,4.576 2.109,0 2.764,-2.064 2.923,-2.822 0.35,-1.652 -0.15,-3.786 -1.418,-4.714 -1.505,-0.918 -2.293,0.84 -2.293,2.473 0,1.835 0.708,2.816 1.178,2.816 0.035,-0.002 0.876,0.103 1.018,-1.544 0.157,-1.856 -1.018,-2.44 -1.042,-1.271 -0.015,0.783 0.404,1.08 0.361,1.253 -0.049,0.193 -0.242,0.31 -0.434,0.262 -0.607,-0.152 -0.664,-1.219 -0.554,-1.899 0.125,-0.781 0.523,-1.553 0.959,-1.495 0.841,0.11 1.491,1.879 1.423,3.209 -0.098,1.894 -1.148,2.379 -1.755,2.379 -0.992,0 -1.777,-1.595 -1.777,-3.71 0,-2.114 0.764,-3.709 1.777,-3.709 0.395,-0.033 8.229,-1.105 7.607,5.727 -0.228,2.485 -1.455,4.436 -2.841,5.695 -0.617,0.561 -1.343,0.932 -2.22,1.235 -0.606,0.182 -1.053,0.306 -1.558,0.391 0.99,1.935 3.46,2.825 5.64,1.481 m 1.737,4.005 c 3.001,0 3.662,-2.551 3.667,-2.577 -1.492,-0.102 -2.882,-1.005 -3.602,-2.308 -0.011,-0.02 -0.037,-0.087 -0.065,-0.087 -0.032,0 -0.054,0.067 -0.065,0.087 -0.72,1.303 -2.11,2.206 -3.602,2.308 0.005,0.026 0.666,2.577 3.667,2.577 M 0.686,11.691 c -0.176,1.726 -0.438,3.442 -0.806,5.137 -0.338,1.559 -0.767,3.1 -1.302,4.603 -0.564,1.584 -1.249,3.139 -2.078,4.602 -0.78,1.375 -1.695,2.666 -2.761,3.834 -2.84,3.113 -6.348,4.829 -10.238,4.884 l -0.085,-10e-4 c -0.632,1.384 -2.373,2.509 -3.886,2.72 0,0 -0.813,3.468 -4.463,3.485 -3.65,-0.017 -4.463,-3.485 -4.463,-3.485 -1.513,-0.211 -3.255,-1.336 -3.886,-2.72 l -0.085,10e-4 c -3.89,-0.055 -7.398,-1.771 -10.238,-4.884 -1.066,-1.168 -1.981,-2.459 -2.761,-3.834 -0.829,-1.463 -1.513,-3.018 -2.078,-4.602 -0.536,-1.503 -0.964,-3.044 -1.302,-4.603 -0.368,-1.695 -0.63,-3.411 -0.805,-5.137 -2.152,-21.129 7.348,-47.1 24.436,-51.085 0.26,-0.389 0.855,-1.196 1.182,-1.196 0.327,0 0.921,0.807 1.182,1.196 17.087,3.985 26.588,29.956 24.437,51.085"
               style="fill:#231f20;fill-opacity:1;fill-rule:nonzero;stroke:none"
               id="path28" />
          </g>
          <g
             id="g30"
             transform="translate(41.8398,44.8555)">
            <path
               d="m 0,0 c -0.105,2.511 -0.839,10.179 -6.055,13.506 -1.128,0.718 -2.608,1.034 -4.096,1.131 -2.561,0.167 -4.459,-0.812 -5.738,-0.848 h -0.063 c -1.278,0.036 -3.192,1.015 -5.753,0.848 -1.486,-0.097 -2.953,-0.413 -4.081,-1.131 C -31.001,10.179 -31.735,2.511 -31.841,0 c -0.372,-8.884 2.436,-15.823 3.306,-17.738 3.61,-7.949 7.967,-13.569 12.27,-15.48 l 0.344,-0.155 0.347,0.155 c 4.301,1.911 8.66,7.531 12.267,15.48 C -2.436,-15.823 0.372,-8.884 0,0"
               style="fill:#231f20;fill-opacity:1;fill-rule:nonzero;stroke:none"
               id="path32" />
          </g>
          <g
             id="g34"
             transform="translate(33.6689,50.8848)">
            <path
               d="m 0,0 v -1.736 l 0.351,0.053 c 0,0 0.071,0.01 0.164,0.01 0.191,0 0.545,-0.034 0.765,-0.259 0.208,-0.212 0.275,-0.569 0.2,-1.038 -0.006,-0.017 -3.49,-15.126 -4.153,-18.005 -0.763,3.641 -4.914,23.519 -4.914,23.519 L -7.604,2.629 H -8.428 L -8.441,2.54 c 0,0 -3.003,-19.352 -3.604,-23.226 -0.783,3.353 -4.129,17.699 -4.129,17.699 -0.01,0.091 -0.014,0.179 -0.014,0.26 0,0.406 0.096,0.705 0.288,0.888 0.254,0.245 0.64,0.211 0.674,0.207 l 0.345,-0.046 0.002,1.678 h -5.829 v -1.641 l 0.258,-0.041 c 0.128,-0.025 0.778,-0.182 0.885,-0.776 0.001,-0.011 6.819,-29.279 7.109,-30.524 l 0.02,-0.082 h 1.025 l 0.012,0.089 c 0.032,0.202 2.808,18.368 3.326,21.77 0.659,-3.387 4.194,-21.573 4.232,-21.774 l 0.017,-0.085 h 0.915 l 6.768,30.623 c 0.156,0.635 0.714,0.704 0.948,0.704 0.033,0 0.056,-0.002 0.067,-0.004 L 5.209,-1.768 V 0 Z"
               style="fill:#ffffff;fill-opacity:1;fill-rule:nonzero;stroke:none"
               id="path36" />
          </g>
        </g>
      </g>
      <g
         id="g38"
         transform="translate(-53.484795,-294.58006)">
        <g
           id="g40"
           transform="translate(209.745,9.288)">
          <path
             d="M 0,0 H -0.188 -0.375 -0.562 -0.75 -0.937 -1.124 -1.312 v -0.573 -0.574 -0.574 -0.573 -0.574 -0.574 -0.574 -0.573 -0.574 -0.574 -0.574 -0.573 -0.574 -0.574 -0.574 -0.573 h 0.188 0.187 0.187 0.188 0.187 0.187 H 0 0.186 v 0.573 0.574 0.574 0.574 0.573 0.574 0.574 0.574 0.573 0.574 0.574 0.574 0.573 0.574 0.574 V 0 Z"
             style="fill:#ffffff;fill-opacity:1;fill-rule:nonzero;stroke:none"
             id="path42" />
        </g>
        <g
           id="g44"
           transform="translate(158.7897,9.288)">
          <path
             d="m 0,0 h -0.187 -0.188 -0.187 -0.187 -0.188 -0.187 -0.187 v -0.573 -0.574 -0.574 -0.573 -0.574 -0.574 -0.574 -0.573 -0.574 -0.574 -0.574 -0.573 -0.574 -0.574 -0.574 -0.573 h 0.187 0.187 0.188 0.187 0.187 0.188 H 0 0.186 v 0.573 0.574 0.574 0.574 0.573 0.574 0.574 0.574 0.573 0.574 0.574 0.574 0.573 0.574 0.574 V 0 Z"
             style="fill:#ffffff;fill-opacity:1;fill-rule:nonzero;stroke:none"
             id="path46" />
        </g>
        <g
           id="g48"
           transform="translate(112.8591,9.288)">
          <path
             d="M 0,0 H -0.187 -0.374 -0.562 -0.749 -0.936 -1.124 -1.31 v -0.573 -0.574 -0.574 -0.573 -0.574 -0.574 -0.574 -0.573 -0.574 -0.574 -0.574 -0.573 -0.574 -0.574 -0.574 -0.573 h 0.186 0.188 0.187 0.187 0.188 0.187 H 0 0.187 v 0.573 0.574 0.574 0.574 0.573 0.574 0.574 0.574 0.573 0.574 0.574 0.574 0.573 0.574 0.574 V 0 Z"
             style="fill:#ffffff;fill-opacity:1;fill-rule:nonzero;stroke:none"
             id="path50" />
        </g>
        <g
           id="g52">
          <g
             id="g54"
             clip-path="url(#clipPath58)">
            <g
               id="g60"
               transform="translate(3.7354,1.3138)">
              <path
                 d="M 0,0 C 0.353,0 0.668,0.059 0.947,0.178 1.225,0.297 1.461,0.463 1.654,0.676 1.848,0.888 1.996,1.144 2.098,1.443 2.2,1.743 2.25,2.075 2.25,2.441 V 7.975 H 3.736 V 2.441 C 3.736,1.901 3.65,1.402 3.478,0.943 3.306,0.484 3.058,0.088 2.735,-0.246 2.412,-0.579 2.02,-0.841 1.559,-1.03 1.098,-1.219 0.578,-1.313 0,-1.313 c -0.578,0 -1.097,0.094 -1.559,0.283 -0.461,0.189 -0.853,0.451 -1.176,0.784 -0.323,0.334 -0.57,0.73 -0.743,1.189 -0.171,0.459 -0.257,0.958 -0.257,1.498 v 5.534 h 1.491 V 2.447 c 0,-0.365 0.051,-0.698 0.153,-0.997 0.102,-0.3 0.249,-0.557 0.44,-0.771 C -1.459,0.464 -1.225,0.297 -0.946,0.178 -0.668,0.059 -0.353,0 0,0"
                 style="fill:#ffffff;fill-opacity:1;fill-rule:nonzero;stroke:none"
                 id="path62" />
            </g>
            <g
               id="g64"
               transform="translate(17.1417,9.2884)">
              <path
                 d="m 0,0 v -9.18 h -0.758 c -0.115,0 -0.213,0.02 -0.294,0.061 -0.08,0.04 -0.157,0.107 -0.229,0.2 l -5.043,6.477 c 0.013,-0.123 0.022,-0.245 0.029,-0.367 0.006,-0.121 0.009,-0.232 0.009,-0.334 V -9.18 H -7.599 V 0 h 0.778 c 0.064,0 0.118,-0.003 0.162,-0.01 0.045,-0.006 0.087,-0.018 0.125,-0.035 0.038,-0.017 0.074,-0.042 0.108,-0.076 0.034,-0.034 0.07,-0.077 0.109,-0.128 l 5.048,-6.482 c -0.012,0.13 -0.022,0.26 -0.028,0.388 -0.007,0.127 -0.01,0.246 -0.01,0.357 V 0 Z"
                 style="fill:#ffffff;fill-opacity:1;fill-rule:nonzero;stroke:none"
                 id="path66" />
            </g>
            <g
               id="g68"
               transform="translate(55.7882,0.1087)">
              <path
                 d="M 0,0 H -0.187 -0.375 -0.562 -0.749 -0.937 -1.124 -1.311 -1.498 V 0.573 1.147 1.721 2.295 2.868 3.442 4.016 4.59 5.164 5.737 6.311 6.885 7.458 8.032 8.606 9.18 h 0.187 0.187 0.187 0.188 0.187 0.187 0.188 H 0 V 8.606 8.032 7.458 6.885 6.311 5.737 5.164 4.59 4.016 3.442 2.868 2.295 1.721 1.147 0.573 Z"
                 style="fill:#ffffff;fill-opacity:1;fill-rule:nonzero;stroke:none"
                 id="path70" />
            </g>
            <g
               id="g72"
               transform="translate(30.7345,9.2884)">
              <path
                 d="M 0,0 -3.723,-9.18 H -5.068 L -8.791,0 h 1.192 c 0.132,0 0.238,-0.033 0.319,-0.099 0.08,-0.066 0.142,-0.148 0.185,-0.245 L -4.73,-6.33 c 0.127,-0.336 0.244,-0.723 0.351,-1.16 0.046,0.217 0.096,0.423 0.149,0.618 0.053,0.195 0.112,0.376 0.175,0.542 l 2.359,5.986 c 0.034,0.085 0.094,0.163 0.179,0.236 C -1.432,-0.036 -1.326,0 -1.198,0 Z"
                 style="fill:#ffffff;fill-opacity:1;fill-rule:nonzero;stroke:none"
                 id="path74" />
            </g>
            <g
               id="g76"
               transform="translate(37.6007,1.3138)">
              <path
                 d="m 0,0 -0.006,-1.205 h -5.725 v 9.18 h 5.725 V 6.77 H -4.233 V 4.003 h 3.379 V 2.836 H -4.233 V 0 Z"
                 style="fill:#ffffff;fill-opacity:1;fill-rule:nonzero;stroke:none"
                 id="path78" />
            </g>
            <g
               id="g80"
               transform="translate(41.7706,4.8895)">
              <path
                 d="M 0,0 C 0.34,0 0.638,0.042 0.893,0.125 1.147,0.207 1.36,0.323 1.53,0.472 1.7,0.621 1.828,0.798 1.913,1.004 1.998,1.21 2.04,1.438 2.04,1.689 2.04,2.191 1.874,2.573 1.543,2.837 1.211,3.101 0.709,3.232 0.038,3.232 H -1.173 V 0 Z M 4.322,-4.781 H 2.99 c -0.264,0 -0.455,0.102 -0.574,0.306 l -2.142,3.092 c -0.072,0.106 -0.151,0.182 -0.236,0.229 -0.085,0.047 -0.212,0.07 -0.382,0.07 h -0.829 v -3.697 h -1.492 v 9.18 H 0.038 C 0.642,4.399 1.161,4.337 1.597,4.214 2.033,4.09 2.391,3.915 2.671,3.688 2.952,3.46 3.159,3.188 3.292,2.869 3.427,2.55 3.494,2.195 3.494,1.804 3.494,1.485 3.446,1.188 3.35,0.912 3.254,0.635 3.116,0.385 2.936,0.159 2.755,-0.066 2.533,-0.261 2.27,-0.427 2.006,-0.593 1.707,-0.723 1.371,-0.816 1.553,-0.927 1.71,-1.082 1.842,-1.281 Z"
                 style="fill:#ffffff;fill-opacity:1;fill-rule:nonzero;stroke:none"
                 id="path82" />
            </g>
            <g
               id="g84"
               transform="translate(52.1099,7.72)">
              <path
                 d="m 0,0 c -0.047,-0.077 -0.096,-0.133 -0.147,-0.169 -0.051,-0.036 -0.115,-0.054 -0.191,-0.054 -0.081,0 -0.171,0.034 -0.271,0.102 -0.1,0.068 -0.223,0.143 -0.37,0.226 -0.146,0.083 -0.319,0.16 -0.519,0.229 -0.2,0.071 -0.438,0.106 -0.714,0.106 -0.255,0 -0.479,-0.032 -0.673,-0.096 -0.193,-0.064 -0.356,-0.153 -0.488,-0.267 -0.131,-0.115 -0.23,-0.25 -0.296,-0.406 -0.066,-0.154 -0.099,-0.323 -0.099,-0.506 0,-0.234 0.062,-0.428 0.185,-0.583 0.124,-0.156 0.286,-0.289 0.488,-0.399 0.201,-0.111 0.432,-0.207 0.692,-0.29 0.258,-0.083 0.523,-0.171 0.793,-0.265 0.27,-0.093 0.535,-0.199 0.794,-0.318 0.259,-0.12 0.49,-0.27 0.691,-0.453 0.202,-0.183 0.365,-0.406 0.488,-0.67 0.123,-0.262 0.185,-0.583 0.185,-0.961 0,-0.409 -0.07,-0.791 -0.21,-1.148 -0.141,-0.357 -0.343,-0.669 -0.609,-0.934 -0.266,-0.266 -0.593,-0.475 -0.982,-0.628 -0.389,-0.153 -0.832,-0.23 -1.329,-0.23 -0.293,0 -0.579,0.029 -0.857,0.086 -0.279,0.058 -0.544,0.139 -0.797,0.242 -0.253,0.105 -0.49,0.232 -0.711,0.38 -0.221,0.149 -0.419,0.315 -0.593,0.497 l 0.434,0.714 c 0.038,0.06 0.086,0.107 0.146,0.141 0.06,0.034 0.126,0.05 0.198,0.05 0.097,0 0.206,-0.045 0.325,-0.136 0.119,-0.092 0.262,-0.192 0.43,-0.3 0.168,-0.108 0.371,-0.208 0.609,-0.3 0.238,-0.092 0.523,-0.137 0.854,-0.137 0.54,0 0.958,0.132 1.253,0.395 0.295,0.264 0.443,0.627 0.443,1.091 0,0.259 -0.062,0.47 -0.185,0.634 -0.123,0.164 -0.286,0.3 -0.488,0.411 -0.202,0.11 -0.432,0.204 -0.691,0.28 -0.26,0.077 -0.523,0.159 -0.791,0.246 -0.268,0.087 -0.531,0.189 -0.79,0.306 -0.26,0.116 -0.49,0.27 -0.692,0.459 -0.202,0.189 -0.365,0.423 -0.488,0.701 -0.123,0.278 -0.185,0.626 -0.185,1.042 0,0.332 0.065,0.653 0.195,0.963 0.13,0.31 0.318,0.585 0.567,0.825 0.249,0.241 0.556,0.433 0.921,0.578 0.366,0.144 0.783,0.216 1.25,0.216 0.527,0 1.011,-0.083 1.45,-0.249 0.44,-0.165 0.819,-0.401 1.138,-0.707 z"
                 style="fill:#ffffff;fill-opacity:1;fill-rule:nonzero;stroke:none"
                 id="path86" />
            </g>
            <g
               id="g88"
               transform="translate(64.2486,8.0452)">
              <path
                 d="M 0,0 H -2.862 V -7.937 H -4.348 V 0 H -7.216 V 1.243 H 0 Z"
                 style="fill:#ffffff;fill-opacity:1;fill-rule:nonzero;stroke:none"
                 id="path90" />
            </g>
            <g
               id="g92"
               transform="translate(69.7589,3.7039)">
              <path
                 d="M 0,0 V -3.595 H -1.485 V 0 l -3.353,5.584 h 1.306 c 0.132,0 0.236,-0.032 0.313,-0.095 0.076,-0.064 0.14,-0.145 0.191,-0.242 l 1.881,-3.29 c 0.085,-0.166 0.162,-0.323 0.232,-0.472 0.07,-0.149 0.133,-0.295 0.188,-0.44 0.047,0.149 0.104,0.297 0.172,0.443 0.068,0.147 0.145,0.303 0.23,0.469 l 1.868,3.29 c 0.042,0.085 0.104,0.162 0.185,0.232 0.081,0.07 0.185,0.105 0.312,0.105 h 1.314 z"
                 style="fill:#ffffff;fill-opacity:1;fill-rule:nonzero;stroke:none"
                 id="path94" />
            </g>
            <g
               id="g96"
               transform="translate(84.5679,4.6981)">
              <path
                 d="M 0,0 C 0,0.527 -0.071,1.001 -0.213,1.422 -0.356,1.843 -0.56,2.2 -0.826,2.493 -1.091,2.786 -1.413,3.011 -1.792,3.168 -2.17,3.326 -2.595,3.404 -3.066,3.404 -3.534,3.404 -3.957,3.326 -4.335,3.168 -4.713,3.011 -5.036,2.786 -5.304,2.493 -5.572,2.2 -5.778,1.843 -5.922,1.422 -6.067,1.001 -6.139,0.527 -6.139,0 c 0,-0.531 0.072,-1.007 0.217,-1.427 0.144,-0.421 0.35,-0.778 0.618,-1.069 0.268,-0.291 0.591,-0.513 0.969,-0.669 0.378,-0.155 0.801,-0.233 1.269,-0.233 0.471,0 0.896,0.078 1.274,0.233 0.379,0.156 0.701,0.378 0.966,0.669 0.266,0.291 0.47,0.648 0.613,1.069 C -0.071,-1.007 0,-0.531 0,0 m 1.523,0 c 0,-0.68 -0.11,-1.306 -0.331,-1.88 -0.221,-0.574 -0.532,-1.068 -0.934,-1.483 -0.402,-0.414 -0.884,-0.738 -1.447,-0.971 -0.563,-0.235 -1.189,-0.351 -1.877,-0.351 -0.684,0 -1.309,0.116 -1.871,0.351 -0.563,0.233 -1.047,0.557 -1.451,0.971 -0.404,0.415 -0.716,0.909 -0.937,1.483 -0.221,0.574 -0.331,1.2 -0.331,1.88 0,0.68 0.11,1.307 0.331,1.881 0.221,0.574 0.533,1.069 0.937,1.485 0.404,0.417 0.888,0.742 1.451,0.975 0.562,0.234 1.187,0.351 1.871,0.351 0.688,0 1.314,-0.117 1.877,-0.351 C -0.626,4.108 -0.144,3.783 0.258,3.366 0.66,2.95 0.971,2.455 1.192,1.881 1.413,1.307 1.523,0.68 1.523,0"
                 style="fill:#ffffff;fill-opacity:1;fill-rule:nonzero;stroke:none"
                 id="path98" />
            </g>
            <g
               id="g100"
               transform="translate(89.2408,8.0833)">
              <path
                 d="M 0,0 V -2.939 H 3.589 V -4.144 H 0 v -3.831 h -1.498 v 9.18 H 4.227 V 0 Z"
                 style="fill:#ffffff;fill-opacity:1;fill-rule:nonzero;stroke:none"
                 id="path102" />
            </g>
            <g
               id="g104"
               transform="translate(110.3228,9.2884)">
              <path
                 d="m 0,0 -2.856,-9.18 h -1.345 l -2.155,6.592 c -0.025,0.072 -0.05,0.15 -0.073,0.235 -0.024,0.085 -0.046,0.177 -0.067,0.274 -0.022,-0.097 -0.044,-0.189 -0.067,-0.274 -0.024,-0.085 -0.048,-0.163 -0.074,-0.235 L -8.811,-9.18 h -1.345 L -13.012,0 h 1.25 c 0.127,0 0.235,-0.031 0.322,-0.093 0.087,-0.061 0.146,-0.145 0.175,-0.251 l 1.722,-5.885 c 0.033,-0.126 0.065,-0.265 0.095,-0.414 0.03,-0.148 0.059,-0.303 0.089,-0.465 0.03,0.162 0.063,0.318 0.099,0.468 0.036,0.152 0.075,0.288 0.118,0.411 l 1.97,5.885 c 0.029,0.085 0.089,0.163 0.178,0.236 C -6.904,-0.036 -6.798,0 -6.675,0 h 0.434 c 0.131,0 0.238,-0.033 0.319,-0.099 0.08,-0.066 0.142,-0.148 0.184,-0.245 l 1.964,-5.885 c 0.042,-0.123 0.082,-0.255 0.118,-0.398 0.036,-0.143 0.069,-0.292 0.098,-0.449 0.03,0.157 0.059,0.306 0.087,0.449 0.027,0.143 0.058,0.275 0.092,0.398 l 1.715,5.885 c 0.025,0.093 0.084,0.174 0.175,0.242 C -1.397,-0.034 -1.29,0 -1.167,0 Z"
                 style="fill:#ffffff;fill-opacity:1;fill-rule:nonzero;stroke:none"
                 id="path106" />
            </g>
            <g
               id="g108"
               transform="translate(120.0338,7.72)">
              <path
                 d="m 0,0 c -0.047,-0.077 -0.096,-0.133 -0.146,-0.169 -0.051,-0.036 -0.116,-0.054 -0.192,-0.054 -0.081,0 -0.171,0.034 -0.27,0.102 -0.1,0.068 -0.224,0.143 -0.37,0.226 -0.147,0.083 -0.32,0.16 -0.52,0.229 -0.2,0.071 -0.438,0.106 -0.714,0.106 -0.255,0 -0.479,-0.032 -0.672,-0.096 C -3.078,0.28 -3.24,0.191 -3.372,0.077 c -0.132,-0.115 -0.231,-0.25 -0.296,-0.406 -0.066,-0.154 -0.099,-0.323 -0.099,-0.506 0,-0.234 0.061,-0.428 0.184,-0.583 0.124,-0.156 0.287,-0.289 0.488,-0.399 0.202,-0.111 0.433,-0.207 0.692,-0.29 0.259,-0.083 0.524,-0.171 0.794,-0.265 0.27,-0.093 0.534,-0.199 0.794,-0.318 0.258,-0.12 0.489,-0.27 0.691,-0.453 0.201,-0.183 0.364,-0.406 0.487,-0.67 0.123,-0.262 0.186,-0.583 0.186,-0.961 0,-0.409 -0.07,-0.791 -0.211,-1.148 -0.141,-0.357 -0.343,-0.669 -0.609,-0.934 -0.265,-0.266 -0.592,-0.475 -0.981,-0.628 -0.389,-0.153 -0.832,-0.23 -1.33,-0.23 -0.293,0 -0.579,0.029 -0.857,0.086 -0.278,0.058 -0.544,0.139 -0.797,0.242 -0.253,0.105 -0.49,0.232 -0.711,0.38 -0.22,0.149 -0.418,0.315 -0.593,0.497 l 0.434,0.714 c 0.038,0.06 0.087,0.107 0.147,0.141 0.059,0.034 0.125,0.05 0.197,0.05 0.098,0 0.206,-0.045 0.325,-0.136 0.119,-0.092 0.263,-0.192 0.431,-0.3 0.168,-0.108 0.37,-0.208 0.609,-0.3 0.237,-0.092 0.522,-0.137 0.854,-0.137 0.54,0 0.957,0.132 1.252,0.395 0.296,0.264 0.443,0.627 0.443,1.091 0,0.259 -0.061,0.47 -0.184,0.634 -0.124,0.164 -0.286,0.3 -0.488,0.411 -0.202,0.11 -0.433,0.204 -0.692,0.28 -0.259,0.077 -0.522,0.159 -0.79,0.246 -0.268,0.087 -0.532,0.189 -0.791,0.306 -0.259,0.116 -0.49,0.27 -0.691,0.459 -0.203,0.189 -0.365,0.423 -0.488,0.701 -0.123,0.278 -0.185,0.626 -0.185,1.042 0,0.332 0.065,0.653 0.195,0.963 0.129,0.31 0.318,0.585 0.567,0.825 0.249,0.241 0.556,0.433 0.921,0.578 0.366,0.144 0.782,0.216 1.249,0.216 0.527,0 1.011,-0.083 1.451,-0.249 C -0.335,1.256 0.045,1.02 0.363,0.714 Z"
                 style="fill:#ffffff;fill-opacity:1;fill-rule:nonzero;stroke:none"
                 id="path110" />
            </g>
            <g
               id="g112"
               transform="translate(128.5845,2.1546)">
              <path
                 d="m 0,0 c 0.08,0 0.15,-0.031 0.21,-0.096 l 0.593,-0.643 c -0.374,-0.45 -0.833,-0.798 -1.377,-1.042 -0.544,-0.245 -1.195,-0.367 -1.951,-0.367 -0.671,0 -1.278,0.116 -1.82,0.347 -0.542,0.232 -1.004,0.555 -1.386,0.969 -0.383,0.415 -0.677,0.909 -0.883,1.482 -0.206,0.575 -0.31,1.205 -0.31,1.893 0,0.689 0.11,1.321 0.328,1.897 0.219,0.576 0.528,1.071 0.925,1.486 0.398,0.414 0.873,0.736 1.428,0.966 0.555,0.229 1.166,0.344 1.833,0.344 0.663,0 1.248,-0.108 1.756,-0.322 C -0.146,6.699 0.295,6.413 0.669,6.056 L 0.178,5.361 C 0.144,5.314 0.104,5.274 0.057,5.24 0.01,5.206 -0.054,5.189 -0.135,5.189 c -0.085,0 -0.181,0.04 -0.29,0.118 -0.108,0.079 -0.246,0.166 -0.414,0.261 -0.168,0.096 -0.378,0.183 -0.631,0.262 -0.253,0.079 -0.568,0.118 -0.947,0.118 -0.437,0 -0.839,-0.076 -1.204,-0.23 C -3.987,5.565 -4.302,5.342 -4.565,5.049 -4.828,4.756 -5.033,4.399 -5.18,3.978 -5.327,3.557 -5.4,3.079 -5.4,2.543 c 0,-0.539 0.077,-1.021 0.229,-1.443 0.153,-0.423 0.363,-0.78 0.632,-1.071 0.268,-0.292 0.582,-0.513 0.943,-0.667 0.362,-0.152 0.75,-0.229 1.166,-0.229 0.255,0 0.484,0.014 0.686,0.042 0.202,0.027 0.388,0.072 0.557,0.134 0.17,0.061 0.332,0.138 0.482,0.232 0.151,0.094 0.301,0.208 0.449,0.345 C -0.171,-0.038 -0.086,0 0,0"
                 style="fill:#ffffff;fill-opacity:1;fill-rule:nonzero;stroke:none"
                 id="path114" />
            </g>
            <g
               id="g116"
               transform="translate(137.5592,4.6981)">
              <path
                 d="M 0,0 C 0,0.527 -0.071,1.001 -0.214,1.422 -0.356,1.843 -0.561,2.2 -0.826,2.493 -1.092,2.786 -1.413,3.011 -1.792,3.168 -2.17,3.326 -2.595,3.404 -3.066,3.404 -3.534,3.404 -3.957,3.326 -4.335,3.168 -4.714,3.011 -5.036,2.786 -5.305,2.493 -5.572,2.2 -5.778,1.843 -5.923,1.422 -6.067,1.001 -6.14,0.527 -6.14,0 c 0,-0.531 0.073,-1.007 0.217,-1.427 0.145,-0.421 0.351,-0.778 0.618,-1.069 0.269,-0.291 0.591,-0.513 0.97,-0.669 0.378,-0.155 0.801,-0.233 1.269,-0.233 0.471,0 0.896,0.078 1.274,0.233 0.379,0.156 0.7,0.378 0.966,0.669 0.265,0.291 0.47,0.648 0.612,1.069 C -0.071,-1.007 0,-0.531 0,0 m 1.523,0 c 0,-0.68 -0.11,-1.306 -0.332,-1.88 -0.22,-0.574 -0.532,-1.068 -0.933,-1.483 -0.402,-0.414 -0.884,-0.738 -1.447,-0.971 -0.563,-0.235 -1.189,-0.351 -1.877,-0.351 -0.685,0 -1.309,0.116 -1.871,0.351 -0.564,0.233 -1.047,0.557 -1.451,0.971 -0.404,0.415 -0.716,0.909 -0.937,1.483 -0.221,0.574 -0.331,1.2 -0.331,1.88 0,0.68 0.11,1.307 0.331,1.881 0.221,0.574 0.533,1.069 0.937,1.485 0.404,0.417 0.887,0.742 1.451,0.975 0.562,0.234 1.186,0.351 1.871,0.351 0.688,0 1.314,-0.117 1.877,-0.351 C -0.626,4.108 -0.144,3.783 0.258,3.366 0.659,2.95 0.971,2.455 1.191,1.881 1.413,1.307 1.523,0.68 1.523,0"
                 style="fill:#ffffff;fill-opacity:1;fill-rule:nonzero;stroke:none"
                 id="path118" />
            </g>
            <g
               id="g120"
               transform="translate(148.3326,9.2884)">
              <path
                 d="m 0,0 v -9.18 h -0.759 c -0.114,0 -0.213,0.02 -0.293,0.061 -0.081,0.04 -0.157,0.107 -0.229,0.2 l -5.043,6.477 c 0.012,-0.123 0.022,-0.245 0.029,-0.367 0.006,-0.121 0.009,-0.232 0.009,-0.334 V -9.18 H -7.599 V 0 h 0.778 c 0.063,0 0.118,-0.003 0.162,-0.01 0.045,-0.006 0.087,-0.018 0.125,-0.035 0.038,-0.017 0.074,-0.042 0.108,-0.076 0.033,-0.034 0.07,-0.077 0.109,-0.128 l 5.048,-6.482 c -0.012,0.13 -0.022,0.26 -0.029,0.388 -0.006,0.127 -0.009,0.246 -0.009,0.357 V 0 Z"
                 style="fill:#ffffff;fill-opacity:1;fill-rule:nonzero;stroke:none"
                 id="path122" />
            </g>
            <g
               id="g124"
               transform="translate(155.2974,7.72)">
              <path
                 d="m 0,0 c -0.047,-0.077 -0.096,-0.133 -0.146,-0.169 -0.051,-0.036 -0.116,-0.054 -0.192,-0.054 -0.081,0 -0.171,0.034 -0.27,0.102 -0.101,0.068 -0.224,0.143 -0.371,0.226 -0.146,0.083 -0.319,0.16 -0.519,0.229 -0.2,0.071 -0.438,0.106 -0.714,0.106 -0.255,0 -0.479,-0.032 -0.673,-0.096 C -3.078,0.28 -3.24,0.191 -3.372,0.077 c -0.132,-0.115 -0.231,-0.25 -0.297,-0.406 -0.065,-0.154 -0.099,-0.323 -0.099,-0.506 0,-0.234 0.062,-0.428 0.185,-0.583 0.124,-0.156 0.286,-0.289 0.488,-0.399 0.201,-0.111 0.433,-0.207 0.692,-0.29 0.258,-0.083 0.523,-0.171 0.794,-0.265 0.269,-0.093 0.534,-0.199 0.794,-0.318 0.258,-0.12 0.489,-0.27 0.691,-0.453 0.201,-0.183 0.364,-0.406 0.487,-0.67 0.123,-0.262 0.186,-0.583 0.186,-0.961 0,-0.409 -0.07,-0.791 -0.211,-1.148 -0.141,-0.357 -0.343,-0.669 -0.609,-0.934 -0.265,-0.266 -0.592,-0.475 -0.982,-0.628 -0.389,-0.153 -0.832,-0.23 -1.329,-0.23 -0.293,0 -0.579,0.029 -0.857,0.086 -0.279,0.058 -0.544,0.139 -0.797,0.242 -0.253,0.105 -0.49,0.232 -0.711,0.38 -0.221,0.149 -0.418,0.315 -0.593,0.497 l 0.434,0.714 c 0.038,0.06 0.086,0.107 0.146,0.141 0.06,0.034 0.126,0.05 0.198,0.05 0.098,0 0.206,-0.045 0.325,-0.136 0.119,-0.092 0.262,-0.192 0.43,-0.3 0.168,-0.108 0.371,-0.208 0.61,-0.3 0.237,-0.092 0.522,-0.137 0.853,-0.137 0.54,0 0.958,0.132 1.253,0.395 0.296,0.264 0.443,0.627 0.443,1.091 0,0.259 -0.061,0.47 -0.184,0.634 -0.124,0.164 -0.286,0.3 -0.489,0.411 -0.202,0.11 -0.432,0.204 -0.691,0.28 -0.26,0.077 -0.522,0.159 -0.791,0.246 -0.268,0.087 -0.531,0.189 -0.79,0.306 -0.26,0.116 -0.49,0.27 -0.691,0.459 -0.203,0.189 -0.366,0.423 -0.489,0.701 -0.123,0.278 -0.184,0.626 -0.184,1.042 0,0.332 0.064,0.653 0.194,0.963 0.13,0.31 0.318,0.585 0.567,0.825 0.25,0.241 0.556,0.433 0.921,0.578 0.367,0.144 0.783,0.216 1.25,0.216 0.527,0 1.011,-0.083 1.451,-0.249 C -0.335,1.256 0.045,1.02 0.363,0.714 Z"
                 style="fill:#ffffff;fill-opacity:1;fill-rule:nonzero;stroke:none"
                 id="path126" />
            </g>
            <g
               id="g128"
               transform="translate(168.7359,9.2884)">
              <path
                 d="m 0,0 v -9.18 h -0.759 c -0.114,0 -0.213,0.02 -0.293,0.061 -0.081,0.04 -0.157,0.107 -0.229,0.2 l -5.043,6.477 c 0.012,-0.123 0.022,-0.245 0.029,-0.367 0.006,-0.121 0.009,-0.232 0.009,-0.334 V -9.18 H -7.599 V 0 h 0.778 c 0.063,0 0.118,-0.003 0.162,-0.01 0.045,-0.006 0.087,-0.018 0.125,-0.035 0.038,-0.017 0.074,-0.042 0.108,-0.076 0.033,-0.034 0.07,-0.077 0.109,-0.128 l 5.048,-6.482 c -0.012,0.13 -0.022,0.26 -0.029,0.388 -0.006,0.127 -0.009,0.246 -0.009,0.357 V 0 Z"
                 style="fill:#ffffff;fill-opacity:1;fill-rule:nonzero;stroke:none"
                 id="path130" />
            </g>
            <path
               d="m 170.748,4.992 h 5.139 V 4.004 h -5.139 z"
               style="fill:#ffffff;fill-opacity:1;fill-rule:nonzero;stroke:none"
               id="path132" />
            <g
               id="g134"
               transform="translate(187.6578,9.2884)">
              <path
                 d="m 0,0 v -9.18 h -1.312 v 6.292 c 0,0.102 0.002,0.214 0.008,0.335 0.007,0.121 0.017,0.243 0.03,0.366 l -2.953,-5.45 c -0.114,-0.225 -0.291,-0.338 -0.528,-0.338 h -0.211 c -0.242,0 -0.419,0.113 -0.529,0.338 l -2.996,5.463 c 0.012,-0.123 0.022,-0.246 0.029,-0.37 0.006,-0.123 0.009,-0.238 0.009,-0.344 V -9.18 H -9.766 V 0 h 1.116 c 0.131,0 0.233,-0.012 0.305,-0.035 0.073,-0.024 0.139,-0.095 0.199,-0.214 l 2.945,-5.335 c 0.063,-0.124 0.124,-0.25 0.181,-0.38 0.057,-0.13 0.11,-0.263 0.157,-0.398 0.051,0.135 0.104,0.271 0.162,0.405 0.057,0.134 0.118,0.262 0.181,0.385 l 2.901,5.323 c 0.059,0.119 0.126,0.19 0.198,0.214 C -1.349,-0.012 -1.247,0 -1.115,0 Z"
                 style="fill:#ffffff;fill-opacity:1;fill-rule:nonzero;stroke:none"
                 id="path136" />
            </g>
            <g
               id="g138"
               transform="translate(194.7652,3.5511)">
              <path
                 d="M 0,0 -1.263,3.353 C -1.364,3.612 -1.469,3.941 -1.575,4.341 -1.621,4.141 -1.673,3.958 -1.728,3.79 -1.783,3.622 -1.834,3.474 -1.881,3.347 L -3.143,0 Z M 2.824,-3.442 H 1.67 c -0.132,0 -0.238,0.032 -0.318,0.098 -0.081,0.066 -0.143,0.148 -0.186,0.245 L 0.401,-1.071 H -3.551 L -4.316,-3.099 C -4.35,-3.184 -4.409,-3.262 -4.494,-3.334 -4.579,-3.406 -4.686,-3.442 -4.813,-3.442 h -1.154 l 3.64,9.179 h 1.511 z"
                 style="fill:#ffffff;fill-opacity:1;fill-rule:nonzero;stroke:none"
                 id="path140" />
            </g>
            <g
               id="g142"
               transform="translate(205.2584,4.6981)">
              <path
                 d="M 0,0 C 0,0.527 -0.071,1.001 -0.213,1.422 -0.355,1.843 -0.56,2.197 -0.825,2.486 -1.091,2.775 -1.413,2.998 -1.791,3.153 -2.17,3.308 -2.595,3.385 -3.066,3.385 h -1.97 v -6.769 h 1.97 c 0.471,0 0.896,0.076 1.275,0.229 0.378,0.153 0.7,0.375 0.966,0.666 0.265,0.291 0.47,0.646 0.612,1.065 C -0.071,-1.006 0,-0.531 0,0 m 1.523,0 c 0,-0.68 -0.11,-1.301 -0.331,-1.865 -0.22,-0.562 -0.532,-1.046 -0.933,-1.45 -0.403,-0.403 -0.885,-0.717 -1.447,-0.94 -0.564,-0.223 -1.19,-0.334 -1.878,-0.334 H -6.534 V 4.59 h 3.468 c 0.688,0 1.314,-0.111 1.878,-0.335 C -0.626,4.032 -0.144,3.719 0.259,3.315 0.66,2.911 0.972,2.428 1.192,1.865 1.413,1.302 1.523,0.68 1.523,0"
                 style="fill:#ffffff;fill-opacity:1;fill-rule:nonzero;stroke:none"
                 id="path144" />
            </g>
            <g
               id="g146"
               transform="translate(216.9195,7.72)">
              <path
                 d="m 0,0 c -0.047,-0.077 -0.096,-0.133 -0.146,-0.169 -0.051,-0.036 -0.116,-0.054 -0.192,-0.054 -0.081,0 -0.171,0.034 -0.27,0.102 -0.101,0.068 -0.224,0.143 -0.371,0.226 -0.146,0.083 -0.319,0.16 -0.519,0.229 -0.2,0.071 -0.438,0.106 -0.714,0.106 -0.255,0 -0.479,-0.032 -0.673,-0.096 C -3.078,0.28 -3.24,0.191 -3.372,0.077 c -0.132,-0.115 -0.231,-0.25 -0.297,-0.406 -0.065,-0.154 -0.099,-0.323 -0.099,-0.506 0,-0.234 0.062,-0.428 0.185,-0.583 0.124,-0.156 0.286,-0.289 0.488,-0.399 0.201,-0.111 0.433,-0.207 0.692,-0.29 0.258,-0.083 0.523,-0.171 0.794,-0.265 0.269,-0.093 0.534,-0.199 0.794,-0.318 0.258,-0.12 0.489,-0.27 0.691,-0.453 0.201,-0.183 0.364,-0.406 0.487,-0.67 0.123,-0.262 0.186,-0.583 0.186,-0.961 0,-0.409 -0.07,-0.791 -0.211,-1.148 -0.141,-0.357 -0.343,-0.669 -0.609,-0.934 -0.265,-0.266 -0.592,-0.475 -0.982,-0.628 -0.389,-0.153 -0.832,-0.23 -1.329,-0.23 -0.293,0 -0.579,0.029 -0.857,0.086 -0.279,0.058 -0.544,0.139 -0.797,0.242 -0.253,0.105 -0.49,0.232 -0.711,0.38 -0.221,0.149 -0.418,0.315 -0.593,0.497 l 0.434,0.714 c 0.038,0.06 0.086,0.107 0.146,0.141 0.06,0.034 0.126,0.05 0.198,0.05 0.098,0 0.206,-0.045 0.325,-0.136 0.119,-0.092 0.262,-0.192 0.43,-0.3 0.168,-0.108 0.371,-0.208 0.61,-0.3 0.237,-0.092 0.522,-0.137 0.853,-0.137 0.54,0 0.958,0.132 1.253,0.395 0.296,0.264 0.443,0.627 0.443,1.091 0,0.259 -0.061,0.47 -0.184,0.634 -0.124,0.164 -0.286,0.3 -0.489,0.411 -0.202,0.11 -0.432,0.204 -0.691,0.28 -0.26,0.077 -0.522,0.159 -0.791,0.246 -0.268,0.087 -0.531,0.189 -0.79,0.306 -0.26,0.116 -0.49,0.27 -0.691,0.459 -0.203,0.189 -0.366,0.423 -0.489,0.701 -0.123,0.278 -0.184,0.626 -0.184,1.042 0,0.332 0.064,0.653 0.194,0.963 0.13,0.31 0.318,0.585 0.567,0.825 0.25,0.241 0.556,0.433 0.921,0.578 0.367,0.144 0.783,0.216 1.25,0.216 0.527,0 1.011,-0.083 1.451,-0.249 C -0.335,1.256 0.045,1.02 0.363,0.714 Z"
                 style="fill:#ffffff;fill-opacity:1;fill-rule:nonzero;stroke:none"
                 id="path148" />
            </g>
            <g
               id="g150"
               transform="translate(226.19,4.6981)">
              <path
                 d="M 0,0 C 0,0.527 -0.071,1.001 -0.214,1.422 -0.356,1.843 -0.561,2.2 -0.826,2.493 -1.092,2.786 -1.413,3.011 -1.792,3.168 -2.17,3.326 -2.595,3.404 -3.066,3.404 -3.534,3.404 -3.957,3.326 -4.335,3.168 -4.714,3.011 -5.036,2.786 -5.305,2.493 -5.572,2.2 -5.778,1.843 -5.923,1.422 -6.067,1.001 -6.14,0.527 -6.14,0 c 0,-0.531 0.073,-1.007 0.217,-1.427 0.145,-0.421 0.351,-0.778 0.618,-1.069 0.269,-0.291 0.591,-0.513 0.97,-0.669 0.378,-0.155 0.801,-0.233 1.269,-0.233 0.471,0 0.896,0.078 1.274,0.233 0.379,0.156 0.7,0.378 0.966,0.669 0.265,0.291 0.47,0.648 0.612,1.069 C -0.071,-1.007 0,-0.531 0,0 m 1.523,0 c 0,-0.68 -0.11,-1.306 -0.332,-1.88 -0.22,-0.574 -0.532,-1.068 -0.933,-1.483 -0.402,-0.414 -0.884,-0.738 -1.447,-0.971 -0.563,-0.235 -1.189,-0.351 -1.877,-0.351 -0.685,0 -1.309,0.116 -1.871,0.351 -0.564,0.233 -1.047,0.557 -1.451,0.971 -0.404,0.415 -0.716,0.909 -0.937,1.483 -0.221,0.574 -0.331,1.2 -0.331,1.88 0,0.68 0.11,1.307 0.331,1.881 0.221,0.574 0.533,1.069 0.937,1.485 0.404,0.417 0.887,0.742 1.451,0.975 0.562,0.234 1.186,0.351 1.871,0.351 0.688,0 1.314,-0.117 1.877,-0.351 C -0.626,4.108 -0.144,3.783 0.258,3.366 0.659,2.95 0.971,2.455 1.191,1.881 1.413,1.307 1.523,0.68 1.523,0"
                 style="fill:#ffffff;fill-opacity:1;fill-rule:nonzero;stroke:none"
                 id="path152" />
            </g>
            <g
               id="g154"
               transform="translate(236.9635,9.2884)">
              <path
                 d="m 0,0 v -9.18 h -0.758 c -0.115,0 -0.213,0.02 -0.294,0.061 -0.08,0.04 -0.157,0.107 -0.229,0.2 l -5.042,6.477 c 0.012,-0.123 0.021,-0.245 0.028,-0.367 0.007,-0.121 0.01,-0.232 0.01,-0.334 V -9.18 H -7.599 V 0 h 0.778 c 0.064,0 0.118,-0.003 0.163,-0.01 0.045,-0.006 0.086,-0.018 0.124,-0.035 0.038,-0.017 0.074,-0.042 0.108,-0.076 0.034,-0.034 0.071,-0.077 0.109,-0.128 l 5.048,-6.482 c -0.012,0.13 -0.022,0.26 -0.028,0.388 -0.007,0.127 -0.01,0.246 -0.01,0.357 V 0 Z"
                 style="fill:#ffffff;fill-opacity:1;fill-rule:nonzero;stroke:none"
                 id="path156" />
            </g>
            <g
               id="g158"
               transform="translate(20.8013,0.1087)">
              <path
                 d="M 0,0 H -0.187 -0.375 -0.562 -0.749 -0.937 -1.124 -1.311 -1.498 V 0.573 1.147 1.721 2.295 2.868 3.442 4.016 4.59 5.164 5.737 6.311 6.885 7.458 8.032 8.606 9.18 h 0.187 0.187 0.187 0.188 0.187 0.187 0.188 H 0 V 8.606 8.032 7.458 6.885 6.311 5.737 5.164 4.59 4.016 3.442 2.868 2.295 1.721 1.147 0.573 Z"
                 style="fill:#ffffff;fill-opacity:1;fill-rule:nonzero;stroke:none"
                 id="path160" />
            </g>
          </g>
        </g>
        <g
           id="g162"
           transform="translate(-56.11,30)">
          <g
             id="g164"
             transform="translate(7.5474,12.9719)">
            <path
               d="M 0,0 C 0,1.056 -0.144,2 -0.432,2.832 -0.72,3.664 -1.127,4.368 -1.656,4.944 -2.184,5.52 -2.824,5.96 -3.576,6.264 -4.328,6.568 -5.164,6.72 -6.083,6.72 h -4.093 V -6.708 h 4.093 c 0.919,0 1.755,0.152 2.507,0.456 0.752,0.304 1.392,0.742 1.92,1.315 0.529,0.571 0.936,1.273 1.224,2.105 C -0.144,-2 0,-1.056 0,0 m 2.389,0 c 0,-1.288 -0.204,-2.46 -0.613,-3.516 -0.408,-1.056 -0.984,-1.96 -1.727,-2.712 -0.745,-0.751 -1.636,-1.334 -2.676,-1.746 -1.04,-0.412 -2.193,-0.618 -3.456,-0.618 h -6.433 V 8.604 h 6.433 c 1.263,0 2.416,-0.206 3.456,-0.618 C -1.587,7.574 -0.696,6.99 0.049,6.234 0.792,5.478 1.368,4.572 1.776,3.516 2.185,2.46 2.389,1.288 2.389,0"
               style="fill:#ffffff;fill-opacity:1;fill-rule:nonzero;stroke:none"
               id="path166" />
          </g>
          <g
             id="g168"
             transform="translate(17.6289,15.156)">
            <path
               d="M 0,0 C -1.032,0 -1.845,-0.298 -2.437,-0.894 -3.028,-1.49 -3.396,-2.316 -3.54,-3.372 h 6.611 c 0,0.496 -0.067,0.95 -0.203,1.362 -0.137,0.412 -0.337,0.768 -0.6,1.068 -0.264,0.3 -0.586,0.532 -0.966,0.696 C 0.922,-0.082 0.487,0 0,0 M -0.048,1.572 C 0.68,1.572 1.352,1.45 1.968,1.206 2.584,0.962 3.115,0.61 3.563,0.15 4.012,-0.31 4.361,-0.878 4.613,-1.554 4.865,-2.23 4.991,-3 4.991,-3.864 4.991,-4.2 4.956,-4.424 4.884,-4.536 4.812,-4.648 4.676,-4.704 4.476,-4.704 h -8.088 c 0.015,-0.768 0.12,-1.436 0.311,-2.004 0.193,-0.568 0.456,-1.042 0.792,-1.422 0.337,-0.38 0.737,-0.664 1.2,-0.852 0.464,-0.188 0.985,-0.282 1.561,-0.282 0.535,0 0.998,0.062 1.386,0.186 0.387,0.124 0.721,0.258 1.002,0.402 0.28,0.144 0.513,0.278 0.702,0.402 0.187,0.124 0.349,0.186 0.486,0.186 0.176,0 0.312,-0.068 0.407,-0.204 l 0.601,-0.78 C 4.571,-9.392 4.256,-9.67 3.888,-9.906 3.52,-10.142 3.126,-10.336 2.706,-10.488 2.286,-10.64 1.852,-10.754 1.403,-10.83 c -0.447,-0.076 -0.891,-0.114 -1.332,-0.114 -0.84,0 -1.613,0.142 -2.321,0.426 -0.708,0.284 -1.32,0.7 -1.836,1.248 -0.517,0.548 -0.918,1.226 -1.206,2.034 -0.288,0.808 -0.433,1.736 -0.433,2.784 0,0.848 0.13,1.64 0.391,2.376 0.26,0.736 0.634,1.374 1.122,1.914 0.487,0.54 1.084,0.964 1.788,1.272 0.703,0.308 1.495,0.462 2.376,0.462"
               style="fill:#ffffff;fill-opacity:1;fill-rule:nonzero;stroke:none"
               id="path170" />
          </g>
          <g
             id="g172"
             transform="translate(30.7559,15.0241)">
            <path
               d="M 0,0 C -0.696,0 -1.307,-0.16 -1.83,-0.48 -2.354,-0.8 -2.836,-1.252 -3.276,-1.836 v -5.88 c 0.392,-0.528 0.822,-0.9 1.29,-1.116 0.468,-0.216 0.99,-0.324 1.566,-0.324 1.128,0 1.996,0.405 2.604,1.212 0.608,0.808 0.912,1.96 0.912,3.456 0,0.792 -0.071,1.472 -0.21,2.04 C 2.746,-1.88 2.544,-1.414 2.28,-1.05 2.016,-0.686 1.692,-0.42 1.308,-0.252 0.924,-0.084 0.488,0 0,0 M -5.412,-14.76 V 1.512 h 1.272 c 0.304,0 0.495,-0.148 0.576,-0.444 l 0.18,-1.44 c 0.52,0.632 1.113,1.14 1.781,1.524 0.668,0.384 1.439,0.576 2.311,0.576 0.696,0 1.328,-0.134 1.896,-0.402 0.568,-0.268 1.052,-0.664 1.452,-1.188 0.4,-0.524 0.708,-1.174 0.923,-1.95 0.217,-0.776 0.325,-1.668 0.325,-2.676 0,-0.896 -0.12,-1.73 -0.36,-2.502 C 4.704,-7.762 4.36,-8.43 3.912,-8.994 3.464,-9.558 2.914,-10.001 2.262,-10.326 1.609,-10.65 0.876,-10.812 0.06,-10.812 c -0.752,0 -1.394,0.124 -1.926,0.372 -0.532,0.248 -1.002,0.6 -1.41,1.056 v -5.376 z"
               style="fill:#ffffff;fill-opacity:1;fill-rule:nonzero;stroke:none"
               id="path174" />
          </g>
          <g
             id="g176"
             transform="translate(41.976,5.6887)">
            <path
               d="m 0,0 c 0.376,0 0.721,0.038 1.032,0.113 0.313,0.076 0.607,0.185 0.882,0.324 0.276,0.14 0.54,0.311 0.792,0.51 0.252,0.2 0.498,0.429 0.738,0.685 V 4.14 C 2.46,4.14 1.624,4.078 0.937,3.952 0.248,3.827 -0.312,3.665 -0.744,3.464 -1.176,3.263 -1.49,3.024 -1.686,2.752 -1.882,2.478 -1.979,2.172 -1.979,1.834 c 0,-0.321 0.051,-0.6 0.155,-0.833 C -1.72,0.768 -1.58,0.576 -1.403,0.428 -1.228,0.278 -1.02,0.171 -0.779,0.103 -0.54,0.033 -0.28,0 0,0 M 5.544,-1.309 H 4.597 c -0.209,0 -0.377,0.033 -0.505,0.097 C 3.964,-1.148 3.88,-1.013 3.84,-0.805 L 3.601,0.323 C 3.28,0.035 2.968,-0.223 2.664,-0.45 2.36,-0.679 2.04,-0.87 1.704,-1.026 1.368,-1.183 1.01,-1.301 0.63,-1.381 0.25,-1.46 -0.172,-1.5 -0.636,-1.5 c -0.471,0 -0.914,0.065 -1.326,0.197 -0.412,0.134 -0.769,0.332 -1.074,0.597 -0.304,0.266 -0.546,0.602 -0.726,1.006 -0.179,0.406 -0.27,0.885 -0.27,1.438 0,0.482 0.133,0.946 0.396,1.392 0.264,0.444 0.691,0.841 1.279,1.185 0.587,0.346 1.357,0.629 2.309,0.85 0.952,0.22 2.116,0.331 3.492,0.331 V 6.45 C 3.444,7.399 3.242,8.118 2.838,8.604 2.435,9.092 1.836,9.335 1.044,9.335 0.524,9.335 0.086,9.27 -0.27,9.138 -0.626,9.006 -0.934,8.857 -1.193,8.694 -1.454,8.53 -1.678,8.382 -1.866,8.25 -2.054,8.118 -2.24,8.052 -2.424,8.052 -2.567,8.052 -2.693,8.09 -2.802,8.166 -2.91,8.242 -2.996,8.335 -3.06,8.448 l -0.383,0.684 c 0.672,0.648 1.395,1.132 2.172,1.451 0.775,0.321 1.635,0.48 2.58,0.48 0.679,0 1.283,-0.111 1.811,-0.335 C 3.648,10.503 4.092,10.191 4.452,9.792 4.812,9.392 5.084,8.908 5.269,8.34 5.452,7.771 5.544,7.147 5.544,6.468 Z"
               style="fill:#ffffff;fill-opacity:1;fill-rule:nonzero;stroke:none"
               id="path178" />
          </g>
          <g
             id="g180"
             transform="translate(50.3038,4.3801)">
            <path
               d="m 0,0 v 12.156 h 1.224 c 0.232,0 0.392,-0.044 0.48,-0.132 0.088,-0.088 0.148,-0.24 0.18,-0.456 L 2.028,9.672 c 0.416,0.848 0.93,1.51 1.542,1.986 0.612,0.476 1.33,0.714 2.154,0.714 0.336,0 0.64,-0.038 0.912,-0.114 C 6.908,12.182 7.16,12.076 7.392,11.94 L 7.116,10.344 c -0.056,-0.2 -0.179,-0.3 -0.372,-0.3 -0.112,0 -0.284,0.038 -0.515,0.114 C 5.996,10.234 5.672,10.272 5.256,10.272 4.512,10.272 3.89,10.056 3.39,9.624 2.89,9.192 2.472,8.564 2.136,7.74 V 0 Z"
               style="fill:#ffffff;fill-opacity:1;fill-rule:nonzero;stroke:none"
               id="path182" />
          </g>
          <g
             id="g184"
             transform="translate(63.659,4.1887)">
            <path
               d="M 0,0 C -0.96,0 -1.697,0.268 -2.214,0.804 -2.729,1.34 -2.987,2.111 -2.987,3.119 v 7.441 h -1.464 c -0.129,0 -0.236,0.038 -0.324,0.114 -0.088,0.076 -0.132,0.194 -0.132,0.354 v 0.851 l 1.991,0.253 0.492,3.756 c 0.017,0.12 0.069,0.217 0.156,0.294 0.088,0.076 0.201,0.113 0.336,0.113 h 1.08 V 12.107 H 2.629 V 10.56 H -0.852 V 3.264 c 0,-0.512 0.124,-0.892 0.373,-1.14 0.248,-0.248 0.568,-0.372 0.959,-0.372 0.224,0 0.418,0.029 0.582,0.09 0.165,0.059 0.306,0.126 0.426,0.198 0.12,0.071 0.223,0.138 0.307,0.197 0.084,0.061 0.157,0.09 0.222,0.09 0.111,0 0.212,-0.067 0.299,-0.203 L 2.94,1.104 C 2.572,0.76 2.128,0.489 1.608,0.294 1.088,0.098 0.553,0 0,0"
               style="fill:#ffffff;fill-opacity:1;fill-rule:nonzero;stroke:none"
               id="path186" />
          </g>
          <g
             id="g188"
             transform="translate(68.9278,4.3801)">
            <path
               d="m 0,0 v 12.156 h 1.272 c 0.304,0 0.496,-0.148 0.576,-0.444 l 0.156,-1.248 c 0.448,0.552 0.95,1.004 1.506,1.356 0.556,0.352 1.202,0.528 1.938,0.528 0.823,0 1.489,-0.228 1.998,-0.684 0.508,-0.456 0.874,-1.072 1.098,-1.848 0.168,0.44 0.39,0.82 0.666,1.14 0.276,0.32 0.586,0.584 0.93,0.792 0.344,0.208 0.71,0.36 1.098,0.456 0.388,0.096 0.782,0.144 1.182,0.144 0.64,0 1.21,-0.102 1.71,-0.306 0.5,-0.204 0.924,-0.502 1.272,-0.894 C 15.75,10.756 16.016,10.274 16.2,9.702 16.384,9.13 16.476,8.476 16.476,7.74 V 0 H 14.34 v 7.74 c 0,0.952 -0.208,1.674 -0.624,2.166 -0.416,0.492 -1.02,0.738 -1.812,0.738 -0.352,0 -0.686,-0.062 -1.002,-0.186 C 10.586,10.334 10.308,10.152 10.068,9.912 9.828,9.672 9.638,9.37 9.498,9.006 9.358,8.642 9.288,8.22 9.288,7.74 V 0 H 7.152 v 7.74 c 0,0.976 -0.196,1.704 -0.588,2.184 -0.392,0.48 -0.964,0.72 -1.716,0.72 -0.528,0 -1.018,-0.142 -1.47,-0.426 C 2.926,9.934 2.512,9.548 2.136,9.06 V 0 Z"
               style="fill:#ffffff;fill-opacity:1;fill-rule:nonzero;stroke:none"
               id="path190" />
          </g>
          <g
             id="g192"
             transform="translate(93.4929,15.156)">
            <path
               d="M 0,0 C -1.032,0 -1.845,-0.298 -2.437,-0.894 -3.028,-1.49 -3.396,-2.316 -3.54,-3.372 h 6.611 c 0,0.496 -0.067,0.95 -0.203,1.362 -0.137,0.412 -0.337,0.768 -0.6,1.068 -0.264,0.3 -0.586,0.532 -0.966,0.696 C 0.922,-0.082 0.487,0 0,0 M -0.048,1.572 C 0.68,1.572 1.352,1.45 1.968,1.206 2.584,0.962 3.115,0.61 3.563,0.15 4.012,-0.31 4.361,-0.878 4.613,-1.554 4.865,-2.23 4.991,-3 4.991,-3.864 4.991,-4.2 4.956,-4.424 4.884,-4.536 4.812,-4.648 4.676,-4.704 4.476,-4.704 h -8.088 c 0.015,-0.768 0.12,-1.436 0.311,-2.004 0.193,-0.568 0.456,-1.042 0.792,-1.422 0.337,-0.38 0.737,-0.664 1.2,-0.852 0.464,-0.188 0.985,-0.282 1.561,-0.282 0.535,0 0.998,0.062 1.386,0.186 0.387,0.124 0.721,0.258 1.002,0.402 0.28,0.144 0.513,0.278 0.702,0.402 0.187,0.124 0.349,0.186 0.486,0.186 0.176,0 0.312,-0.068 0.407,-0.204 l 0.601,-0.78 C 4.571,-9.392 4.256,-9.67 3.888,-9.906 3.52,-10.142 3.126,-10.336 2.706,-10.488 2.286,-10.64 1.852,-10.754 1.403,-10.83 c -0.447,-0.076 -0.891,-0.114 -1.332,-0.114 -0.84,0 -1.613,0.142 -2.321,0.426 -0.708,0.284 -1.32,0.7 -1.836,1.248 -0.517,0.548 -0.918,1.226 -1.206,2.034 -0.288,0.808 -0.433,1.736 -0.433,2.784 0,0.848 0.13,1.64 0.391,2.376 0.26,0.736 0.634,1.374 1.122,1.914 0.487,0.54 1.084,0.964 1.788,1.272 0.703,0.308 1.495,0.462 2.376,0.462"
               style="fill:#ffffff;fill-opacity:1;fill-rule:nonzero;stroke:none"
               id="path194" />
          </g>
          <g
             id="g196"
             transform="translate(101.2078,4.3801)">
            <path
               d="m 0,0 v 12.156 h 1.272 c 0.304,0 0.496,-0.148 0.576,-0.444 l 0.168,-1.32 c 0.528,0.584 1.118,1.056 1.77,1.416 0.651,0.36 1.406,0.54 2.262,0.54 0.664,0 1.25,-0.11 1.758,-0.33 0.508,-0.22 0.932,-0.532 1.272,-0.936 0.34,-0.404 0.598,-0.89 0.774,-1.458 0.176,-0.568 0.264,-1.196 0.264,-1.884 V 0 H 7.98 v 7.74 c 0,0.92 -0.209,1.634 -0.63,2.142 -0.42,0.508 -1.062,0.762 -1.926,0.762 -0.632,0 -1.222,-0.152 -1.77,-0.456 C 3.106,9.884 2.6,9.472 2.136,8.952 V 0 Z"
               style="fill:#ffffff;fill-opacity:1;fill-rule:nonzero;stroke:none"
               id="path198" />
          </g>
          <g
             id="g200"
             transform="translate(118.235,4.1887)">
            <path
               d="M 0,0 C -0.96,0 -1.697,0.268 -2.214,0.804 -2.729,1.34 -2.987,2.111 -2.987,3.119 v 7.441 h -1.464 c -0.129,0 -0.236,0.038 -0.324,0.114 -0.088,0.076 -0.132,0.194 -0.132,0.354 v 0.851 l 1.991,0.253 0.492,3.756 c 0.017,0.12 0.069,0.217 0.156,0.294 0.088,0.076 0.201,0.113 0.336,0.113 h 1.08 V 12.107 H 2.629 V 10.56 H -0.852 V 3.264 c 0,-0.512 0.124,-0.892 0.373,-1.14 0.248,-0.248 0.568,-0.372 0.959,-0.372 0.224,0 0.418,0.029 0.582,0.09 0.165,0.059 0.306,0.126 0.426,0.198 0.12,0.071 0.223,0.138 0.307,0.197 0.084,0.061 0.157,0.09 0.222,0.09 0.111,0 0.212,-0.067 0.299,-0.203 L 2.94,1.104 C 2.572,0.76 2.128,0.489 1.608,0.294 1.088,0.098 0.553,0 0,0"
               style="fill:#ffffff;fill-opacity:1;fill-rule:nonzero;stroke:none"
               id="path202" />
          </g>
          <g
             id="g204"
             transform="translate(133.0559,5.8801)">
            <path
               d="M 0,0 C 1.2,0 2.096,0.402 2.688,1.206 3.28,2.01 3.576,3.132 3.576,4.572 3.576,6.02 3.28,7.148 2.688,7.956 2.096,8.764 1.2,9.168 0,9.168 -0.608,9.168 -1.136,9.064 -1.584,8.856 -2.032,8.648 -2.406,8.348 -2.706,7.956 -3.006,7.564 -3.229,7.082 -3.378,6.51 -3.526,5.938 -3.6,5.292 -3.6,4.572 -3.6,3.852 -3.526,3.208 -3.378,2.64 -3.229,2.072 -3.006,1.594 -2.706,1.206 -2.406,0.818 -2.032,0.521 -1.584,0.312 -1.136,0.104 -0.608,0 0,0 m 0,10.848 c 0.888,0 1.69,-0.148 2.406,-0.444 C 3.122,10.108 3.73,9.688 4.23,9.144 4.73,8.6 5.114,7.942 5.382,7.17 5.65,6.398 5.784,5.536 5.784,4.584 5.784,3.624 5.65,2.76 5.382,1.992 5.114,1.224 4.73,0.568 4.23,0.024 3.73,-0.52 3.122,-0.937 2.406,-1.229 1.69,-1.521 0.888,-1.668 0,-1.668 c -0.888,0 -1.69,0.147 -2.406,0.439 -0.716,0.292 -1.325,0.709 -1.83,1.253 -0.504,0.544 -0.892,1.2 -1.163,1.968 -0.273,0.768 -0.409,1.632 -0.409,2.592 0,0.952 0.136,1.814 0.409,2.586 0.271,0.772 0.659,1.43 1.163,1.974 0.505,0.544 1.114,0.964 1.83,1.26 0.716,0.296 1.518,0.444 2.406,0.444"
               style="fill:#ffffff;fill-opacity:1;fill-rule:nonzero;stroke:none"
               id="path206" />
          </g>
          <g
             id="g208"
             transform="translate(141.9607,4.3801)">
            <path
               d="m 0,0 v 10.332 l -1.345,0.156 c -0.168,0.04 -0.305,0.102 -0.414,0.186 -0.107,0.084 -0.162,0.206 -0.162,0.366 v 0.876 H 0 v 1.176 c 0,0.696 0.098,1.314 0.294,1.854 0.195,0.54 0.476,0.996 0.84,1.368 0.363,0.372 0.802,0.654 1.313,0.846 0.512,0.192 1.088,0.288 1.729,0.288 0.544,0 1.048,-0.08 1.511,-0.24 L 5.64,16.14 C 5.632,15.98 5.563,15.884 5.436,15.852 5.308,15.82 5.128,15.804 4.896,15.804 H 4.523 C 4.155,15.804 3.821,15.756 3.521,15.66 3.222,15.564 2.964,15.408 2.748,15.192 2.531,14.976 2.365,14.692 2.25,14.34 2.134,13.988 2.075,13.552 2.075,13.032 V 11.916 H 5.592 V 10.368 H 2.147 V 0 Z"
               style="fill:#ffffff;fill-opacity:1;fill-rule:nonzero;stroke:none"
               id="path210" />
          </g>
          <g
             id="g212"
             transform="translate(157.2959,4.3801)">
            <path
               d="m 0,0 h -2.328 v 5.911 3.292 7.993 H 0 Z"
               style="fill:#ffffff;fill-opacity:1;fill-rule:nonzero;stroke:none"
               id="path214" />
          </g>
          <g
             id="g216"
             transform="translate(161.5678,4.3801)">
            <path
               d="m 0,0 v 12.156 h 1.272 c 0.304,0 0.496,-0.148 0.576,-0.444 l 0.168,-1.32 c 0.528,0.584 1.118,1.056 1.77,1.416 0.651,0.36 1.406,0.54 2.262,0.54 0.664,0 1.25,-0.11 1.758,-0.33 0.508,-0.22 0.932,-0.532 1.272,-0.936 0.34,-0.404 0.598,-0.89 0.774,-1.458 0.176,-0.568 0.264,-1.196 0.264,-1.884 V 0 H 7.98 v 7.74 c 0,0.92 -0.209,1.634 -0.63,2.142 -0.42,0.508 -1.062,0.762 -1.926,0.762 -0.632,0 -1.222,-0.152 -1.77,-0.456 C 3.106,9.884 2.6,9.472 2.136,8.952 V 0 Z"
               style="fill:#ffffff;fill-opacity:1;fill-rule:nonzero;stroke:none"
               id="path218" />
          </g>
          <g
             id="g220"
             transform="translate(178.595,4.1887)">
            <path
               d="M 0,0 C -0.96,0 -1.697,0.268 -2.214,0.804 -2.729,1.34 -2.987,2.111 -2.987,3.119 v 7.441 h -1.464 c -0.129,0 -0.236,0.038 -0.324,0.114 -0.088,0.076 -0.132,0.194 -0.132,0.354 v 0.851 l 1.991,0.253 0.492,3.756 c 0.017,0.12 0.069,0.217 0.156,0.294 0.088,0.076 0.201,0.113 0.336,0.113 h 1.08 V 12.107 H 2.629 V 10.56 H -0.852 V 3.264 c 0,-0.512 0.124,-0.892 0.373,-1.14 0.248,-0.248 0.568,-0.372 0.959,-0.372 0.224,0 0.418,0.029 0.582,0.09 0.165,0.059 0.306,0.126 0.426,0.198 0.12,0.071 0.223,0.138 0.307,0.197 0.084,0.061 0.157,0.09 0.222,0.09 0.111,0 0.212,-0.067 0.299,-0.203 L 2.94,1.104 C 2.572,0.76 2.128,0.489 1.608,0.294 1.088,0.098 0.553,0 0,0"
               style="fill:#ffffff;fill-opacity:1;fill-rule:nonzero;stroke:none"
               id="path222" />
          </g>
          <g
             id="g224"
             transform="translate(188.7249,15.156)">
            <path
               d="M 0,0 C -1.032,0 -1.845,-0.298 -2.437,-0.894 -3.028,-1.49 -3.396,-2.316 -3.54,-3.372 h 6.611 c 0,0.496 -0.067,0.95 -0.203,1.362 -0.137,0.412 -0.337,0.768 -0.6,1.068 -0.264,0.3 -0.586,0.532 -0.966,0.696 C 0.922,-0.082 0.487,0 0,0 M -0.048,1.572 C 0.68,1.572 1.352,1.45 1.968,1.206 2.584,0.962 3.115,0.61 3.563,0.15 4.012,-0.31 4.361,-0.878 4.613,-1.554 4.865,-2.23 4.991,-3 4.991,-3.864 4.991,-4.2 4.956,-4.424 4.884,-4.536 4.812,-4.648 4.676,-4.704 4.476,-4.704 h -8.088 c 0.015,-0.768 0.12,-1.436 0.311,-2.004 0.193,-0.568 0.456,-1.042 0.792,-1.422 0.337,-0.38 0.737,-0.664 1.2,-0.852 0.464,-0.188 0.985,-0.282 1.561,-0.282 0.535,0 0.998,0.062 1.386,0.186 0.387,0.124 0.721,0.258 1.002,0.402 0.28,0.144 0.513,0.278 0.702,0.402 0.187,0.124 0.349,0.186 0.486,0.186 0.176,0 0.312,-0.068 0.407,-0.204 l 0.601,-0.78 C 4.571,-9.392 4.256,-9.67 3.888,-9.906 3.52,-10.142 3.126,-10.336 2.706,-10.488 2.286,-10.64 1.852,-10.754 1.403,-10.83 c -0.447,-0.076 -0.891,-0.114 -1.332,-0.114 -0.84,0 -1.613,0.142 -2.321,0.426 -0.708,0.284 -1.32,0.7 -1.836,1.248 -0.517,0.548 -0.918,1.226 -1.206,2.034 -0.288,0.808 -0.433,1.736 -0.433,2.784 0,0.848 0.13,1.64 0.391,2.376 0.26,0.736 0.634,1.374 1.122,1.914 0.487,0.54 1.084,0.964 1.788,1.272 0.703,0.308 1.495,0.462 2.376,0.462"
               style="fill:#ffffff;fill-opacity:1;fill-rule:nonzero;stroke:none"
               id="path226" />
          </g>
          <g
             id="g228"
             transform="translate(200.5319,10.32)">
            <path
               d="M 0,0 C 0.433,0 0.814,0.06 1.146,0.18 1.479,0.3 1.756,0.468 1.98,0.684 2.204,0.9 2.372,1.158 2.484,1.458 c 0.112,0.3 0.168,0.63 0.168,0.99 0,0.744 -0.226,1.336 -0.677,1.776 -0.453,0.44 -1.111,0.66 -1.975,0.66 -0.855,0 -1.51,-0.22 -1.962,-0.66 -0.452,-0.44 -0.678,-1.032 -0.678,-1.776 0,-0.36 0.058,-0.69 0.174,-0.99 C -2.35,1.158 -2.18,0.9 -1.956,0.684 -1.731,0.468 -1.456,0.3 -1.128,0.18 -0.8,0.06 -0.424,0 0,0 m 3.792,-6.557 c 0,0.31 -0.084,0.559 -0.252,0.746 -0.168,0.188 -0.395,0.333 -0.684,0.436 -0.288,0.101 -0.62,0.177 -0.996,0.226 -0.376,0.048 -0.772,0.073 -1.188,0.073 H -0.6 c -0.432,0 -0.844,0.054 -1.236,0.162 -0.456,-0.216 -0.826,-0.481 -1.109,-0.793 -0.284,-0.313 -0.427,-0.685 -0.427,-1.118 0,-0.272 0.07,-0.527 0.21,-0.763 0.141,-0.236 0.354,-0.441 0.642,-0.613 0.289,-0.172 0.65,-0.308 1.086,-0.409 0.436,-0.098 0.951,-0.15 1.542,-0.15 0.577,0 1.092,0.053 1.548,0.159 0.456,0.106 0.842,0.257 1.158,0.453 0.316,0.196 0.558,0.428 0.726,0.697 0.168,0.27 0.252,0.568 0.252,0.894 M 0,6.42 C 0.528,6.42 1.022,6.362 1.482,6.246 1.942,6.13 2.36,5.96 2.736,5.736 h 3.3 V 4.944 C 6.036,4.68 5.868,4.512 5.532,4.44 L 4.152,4.248 C 4.424,3.728 4.561,3.148 4.561,2.508 4.561,1.916 4.446,1.378 4.218,0.894 3.99,0.41 3.674,-0.004 3.271,-0.348 2.866,-0.692 2.386,-0.956 1.83,-1.14 1.274,-1.324 0.664,-1.417 0,-1.417 c -0.568,0 -1.104,0.069 -1.607,0.205 -0.257,-0.164 -0.451,-0.343 -0.582,-0.534 -0.132,-0.19 -0.199,-0.376 -0.199,-0.558 0,-0.298 0.117,-0.523 0.348,-0.676 0.232,-0.153 0.54,-0.263 0.924,-0.329 0.385,-0.066 0.82,-0.099 1.308,-0.099 h 1.495 c 0.507,0 1.005,-0.045 1.494,-0.134 C 3.668,-3.631 4.104,-3.776 4.488,-3.979 4.872,-4.181 5.18,-4.46 5.412,-4.817 5.645,-5.173 5.76,-5.635 5.76,-6.202 5.76,-6.728 5.63,-7.238 5.37,-7.732 5.11,-8.226 4.736,-8.667 4.248,-9.051 3.76,-9.435 3.164,-9.743 2.46,-9.974 1.756,-10.205 0.96,-10.32 0.072,-10.32 c -0.887,0 -1.666,0.088 -2.334,0.264 -0.668,0.177 -1.221,0.413 -1.662,0.709 -0.44,0.296 -0.769,0.639 -0.99,1.027 -0.22,0.389 -0.33,0.795 -0.33,1.219 0,0.601 0.19,1.112 0.57,1.532 0.38,0.42 0.903,0.755 1.567,1.003 -0.345,0.16 -0.619,0.373 -0.823,0.641 -0.204,0.267 -0.305,0.625 -0.305,1.072 0,0.176 0.031,0.357 0.095,0.545 0.064,0.188 0.162,0.374 0.294,0.558 0.132,0.183 0.294,0.359 0.487,0.527 0.191,0.167 0.415,0.315 0.671,0.443 -0.6,0.336 -1.07,0.782 -1.41,1.338 -0.339,0.556 -0.509,1.206 -0.509,1.95 0,0.592 0.113,1.13 0.341,1.614 0.228,0.484 0.546,0.896 0.954,1.236 0.409,0.34 0.894,0.602 1.458,0.786 C -1.29,6.328 -0.672,6.42 0,6.42"
               style="fill:#ffffff;fill-opacity:1;fill-rule:nonzero;stroke:none"
               id="path230" />
          </g>
          <g
             id="g232"
             transform="translate(208.7038,4.3801)">
            <path
               d="m 0,0 v 12.156 h 1.224 c 0.232,0 0.392,-0.044 0.48,-0.132 0.088,-0.088 0.148,-0.24 0.18,-0.456 L 2.028,9.672 c 0.416,0.848 0.93,1.51 1.542,1.986 0.612,0.476 1.33,0.714 2.154,0.714 0.336,0 0.64,-0.038 0.912,-0.114 C 6.908,12.182 7.16,12.076 7.392,11.94 L 7.116,10.344 c -0.056,-0.2 -0.179,-0.3 -0.372,-0.3 -0.112,0 -0.284,0.038 -0.515,0.114 C 5.996,10.234 5.672,10.272 5.256,10.272 4.512,10.272 3.89,10.056 3.39,9.624 2.89,9.192 2.472,8.564 2.136,7.74 V 0 Z"
               style="fill:#ffffff;fill-opacity:1;fill-rule:nonzero;stroke:none"
               id="path234" />
          </g>
          <g
             id="g236"
             transform="translate(221.76,5.6887)">
            <path
               d="m 0,0 c 0.376,0 0.721,0.038 1.032,0.113 0.313,0.076 0.607,0.185 0.882,0.324 0.276,0.14 0.54,0.311 0.792,0.51 0.252,0.2 0.498,0.429 0.738,0.685 V 4.14 C 2.46,4.14 1.624,4.078 0.937,3.952 0.248,3.827 -0.312,3.665 -0.744,3.464 -1.176,3.263 -1.49,3.024 -1.686,2.752 -1.882,2.478 -1.979,2.172 -1.979,1.834 c 0,-0.321 0.051,-0.6 0.155,-0.833 C -1.72,0.768 -1.58,0.576 -1.403,0.428 -1.228,0.278 -1.02,0.171 -0.779,0.103 -0.54,0.033 -0.28,0 0,0 M 5.544,-1.309 H 4.597 c -0.209,0 -0.377,0.033 -0.505,0.097 C 3.964,-1.148 3.88,-1.013 3.84,-0.805 L 3.601,0.323 C 3.28,0.035 2.968,-0.223 2.664,-0.45 2.36,-0.679 2.04,-0.87 1.704,-1.026 1.368,-1.183 1.01,-1.301 0.63,-1.381 0.25,-1.46 -0.172,-1.5 -0.636,-1.5 c -0.471,0 -0.914,0.065 -1.326,0.197 -0.412,0.134 -0.769,0.332 -1.074,0.597 -0.304,0.266 -0.546,0.602 -0.726,1.006 -0.179,0.406 -0.27,0.885 -0.27,1.438 0,0.482 0.133,0.946 0.396,1.392 0.264,0.444 0.691,0.841 1.279,1.185 0.587,0.346 1.357,0.629 2.309,0.85 0.952,0.22 2.116,0.331 3.492,0.331 V 6.45 C 3.444,7.399 3.242,8.118 2.838,8.604 2.435,9.092 1.836,9.335 1.044,9.335 0.524,9.335 0.086,9.27 -0.27,9.138 -0.626,9.006 -0.934,8.857 -1.193,8.694 -1.454,8.53 -1.678,8.382 -1.866,8.25 -2.054,8.118 -2.24,8.052 -2.424,8.052 -2.567,8.052 -2.693,8.09 -2.802,8.166 -2.91,8.242 -2.996,8.335 -3.06,8.448 l -0.383,0.684 c 0.672,0.648 1.395,1.132 2.172,1.451 0.775,0.321 1.635,0.48 2.58,0.48 0.679,0 1.283,-0.111 1.811,-0.335 C 3.648,10.503 4.092,10.191 4.452,9.792 4.812,9.392 5.084,8.908 5.269,8.34 5.452,7.771 5.544,7.147 5.544,6.468 Z"
               style="fill:#ffffff;fill-opacity:1;fill-rule:nonzero;stroke:none"
               id="path238" />
          </g>
          <g
             id="g240"
             transform="translate(234.227,4.1887)">
            <path
               d="M 0,0 C -0.96,0 -1.697,0.268 -2.214,0.804 -2.729,1.34 -2.987,2.111 -2.987,3.119 v 7.441 h -1.464 c -0.129,0 -0.236,0.038 -0.324,0.114 -0.088,0.076 -0.132,0.194 -0.132,0.354 v 0.851 l 1.991,0.253 0.492,3.756 c 0.017,0.12 0.069,0.217 0.156,0.294 0.088,0.076 0.201,0.113 0.336,0.113 h 1.08 V 12.107 H 2.629 V 10.56 H -0.852 V 3.264 c 0,-0.512 0.124,-0.892 0.373,-1.14 0.248,-0.248 0.568,-0.372 0.959,-0.372 0.224,0 0.418,0.029 0.582,0.09 0.165,0.059 0.306,0.126 0.426,0.198 0.12,0.071 0.223,0.138 0.307,0.197 0.084,0.061 0.157,0.09 0.222,0.09 0.111,0 0.212,-0.067 0.299,-0.203 L 2.94,1.104 C 2.572,0.76 2.128,0.489 1.608,0.294 1.088,0.098 0.553,0 0,0"
               style="fill:#ffffff;fill-opacity:1;fill-rule:nonzero;stroke:none"
               id="path242" />
          </g>
          <g
             id="g244"
             transform="translate(241.8712,4.3801)">
            <path
               d="m 0,0 h -2.136 v 5.387 6.769 H 0 Z M 0.481,15.972 C 0.481,15.764 0.439,15.57 0.355,15.39 0.271,15.21 0.16,15.05 0.019,14.91 c -0.141,-0.14 -0.302,-0.25 -0.485,-0.33 -0.185,-0.08 -0.38,-0.12 -0.588,-0.12 -0.208,0 -0.404,0.04 -0.582,0.12 -0.182,0.08 -0.342,0.19 -0.481,0.33 -0.139,0.14 -0.25,0.3 -0.33,0.48 -0.08,0.18 -0.121,0.374 -0.121,0.582 0,0.208 0.041,0.406 0.121,0.594 0.08,0.188 0.191,0.352 0.33,0.492 0.139,0.14 0.299,0.25 0.481,0.33 0.178,0.08 0.374,0.12 0.582,0.12 0.208,0 0.403,-0.04 0.588,-0.12 0.183,-0.08 0.344,-0.19 0.485,-0.33 0.141,-0.14 0.252,-0.304 0.336,-0.492 0.084,-0.188 0.126,-0.386 0.126,-0.594"
               style="fill:#ffffff;fill-opacity:1;fill-rule:nonzero;stroke:none"
               id="path246" />
          </g>
          <g
             id="g248"
             transform="translate(244.1038,16.5358)">
            <path
               d="M 0,0 H 1.752 C 1.92,0 2.06,-0.044 2.172,-0.132 2.284,-0.22 2.364,-0.324 2.412,-0.444 l 3.084,-7.824 c 0.112,-0.288 0.2,-0.576 0.264,-0.864 0.064,-0.288 0.124,-0.572 0.18,-0.852 0.064,0.28 0.132,0.564 0.205,0.852 0.071,0.288 0.163,0.576 0.275,0.864 l 3.12,7.824 C 9.588,-0.316 9.666,-0.21 9.774,-0.126 9.882,-0.042 10.016,0 10.176,0 h 1.668 L 6.888,-12.156 H 4.956 Z"
               style="fill:#ffffff;fill-opacity:1;fill-rule:nonzero;stroke:none"
               id="path250" />
          </g>
          <g
             id="g252"
             transform="translate(262.4769,15.156)">
            <path
               d="M 0,0 C -1.032,0 -1.845,-0.298 -2.437,-0.894 -3.028,-1.49 -3.396,-2.316 -3.54,-3.372 h 6.611 c 0,0.496 -0.067,0.95 -0.203,1.362 -0.137,0.412 -0.337,0.768 -0.6,1.068 -0.264,0.3 -0.586,0.532 -0.966,0.696 C 0.922,-0.082 0.487,0 0,0 M -0.048,1.572 C 0.68,1.572 1.352,1.45 1.968,1.206 2.584,0.962 3.115,0.61 3.563,0.15 4.012,-0.31 4.361,-0.878 4.613,-1.554 4.865,-2.23 4.991,-3 4.991,-3.864 4.991,-4.2 4.956,-4.424 4.884,-4.536 4.812,-4.648 4.676,-4.704 4.476,-4.704 h -8.088 c 0.015,-0.768 0.12,-1.436 0.311,-2.004 0.193,-0.568 0.456,-1.042 0.792,-1.422 0.337,-0.38 0.737,-0.664 1.2,-0.852 0.464,-0.188 0.985,-0.282 1.561,-0.282 0.535,0 0.998,0.062 1.386,0.186 0.387,0.124 0.721,0.258 1.002,0.402 0.28,0.144 0.513,0.278 0.702,0.402 0.187,0.124 0.349,0.186 0.486,0.186 0.176,0 0.312,-0.068 0.407,-0.204 l 0.601,-0.78 C 4.571,-9.392 4.256,-9.67 3.888,-9.906 3.52,-10.142 3.126,-10.336 2.706,-10.488 2.286,-10.64 1.852,-10.754 1.403,-10.83 c -0.447,-0.076 -0.891,-0.114 -1.332,-0.114 -0.84,0 -1.613,0.142 -2.321,0.426 -0.708,0.284 -1.32,0.7 -1.836,1.248 -0.517,0.548 -0.918,1.226 -1.206,2.034 -0.288,0.808 -0.433,1.736 -0.433,2.784 0,0.848 0.13,1.64 0.391,2.376 0.26,0.736 0.634,1.374 1.122,1.914 0.487,0.54 1.084,0.964 1.788,1.272 0.703,0.308 1.495,0.462 2.376,0.462"
               style="fill:#ffffff;fill-opacity:1;fill-rule:nonzero;stroke:none"
               id="path254" />
          </g>
          <g
             id="g256"
             transform="translate(277.4879,12.216)">
            <path
               d="m 0,0 v -5.988 h 3.72 c 0.664,0 1.234,0.076 1.71,0.228 0.476,0.152 0.868,0.366 1.176,0.642 0.308,0.276 0.534,0.604 0.678,0.984 0.144,0.38 0.216,0.798 0.216,1.254 0,0.888 -0.314,1.59 -0.942,2.106 C 5.93,-0.258 4.98,0 3.708,0 Z m 0,1.656 h 3.072 c 0.656,0 1.224,0.072 1.704,0.216 0.48,0.144 0.878,0.344 1.194,0.6 0.316,0.256 0.55,0.566 0.702,0.93 C 6.824,3.766 6.9,4.164 6.9,4.596 6.9,5.604 6.596,6.344 5.988,6.816 5.38,7.288 4.436,7.524 3.156,7.524 H 0 Z M -2.328,-7.836 V 9.36 H 3.156 C 4.212,9.36 5.122,9.256 5.886,9.048 6.65,8.84 7.278,8.544 7.77,8.16 8.262,7.776 8.626,7.306 8.862,6.75 9.098,6.194 9.216,5.568 9.216,4.872 9.216,4.448 9.15,4.04 9.018,3.648 8.886,3.256 8.686,2.892 8.418,2.556 8.15,2.22 7.814,1.92 7.41,1.656 7.006,1.392 6.532,1.176 5.988,1.008 7.244,0.76 8.192,0.308 8.832,-0.348 c 0.64,-0.656 0.96,-1.52 0.96,-2.591 0,-0.729 -0.134,-1.393 -0.402,-1.993 C 9.122,-5.532 8.73,-6.048 8.214,-6.479 7.698,-6.912 7.066,-7.246 6.318,-7.481 5.57,-7.718 4.716,-7.836 3.756,-7.836 Z"
               style="fill:#ffffff;fill-opacity:1;fill-rule:nonzero;stroke:none"
               id="path258" />
          </g>
          <g
             id="g260"
             transform="translate(292.7272,4.3801)">
            <path
               d="m 0,0 h -2.136 v 5.387 6.769 H 0 Z M 0.481,15.972 C 0.481,15.764 0.439,15.57 0.355,15.39 0.271,15.21 0.16,15.05 0.019,14.91 c -0.141,-0.14 -0.302,-0.25 -0.485,-0.33 -0.185,-0.08 -0.38,-0.12 -0.588,-0.12 -0.208,0 -0.404,0.04 -0.582,0.12 -0.182,0.08 -0.342,0.19 -0.481,0.33 -0.139,0.14 -0.25,0.3 -0.33,0.48 -0.08,0.18 -0.121,0.374 -0.121,0.582 0,0.208 0.041,0.406 0.121,0.594 0.08,0.188 0.191,0.352 0.33,0.492 0.139,0.14 0.299,0.25 0.481,0.33 0.178,0.08 0.374,0.12 0.582,0.12 0.208,0 0.403,-0.04 0.588,-0.12 0.183,-0.08 0.344,-0.19 0.485,-0.33 0.141,-0.14 0.252,-0.304 0.336,-0.492 0.084,-0.188 0.126,-0.386 0.126,-0.594"
               style="fill:#ffffff;fill-opacity:1;fill-rule:nonzero;stroke:none"
               id="path262" />
          </g>
          <g
             id="g264"
             transform="translate(301.4159,5.8801)">
            <path
               d="M 0,0 C 1.2,0 2.096,0.402 2.688,1.206 3.28,2.01 3.576,3.132 3.576,4.572 3.576,6.02 3.28,7.148 2.688,7.956 2.096,8.764 1.2,9.168 0,9.168 -0.608,9.168 -1.136,9.064 -1.584,8.856 -2.032,8.648 -2.406,8.348 -2.706,7.956 -3.006,7.564 -3.229,7.082 -3.378,6.51 -3.526,5.938 -3.6,5.292 -3.6,4.572 -3.6,3.852 -3.526,3.208 -3.378,2.64 -3.229,2.072 -3.006,1.594 -2.706,1.206 -2.406,0.818 -2.032,0.521 -1.584,0.312 -1.136,0.104 -0.608,0 0,0 m 0,10.848 c 0.888,0 1.69,-0.148 2.406,-0.444 C 3.122,10.108 3.73,9.688 4.23,9.144 4.73,8.6 5.114,7.942 5.382,7.17 5.65,6.398 5.784,5.536 5.784,4.584 5.784,3.624 5.65,2.76 5.382,1.992 5.114,1.224 4.73,0.568 4.23,0.024 3.73,-0.52 3.122,-0.937 2.406,-1.229 1.69,-1.521 0.888,-1.668 0,-1.668 c -0.888,0 -1.69,0.147 -2.406,0.439 -0.716,0.292 -1.325,0.709 -1.83,1.253 -0.504,0.544 -0.892,1.2 -1.163,1.968 -0.273,0.768 -0.409,1.632 -0.409,2.592 0,0.952 0.136,1.814 0.409,2.586 0.271,0.772 0.659,1.43 1.163,1.974 0.505,0.544 1.114,0.964 1.83,1.26 0.716,0.296 1.518,0.444 2.406,0.444"
               style="fill:#ffffff;fill-opacity:1;fill-rule:nonzero;stroke:none"
               id="path266" />
          </g>
          <g
             id="g268"
             transform="translate(312.216,22.0559)">
            <path
               d="M 0,0 V -17.676 H -2.136 V -9.807 -6.015 0 Z"
               style="fill:#ffffff;fill-opacity:1;fill-rule:nonzero;stroke:none"
               id="path270" />
          </g>
          <g
             id="g272"
             transform="translate(320.9039,5.8801)">
            <path
               d="M 0,0 C 1.2,0 2.096,0.402 2.688,1.206 3.28,2.01 3.576,3.132 3.576,4.572 3.576,6.02 3.28,7.148 2.688,7.956 2.096,8.764 1.2,9.168 0,9.168 -0.608,9.168 -1.136,9.064 -1.584,8.856 -2.032,8.648 -2.406,8.348 -2.706,7.956 -3.006,7.564 -3.229,7.082 -3.378,6.51 -3.526,5.938 -3.6,5.292 -3.6,4.572 -3.6,3.852 -3.526,3.208 -3.378,2.64 -3.229,2.072 -3.006,1.594 -2.706,1.206 -2.406,0.818 -2.032,0.521 -1.584,0.312 -1.136,0.104 -0.608,0 0,0 m 0,10.848 c 0.888,0 1.69,-0.148 2.406,-0.444 C 3.122,10.108 3.73,9.688 4.23,9.144 4.73,8.6 5.114,7.942 5.382,7.17 5.65,6.398 5.784,5.536 5.784,4.584 5.784,3.624 5.65,2.76 5.382,1.992 5.114,1.224 4.73,0.568 4.23,0.024 3.73,-0.52 3.122,-0.937 2.406,-1.229 1.69,-1.521 0.888,-1.668 0,-1.668 c -0.888,0 -1.69,0.147 -2.406,0.439 -0.716,0.292 -1.325,0.709 -1.83,1.253 -0.504,0.544 -0.892,1.2 -1.163,1.968 -0.273,0.768 -0.409,1.632 -0.409,2.592 0,0.952 0.136,1.814 0.409,2.586 0.271,0.772 0.659,1.43 1.163,1.974 0.505,0.544 1.114,0.964 1.83,1.26 0.716,0.296 1.518,0.444 2.406,0.444"
               style="fill:#ffffff;fill-opacity:1;fill-rule:nonzero;stroke:none"
               id="path274" />
          </g>
          <g
             id="g276"
             transform="translate(333.4199,10.32)">
            <path
               d="M 0,0 C 0.433,0 0.814,0.06 1.146,0.18 1.479,0.3 1.756,0.468 1.98,0.684 2.204,0.9 2.372,1.158 2.484,1.458 c 0.112,0.3 0.168,0.63 0.168,0.99 0,0.744 -0.226,1.336 -0.677,1.776 -0.453,0.44 -1.111,0.66 -1.975,0.66 -0.855,0 -1.51,-0.22 -1.962,-0.66 -0.452,-0.44 -0.678,-1.032 -0.678,-1.776 0,-0.36 0.058,-0.69 0.174,-0.99 C -2.35,1.158 -2.18,0.9 -1.956,0.684 -1.731,0.468 -1.456,0.3 -1.128,0.18 -0.8,0.06 -0.424,0 0,0 m 3.792,-6.557 c 0,0.31 -0.084,0.559 -0.252,0.746 -0.168,0.188 -0.395,0.333 -0.684,0.436 -0.288,0.101 -0.62,0.177 -0.996,0.226 -0.376,0.048 -0.772,0.073 -1.188,0.073 H -0.6 c -0.432,0 -0.844,0.054 -1.236,0.162 -0.456,-0.216 -0.826,-0.481 -1.109,-0.793 -0.284,-0.313 -0.427,-0.685 -0.427,-1.118 0,-0.272 0.07,-0.527 0.21,-0.763 0.141,-0.236 0.354,-0.441 0.642,-0.613 0.289,-0.172 0.65,-0.308 1.086,-0.409 0.436,-0.098 0.951,-0.15 1.542,-0.15 0.577,0 1.092,0.053 1.548,0.159 0.456,0.106 0.842,0.257 1.158,0.453 0.316,0.196 0.558,0.428 0.726,0.697 0.168,0.27 0.252,0.568 0.252,0.894 M 0,6.42 C 0.528,6.42 1.022,6.362 1.482,6.246 1.942,6.13 2.36,5.96 2.736,5.736 h 3.3 V 4.944 C 6.036,4.68 5.868,4.512 5.532,4.44 L 4.152,4.248 C 4.424,3.728 4.561,3.148 4.561,2.508 4.561,1.916 4.446,1.378 4.218,0.894 3.99,0.41 3.674,-0.004 3.271,-0.348 2.866,-0.692 2.386,-0.956 1.83,-1.14 1.274,-1.324 0.664,-1.417 0,-1.417 c -0.568,0 -1.104,0.069 -1.607,0.205 -0.257,-0.164 -0.451,-0.343 -0.582,-0.534 -0.132,-0.19 -0.199,-0.376 -0.199,-0.558 0,-0.298 0.117,-0.523 0.348,-0.676 0.232,-0.153 0.54,-0.263 0.924,-0.329 0.385,-0.066 0.82,-0.099 1.308,-0.099 h 1.495 c 0.507,0 1.005,-0.045 1.494,-0.134 C 3.668,-3.631 4.104,-3.776 4.488,-3.979 4.872,-4.181 5.18,-4.46 5.412,-4.817 5.645,-5.173 5.76,-5.635 5.76,-6.202 5.76,-6.728 5.63,-7.238 5.37,-7.732 5.11,-8.226 4.736,-8.667 4.248,-9.051 3.76,-9.435 3.164,-9.743 2.46,-9.974 1.756,-10.205 0.96,-10.32 0.072,-10.32 c -0.887,0 -1.666,0.088 -2.334,0.264 -0.668,0.177 -1.221,0.413 -1.662,0.709 -0.44,0.296 -0.769,0.639 -0.99,1.027 -0.22,0.389 -0.33,0.795 -0.33,1.219 0,0.601 0.19,1.112 0.57,1.532 0.38,0.42 0.903,0.755 1.567,1.003 -0.345,0.16 -0.619,0.373 -0.823,0.641 -0.204,0.267 -0.305,0.625 -0.305,1.072 0,0.176 0.031,0.357 0.095,0.545 0.064,0.188 0.162,0.374 0.294,0.558 0.132,0.183 0.294,0.359 0.487,0.527 0.191,0.167 0.415,0.315 0.671,0.443 -0.6,0.336 -1.07,0.782 -1.41,1.338 -0.339,0.556 -0.509,1.206 -0.509,1.95 0,0.592 0.113,1.13 0.341,1.614 0.228,0.484 0.546,0.896 0.954,1.236 0.409,0.34 0.894,0.602 1.458,0.786 C -1.29,6.328 -0.672,6.42 0,6.42"
               style="fill:#ffffff;fill-opacity:1;fill-rule:nonzero;stroke:none"
               id="path278" />
          </g>
          <g
             id="g280"
             transform="translate(345.1557,0.7922)">
            <path
               d="m 0,0 c -0.072,-0.16 -0.162,-0.288 -0.271,-0.384 -0.107,-0.095 -0.274,-0.144 -0.498,-0.144 h -1.584 l 2.22,4.824 -5.015,11.448 h 1.847 c 0.185,0 0.328,-0.046 0.433,-0.138 0.103,-0.092 0.18,-0.194 0.227,-0.306 L 0.611,7.645 C 0.684,7.468 0.745,7.292 0.798,7.116 0.85,6.94 0.896,6.76 0.936,6.576 0.991,6.76 1.048,6.94 1.104,7.116 1.159,7.292 1.224,7.472 1.296,7.656 L 4.451,15.3 c 0.049,0.128 0.13,0.234 0.246,0.318 0.116,0.084 0.242,0.126 0.378,0.126 h 1.704 z"
               style="fill:#ffffff;fill-opacity:1;fill-rule:nonzero;stroke:none"
               id="path282" />
          </g>
        </g>
        <g
           id="g284"
           transform="translate(19.360312,14.75)">
          <g
             id="g286"
             transform="translate(6.9233,3.8823)">
            <path
               d="M 0,0 C 0.081,0 0.15,-0.032 0.21,-0.096 L 0.803,-0.74 c -0.374,-0.45 -0.833,-0.798 -1.377,-1.042 -0.544,-0.244 -1.194,-0.366 -1.951,-0.366 -0.671,0 -1.278,0.115 -1.82,0.347 -0.542,0.232 -1.004,0.555 -1.386,0.969 -0.383,0.415 -0.677,0.909 -0.883,1.482 -0.206,0.574 -0.309,1.205 -0.309,1.893 0,0.689 0.109,1.321 0.328,1.897 0.219,0.576 0.527,1.071 0.924,1.486 0.398,0.414 0.874,0.736 1.428,0.966 0.555,0.229 1.166,0.344 1.833,0.344 0.663,0 1.248,-0.108 1.756,-0.322 C -0.146,6.699 0.295,6.413 0.669,6.056 L 0.178,5.361 C 0.144,5.314 0.104,5.274 0.057,5.24 0.01,5.206 -0.053,5.189 -0.134,5.189 c -0.085,0 -0.182,0.04 -0.29,0.118 -0.109,0.079 -0.247,0.166 -0.414,0.261 -0.168,0.096 -0.379,0.183 -0.632,0.262 -0.253,0.079 -0.568,0.118 -0.947,0.118 -0.437,0 -0.839,-0.076 -1.204,-0.23 C -3.987,5.565 -4.301,5.342 -4.565,5.049 -4.828,4.756 -5.033,4.399 -5.18,3.978 -5.327,3.557 -5.4,3.079 -5.4,2.543 c 0,-0.539 0.077,-1.021 0.23,-1.443 0.153,-0.423 0.363,-0.78 0.631,-1.071 0.268,-0.292 0.582,-0.513 0.943,-0.667 0.362,-0.153 0.75,-0.229 1.167,-0.229 0.255,0 0.483,0.014 0.685,0.041 0.202,0.028 0.388,0.073 0.558,0.134 0.17,0.062 0.331,0.139 0.481,0.233 0.151,0.093 0.301,0.208 0.45,0.344 C -0.17,-0.038 -0.085,0 0,0"
               style="fill:#ffffff;fill-opacity:1;fill-rule:nonzero;stroke:none"
               id="path288" />
          </g>
          <g
             id="g290"
             transform="translate(16.1222,6.4258)">
            <path
               d="M 0,0 C 0,0.527 -0.071,1.001 -0.213,1.422 -0.356,1.843 -0.56,2.2 -0.826,2.493 -1.091,2.786 -1.413,3.011 -1.792,3.168 -2.17,3.326 -2.595,3.404 -3.066,3.404 -3.534,3.404 -3.957,3.326 -4.335,3.168 -4.713,3.011 -5.036,2.786 -5.304,2.493 -5.572,2.2 -5.778,1.843 -5.922,1.422 -6.067,1.001 -6.139,0.527 -6.139,0 c 0,-0.531 0.072,-1.007 0.217,-1.428 0.144,-0.421 0.35,-0.777 0.618,-1.068 0.268,-0.291 0.591,-0.514 0.969,-0.669 0.378,-0.155 0.801,-0.233 1.269,-0.233 0.471,0 0.896,0.078 1.274,0.233 0.379,0.155 0.701,0.378 0.966,0.669 0.266,0.291 0.47,0.647 0.613,1.068 C -0.071,-1.007 0,-0.531 0,0 m 1.523,0 c 0,-0.68 -0.11,-1.307 -0.331,-1.88 -0.221,-0.574 -0.532,-1.068 -0.934,-1.483 -0.402,-0.414 -0.884,-0.738 -1.447,-0.972 -0.563,-0.234 -1.189,-0.351 -1.877,-0.351 -0.684,0 -1.309,0.117 -1.871,0.351 -0.563,0.234 -1.047,0.558 -1.451,0.972 -0.404,0.415 -0.716,0.909 -0.937,1.483 -0.221,0.573 -0.331,1.2 -0.331,1.88 0,0.68 0.11,1.307 0.331,1.881 0.221,0.574 0.533,1.069 0.937,1.485 0.404,0.417 0.888,0.742 1.451,0.975 0.562,0.234 1.187,0.351 1.871,0.351 0.688,0 1.314,-0.117 1.877,-0.351 C -0.626,4.108 -0.144,3.783 0.258,3.366 0.66,2.95 0.971,2.455 1.192,1.881 1.413,1.307 1.523,0.68 1.523,0"
               style="fill:#ffffff;fill-opacity:1;fill-rule:nonzero;stroke:none"
               id="path292" />
          </g>
          <g
             id="g294"
             transform="translate(24.0717,3.0854)">
            <path
               d="m 0,0 v -1.25 h -5.304 v 9.181 h 1.492 V 0 Z"
               style="fill:#ffffff;fill-opacity:1;fill-rule:nonzero;stroke:none"
               id="path296" />
          </g>
          <g
             id="g298"
             transform="translate(30.657075,3.0854)">
            <path
               d="m 0,0 v -1.25 h -5.304 v 9.181 h 1.492 V 0 Z"
               style="fill:#ffffff;fill-opacity:1;fill-rule:nonzero;stroke:none"
               id="path300" />
          </g>
          <g
             id="g302"
             transform="translate(37.66975,3.041)">
            <path
               d="m 0,0 -0.006,-1.205 h -5.725 v 9.18 h 5.725 V 6.77 H -4.233 V 4.003 h 3.379 V 2.837 H -4.233 V 0 Z"
               style="fill:#ffffff;fill-opacity:1;fill-rule:nonzero;stroke:none"
               id="path304" />
          </g>
          <g
             id="g306"
             transform="translate(46.798925,6.356)">
            <path
               d="m 0,0 v -3.634 c -0.914,-0.658 -1.977,-0.988 -3.188,-0.988 -0.744,0 -1.416,0.116 -2.018,0.348 -0.601,0.231 -1.114,0.554 -1.539,0.968 -0.425,0.415 -0.752,0.909 -0.982,1.483 -0.229,0.573 -0.344,1.204 -0.344,1.893 0,0.693 0.111,1.327 0.332,1.903 0.22,0.576 0.537,1.071 0.949,1.485 0.413,0.415 0.91,0.735 1.492,0.963 0.582,0.227 1.237,0.341 1.964,0.341 0.37,0 0.712,-0.029 1.029,-0.086 0.317,-0.057 0.611,-0.137 0.883,-0.239 0.272,-0.102 0.523,-0.226 0.753,-0.37 0.229,-0.145 0.44,-0.306 0.63,-0.484 L -0.465,2.9 C -0.534,2.794 -0.621,2.729 -0.727,2.703 c -0.106,-0.026 -0.221,0 -0.344,0.076 -0.123,0.073 -0.254,0.149 -0.392,0.23 -0.139,0.08 -0.297,0.156 -0.475,0.226 -0.179,0.07 -0.385,0.128 -0.619,0.172 -0.234,0.045 -0.509,0.067 -0.828,0.067 -0.485,0 -0.922,-0.079 -1.31,-0.239 C -5.084,3.076 -5.417,2.848 -5.693,2.553 -5.969,2.258 -6.182,1.899 -6.331,1.479 -6.479,1.058 -6.554,0.588 -6.554,0.07 c 0,-0.548 0.079,-1.038 0.236,-1.469 0.157,-0.432 0.381,-0.797 0.67,-1.097 0.289,-0.299 0.638,-0.528 1.048,-0.685 0.411,-0.157 0.868,-0.236 1.374,-0.236 0.378,0 0.715,0.04 1.011,0.121 0.295,0.081 0.585,0.193 0.87,0.338 v 1.823 h -1.281 c -0.099,0 -0.175,0.027 -0.23,0.08 -0.056,0.053 -0.083,0.122 -0.083,0.207 V 0 Z"
               style="fill:#ffffff;fill-opacity:1;fill-rule:nonzero;stroke:none"
               id="path308" />
          </g>
          <g
             id="g310"
             transform="translate(54.29575,3.041)">
            <path
               d="m 0,0 -0.006,-1.205 h -5.725 v 9.18 h 5.725 V 6.77 H -4.233 V 4.003 h 3.379 V 2.837 H -4.233 V 0 Z"
               style="fill:#ffffff;fill-opacity:1;fill-rule:nonzero;stroke:none"
               id="path312" />
          </g>
          <g
             id="g314"
             transform="translate(66.185075,6.4258)">
            <path
               d="M 0,0 C 0,0.527 -0.071,1.001 -0.213,1.422 -0.356,1.843 -0.56,2.2 -0.826,2.493 -1.091,2.786 -1.413,3.011 -1.792,3.168 -2.17,3.326 -2.595,3.404 -3.066,3.404 -3.534,3.404 -3.957,3.326 -4.335,3.168 -4.713,3.011 -5.036,2.786 -5.304,2.493 -5.572,2.2 -5.778,1.843 -5.922,1.422 -6.067,1.001 -6.139,0.527 -6.139,0 c 0,-0.531 0.072,-1.007 0.217,-1.428 0.144,-0.421 0.35,-0.777 0.618,-1.068 0.268,-0.291 0.591,-0.514 0.969,-0.669 0.378,-0.155 0.801,-0.233 1.269,-0.233 0.471,0 0.896,0.078 1.274,0.233 0.379,0.155 0.701,0.378 0.966,0.669 0.266,0.291 0.47,0.647 0.613,1.068 C -0.071,-1.007 0,-0.531 0,0 m 1.523,0 c 0,-0.68 -0.11,-1.307 -0.331,-1.88 -0.221,-0.574 -0.532,-1.068 -0.934,-1.483 -0.402,-0.414 -0.884,-0.738 -1.447,-0.972 -0.563,-0.234 -1.189,-0.351 -1.877,-0.351 -0.684,0 -1.309,0.117 -1.871,0.351 -0.563,0.234 -1.047,0.558 -1.451,0.972 -0.404,0.415 -0.716,0.909 -0.937,1.483 -0.221,0.573 -0.331,1.2 -0.331,1.88 0,0.68 0.11,1.307 0.331,1.881 0.221,0.574 0.533,1.069 0.937,1.485 0.404,0.417 0.888,0.742 1.451,0.975 0.562,0.234 1.187,0.351 1.871,0.351 0.688,0 1.314,-0.117 1.877,-0.351 C -0.626,4.108 -0.144,3.783 0.258,3.366 0.66,2.95 0.971,2.455 1.192,1.881 1.413,1.307 1.523,0.68 1.523,0"
               style="fill:#ffffff;fill-opacity:1;fill-rule:nonzero;stroke:none"
               id="path316" />
          </g>
          <g
             id="g318"
             transform="translate(70.838875,9.811)">
            <path
               d="M 0,0 V -2.939 H 3.589 V -4.144 H 0 v -3.831 h -1.498 v 9.18 H 4.227 V 0 Z"
               style="fill:#ffffff;fill-opacity:1;fill-rule:nonzero;stroke:none"
               id="path320" />
          </g>
          <g
             id="g322"
             transform="translate(85.02945,3.0854)">
            <path
               d="m 0,0 v -1.25 h -5.304 v 9.181 h 1.492 V 0 Z"
               style="fill:#ffffff;fill-opacity:1;fill-rule:nonzero;stroke:none"
               id="path324" />
          </g>
          <g
             id="g326"
             transform="translate(92.042125,3.041)">
            <path
               d="m 0,0 -0.006,-1.205 h -5.725 v 9.18 h 5.725 V 6.77 H -4.233 V 4.003 h 3.379 V 2.837 H -4.233 V 0 Z"
               style="fill:#ffffff;fill-opacity:1;fill-rule:nonzero;stroke:none"
               id="path328" />
          </g>
          <g
             id="g330"
             transform="translate(99.97255,9.7729)">
            <path
               d="M 0,0 H -2.862 V -7.937 H -4.348 V 0 H -7.216 V 1.243 H 0 Z"
               style="fill:#ffffff;fill-opacity:1;fill-rule:nonzero;stroke:none"
               id="path332" />
          </g>
          <g
             id="g334"
             transform="translate(107.56517,9.7729)">
            <path
               d="M 0,0 H -2.862 V -7.937 H -4.348 V 0 H -7.216 V 1.243 H 0 Z"
               style="fill:#ffffff;fill-opacity:1;fill-rule:nonzero;stroke:none"
               id="path336" />
          </g>
          <g
             id="g338"
             transform="translate(114.57137,3.041)">
            <path
               d="m 0,0 -0.006,-1.205 h -5.725 v 9.18 h 5.725 V 6.77 H -4.233 V 4.003 h 3.379 V 2.837 H -4.233 V 0 Z"
               style="fill:#ffffff;fill-opacity:1;fill-rule:nonzero;stroke:none"
               id="path340" />
          </g>
          <g
             id="g342"
             transform="translate(118.84897,6.6172)">
            <path
               d="M 0,0 C 0.34,0 0.638,0.042 0.893,0.125 1.147,0.207 1.36,0.323 1.53,0.472 1.7,0.621 1.828,0.798 1.913,1.004 1.998,1.21 2.04,1.438 2.04,1.689 2.04,2.191 1.874,2.573 1.543,2.837 1.211,3.101 0.709,3.232 0.038,3.232 H -1.173 V 0 Z M 4.322,-4.781 H 2.99 c -0.264,0 -0.455,0.102 -0.574,0.306 l -2.142,3.092 c -0.072,0.106 -0.151,0.182 -0.236,0.229 -0.085,0.047 -0.212,0.07 -0.382,0.07 h -0.829 v -3.697 h -1.492 v 9.18 H 0.038 C 0.642,4.399 1.161,4.337 1.597,4.214 2.033,4.09 2.391,3.915 2.671,3.688 2.952,3.46 3.159,3.188 3.292,2.869 3.427,2.55 3.494,2.195 3.494,1.804 3.494,1.485 3.446,1.188 3.35,0.912 3.254,0.635 3.116,0.385 2.936,0.159 2.755,-0.066 2.533,-0.261 2.27,-0.427 2.006,-0.593 1.707,-0.723 1.371,-0.816 1.553,-0.927 1.71,-1.082 1.842,-1.281 Z"
               style="fill:#ffffff;fill-opacity:1;fill-rule:nonzero;stroke:none"
               id="path344" />
          </g>
          <g
             id="g346"
             transform="translate(129.08113,9.4478)">
            <path
               d="m 0,0 c -0.047,-0.077 -0.096,-0.133 -0.147,-0.169 -0.051,-0.036 -0.115,-0.054 -0.191,-0.054 -0.081,0 -0.171,0.034 -0.271,0.102 -0.1,0.068 -0.223,0.143 -0.37,0.226 -0.146,0.083 -0.319,0.16 -0.519,0.229 -0.2,0.071 -0.438,0.106 -0.714,0.106 -0.255,0 -0.479,-0.032 -0.673,-0.096 -0.193,-0.064 -0.356,-0.153 -0.488,-0.267 -0.131,-0.115 -0.23,-0.25 -0.296,-0.406 -0.066,-0.154 -0.099,-0.323 -0.099,-0.506 0,-0.234 0.062,-0.428 0.185,-0.583 0.124,-0.156 0.286,-0.289 0.488,-0.399 0.201,-0.111 0.432,-0.207 0.692,-0.29 0.258,-0.083 0.523,-0.171 0.793,-0.265 0.27,-0.093 0.535,-0.199 0.794,-0.318 0.259,-0.12 0.49,-0.27 0.691,-0.453 0.202,-0.183 0.365,-0.406 0.488,-0.67 0.123,-0.263 0.185,-0.583 0.185,-0.962 0,-0.408 -0.07,-0.79 -0.21,-1.147 -0.141,-0.357 -0.343,-0.669 -0.609,-0.934 -0.266,-0.266 -0.593,-0.476 -0.982,-0.628 -0.389,-0.153 -0.832,-0.23 -1.329,-0.23 -0.293,0 -0.579,0.029 -0.857,0.086 -0.279,0.058 -0.544,0.138 -0.797,0.242 -0.253,0.105 -0.49,0.231 -0.711,0.38 -0.221,0.149 -0.419,0.314 -0.593,0.497 l 0.434,0.714 c 0.038,0.06 0.086,0.106 0.146,0.14 0.06,0.034 0.126,0.051 0.198,0.051 0.097,0 0.206,-0.045 0.325,-0.137 0.119,-0.091 0.262,-0.191 0.43,-0.3 0.168,-0.108 0.371,-0.208 0.609,-0.299 0.238,-0.092 0.523,-0.137 0.854,-0.137 0.54,0 0.958,0.132 1.253,0.395 0.295,0.264 0.443,0.627 0.443,1.09 0,0.26 -0.062,0.471 -0.185,0.635 -0.123,0.163 -0.286,0.3 -0.488,0.411 -0.202,0.11 -0.432,0.204 -0.691,0.28 -0.26,0.077 -0.523,0.159 -0.791,0.246 -0.268,0.087 -0.531,0.189 -0.79,0.306 -0.26,0.116 -0.49,0.27 -0.692,0.459 -0.202,0.189 -0.365,0.423 -0.488,0.701 -0.123,0.278 -0.185,0.626 -0.185,1.042 0,0.332 0.065,0.653 0.195,0.963 0.13,0.31 0.318,0.585 0.567,0.825 0.249,0.241 0.556,0.433 0.921,0.578 0.366,0.144 0.783,0.216 1.25,0.216 0.527,0 1.011,-0.083 1.45,-0.249 0.44,-0.165 0.819,-0.401 1.138,-0.707 z"
               style="fill:#ffffff;fill-opacity:1;fill-rule:nonzero;stroke:none"
               id="path348" />
          </g>
          <g
             id="g350"
             transform="translate(136.76057,5.5376)">
            <path
               d="m 0,0 c -0.391,-0.229 -0.68,-0.498 -0.867,-0.803 -0.187,-0.306 -0.28,-0.638 -0.28,-0.995 0,-0.251 0.045,-0.475 0.136,-0.673 0.092,-0.197 0.213,-0.364 0.364,-0.5 0.15,-0.136 0.325,-0.24 0.522,-0.312 0.198,-0.072 0.403,-0.109 0.616,-0.109 0.421,0 0.803,0.072 1.147,0.214 0.344,0.142 0.651,0.335 0.918,0.577 z M 6.031,-4.399 H 4.698 c -0.072,0 -0.137,0.004 -0.194,0.013 -0.058,0.008 -0.111,0.022 -0.16,0.041 -0.049,0.019 -0.095,0.046 -0.14,0.08 -0.044,0.034 -0.092,0.078 -0.143,0.134 L 3.296,-3.354 C 2.892,-3.71 2.434,-3.991 1.922,-4.195 1.41,-4.399 0.854,-4.501 0.255,-4.501 c -0.349,0 -0.69,0.06 -1.023,0.179 -0.334,0.118 -0.632,0.29 -0.896,0.513 -0.264,0.223 -0.476,0.495 -0.637,0.816 -0.162,0.321 -0.243,0.683 -0.243,1.087 0,0.293 0.048,0.569 0.144,0.828 0.095,0.26 0.229,0.501 0.401,0.724 0.172,0.223 0.375,0.424 0.609,0.603 0.234,0.178 0.491,0.331 0.771,0.459 -0.242,0.322 -0.418,0.637 -0.528,0.943 -0.111,0.306 -0.166,0.616 -0.166,0.931 0,0.314 0.057,0.612 0.172,0.892 0.115,0.281 0.281,0.525 0.5,0.734 0.219,0.208 0.485,0.372 0.797,0.493 0.312,0.122 0.666,0.182 1.062,0.182 0.357,0 0.678,-0.055 0.966,-0.166 C 2.47,4.607 2.717,4.458 2.923,4.271 3.129,4.084 3.291,3.87 3.407,3.627 3.524,3.385 3.593,3.134 3.615,2.875 L 2.748,2.696 C 2.671,2.679 2.6,2.69 2.534,2.729 2.468,2.767 2.418,2.831 2.384,2.919 2.35,3.03 2.301,3.14 2.237,3.248 2.174,3.356 2.095,3.453 2.001,3.538 1.908,3.623 1.796,3.692 1.667,3.745 1.537,3.798 1.388,3.825 1.218,3.825 1.022,3.825 0.847,3.793 0.691,3.729 0.537,3.666 0.405,3.577 0.296,3.465 0.188,3.352 0.105,3.221 0.048,3.073 -0.01,2.924 -0.039,2.764 -0.039,2.594 -0.039,2.458 -0.023,2.327 0.006,2.199 0.036,2.072 0.085,1.944 0.153,1.817 0.221,1.689 0.307,1.559 0.411,1.425 0.515,1.291 0.642,1.147 0.791,0.994 l 2.53,-2.607 c 0.153,0.28 0.274,0.572 0.364,0.877 0.089,0.303 0.148,0.611 0.178,0.921 0.009,0.089 0.038,0.16 0.09,0.213 0.05,0.053 0.118,0.08 0.203,0.08 H 5.004 C 5,-0.053 4.92,-0.564 4.765,-1.055 4.61,-1.546 4.392,-2.002 4.112,-2.423 Z"
               style="fill:#ffffff;fill-opacity:1;fill-rule:nonzero;stroke:none"
               id="path352" />
          </g>
          <g
             id="g354"
             transform="translate(151.54025,9.4478)">
            <path
               d="m 0,0 c -0.047,-0.077 -0.096,-0.133 -0.147,-0.169 -0.051,-0.036 -0.115,-0.054 -0.191,-0.054 -0.081,0 -0.171,0.034 -0.271,0.102 -0.1,0.068 -0.223,0.143 -0.37,0.226 -0.146,0.083 -0.319,0.16 -0.519,0.229 -0.2,0.071 -0.438,0.106 -0.714,0.106 -0.255,0 -0.479,-0.032 -0.673,-0.096 -0.193,-0.064 -0.356,-0.153 -0.488,-0.267 -0.131,-0.115 -0.23,-0.25 -0.296,-0.406 -0.066,-0.154 -0.099,-0.323 -0.099,-0.506 0,-0.234 0.062,-0.428 0.185,-0.583 0.124,-0.156 0.286,-0.289 0.488,-0.399 0.201,-0.111 0.432,-0.207 0.692,-0.29 0.258,-0.083 0.523,-0.171 0.793,-0.265 0.27,-0.093 0.535,-0.199 0.794,-0.318 0.259,-0.12 0.49,-0.27 0.691,-0.453 0.202,-0.183 0.365,-0.406 0.488,-0.67 0.123,-0.263 0.185,-0.583 0.185,-0.962 0,-0.408 -0.07,-0.79 -0.21,-1.147 -0.141,-0.357 -0.343,-0.669 -0.609,-0.934 -0.266,-0.266 -0.593,-0.476 -0.982,-0.628 -0.389,-0.153 -0.832,-0.23 -1.329,-0.23 -0.293,0 -0.579,0.029 -0.857,0.086 -0.279,0.058 -0.544,0.138 -0.797,0.242 -0.253,0.105 -0.49,0.231 -0.711,0.38 -0.221,0.149 -0.419,0.314 -0.593,0.497 l 0.434,0.714 c 0.038,0.06 0.086,0.106 0.146,0.14 0.06,0.034 0.126,0.051 0.198,0.051 0.097,0 0.206,-0.045 0.325,-0.137 0.119,-0.091 0.262,-0.191 0.43,-0.3 0.168,-0.108 0.371,-0.208 0.609,-0.299 0.238,-0.092 0.523,-0.137 0.854,-0.137 0.54,0 0.958,0.132 1.253,0.395 0.295,0.264 0.443,0.627 0.443,1.09 0,0.26 -0.062,0.471 -0.185,0.635 -0.123,0.163 -0.286,0.3 -0.488,0.411 -0.202,0.11 -0.432,0.204 -0.691,0.28 -0.26,0.077 -0.523,0.159 -0.791,0.246 -0.268,0.087 -0.531,0.189 -0.79,0.306 -0.26,0.116 -0.49,0.27 -0.692,0.459 -0.202,0.189 -0.365,0.423 -0.488,0.701 -0.123,0.278 -0.185,0.626 -0.185,1.042 0,0.332 0.065,0.653 0.195,0.963 0.13,0.31 0.318,0.585 0.567,0.825 0.249,0.241 0.556,0.433 0.921,0.578 0.366,0.144 0.783,0.216 1.25,0.216 0.527,0 1.011,-0.083 1.45,-0.249 0.44,-0.165 0.819,-0.401 1.138,-0.707 z"
               style="fill:#ffffff;fill-opacity:1;fill-rule:nonzero;stroke:none"
               id="path356" />
          </g>
          <g
             id="g358"
             transform="translate(160.06992,3.8823)">
            <path
               d="M 0,0 C 0.081,0 0.15,-0.032 0.21,-0.096 L 0.803,-0.74 c -0.374,-0.45 -0.833,-0.798 -1.377,-1.042 -0.544,-0.244 -1.194,-0.366 -1.951,-0.366 -0.671,0 -1.278,0.115 -1.82,0.347 -0.542,0.232 -1.004,0.555 -1.386,0.969 -0.383,0.415 -0.677,0.909 -0.883,1.482 -0.206,0.574 -0.309,1.205 -0.309,1.893 0,0.689 0.109,1.321 0.328,1.897 0.219,0.576 0.527,1.071 0.924,1.486 0.398,0.414 0.874,0.736 1.428,0.966 0.555,0.229 1.166,0.344 1.833,0.344 0.663,0 1.248,-0.108 1.756,-0.322 C -0.146,6.699 0.295,6.413 0.669,6.056 L 0.178,5.361 C 0.144,5.314 0.104,5.274 0.057,5.24 0.01,5.206 -0.053,5.189 -0.134,5.189 c -0.085,0 -0.182,0.04 -0.29,0.118 -0.109,0.079 -0.247,0.166 -0.414,0.261 -0.168,0.096 -0.379,0.183 -0.632,0.262 -0.253,0.079 -0.568,0.118 -0.947,0.118 -0.437,0 -0.839,-0.076 -1.204,-0.23 C -3.987,5.565 -4.301,5.342 -4.565,5.049 -4.828,4.756 -5.033,4.399 -5.18,3.978 -5.327,3.557 -5.4,3.079 -5.4,2.543 c 0,-0.539 0.077,-1.021 0.23,-1.443 0.153,-0.423 0.363,-0.78 0.631,-1.071 0.268,-0.292 0.582,-0.513 0.943,-0.667 0.362,-0.153 0.75,-0.229 1.167,-0.229 0.255,0 0.483,0.014 0.685,0.041 0.202,0.028 0.388,0.073 0.558,0.134 0.17,0.062 0.331,0.139 0.481,0.233 0.151,0.093 0.301,0.208 0.45,0.344 C -0.17,-0.038 -0.085,0 0,0"
               style="fill:#ffffff;fill-opacity:1;fill-rule:nonzero;stroke:none"
               id="path360" />
          </g>
          <g
             id="g362"
             transform="translate(163.66525,1.8359)">
            <path
               d="M 0,0 H -1.498 V 9.18 H 0 V 5.873 Z"
               style="fill:#ffffff;fill-opacity:1;fill-rule:nonzero;stroke:none"
               id="path364" />
          </g>
          <g
             id="g366"
             transform="translate(171.57662,3.041)">
            <path
               d="m 0,0 -0.006,-1.205 h -5.725 v 9.18 h 5.725 V 6.77 H -4.233 V 4.003 h 3.379 V 2.837 H -4.233 V 0 Z"
               style="fill:#ffffff;fill-opacity:1;fill-rule:nonzero;stroke:none"
               id="path368" />
          </g>
          <g
             id="g370"
             transform="translate(180.78822,11.0161)">
            <path
               d="m 0,0 v -9.18 h -0.758 c -0.115,0 -0.213,0.02 -0.294,0.06 -0.08,0.041 -0.157,0.108 -0.229,0.201 l -5.043,6.477 c 0.013,-0.123 0.022,-0.245 0.029,-0.367 0.006,-0.121 0.009,-0.232 0.009,-0.334 V -9.18 H -7.599 V 0 h 0.778 c 0.064,0 0.118,-0.003 0.162,-0.01 0.045,-0.006 0.087,-0.018 0.125,-0.035 0.038,-0.017 0.074,-0.042 0.108,-0.076 0.034,-0.034 0.07,-0.077 0.109,-0.128 l 5.048,-6.483 c -0.012,0.131 -0.022,0.261 -0.028,0.389 -0.007,0.127 -0.01,0.246 -0.01,0.357 V 0 Z"
               style="fill:#ffffff;fill-opacity:1;fill-rule:nonzero;stroke:none"
               id="path372" />
          </g>
          <g
             id="g374"
             transform="translate(189.3503,3.8823)">
            <path
               d="M 0,0 C 0.081,0 0.15,-0.032 0.21,-0.096 L 0.803,-0.74 c -0.374,-0.45 -0.833,-0.798 -1.377,-1.042 -0.544,-0.244 -1.194,-0.366 -1.951,-0.366 -0.671,0 -1.278,0.115 -1.82,0.347 -0.542,0.232 -1.004,0.555 -1.386,0.969 -0.383,0.415 -0.677,0.909 -0.883,1.482 -0.206,0.574 -0.309,1.205 -0.309,1.893 0,0.689 0.109,1.321 0.328,1.897 0.219,0.576 0.527,1.071 0.924,1.486 0.398,0.414 0.874,0.736 1.428,0.966 0.555,0.229 1.166,0.344 1.833,0.344 0.663,0 1.248,-0.108 1.756,-0.322 C -0.146,6.699 0.295,6.413 0.669,6.056 L 0.178,5.361 C 0.144,5.314 0.104,5.274 0.057,5.24 0.01,5.206 -0.053,5.189 -0.134,5.189 c -0.085,0 -0.182,0.04 -0.29,0.118 -0.109,0.079 -0.247,0.166 -0.414,0.261 -0.168,0.096 -0.379,0.183 -0.632,0.262 -0.253,0.079 -0.568,0.118 -0.947,0.118 -0.437,0 -0.839,-0.076 -1.204,-0.23 C -3.987,5.565 -4.301,5.342 -4.565,5.049 -4.828,4.756 -5.033,4.399 -5.18,3.978 -5.327,3.557 -5.4,3.079 -5.4,2.543 c 0,-0.539 0.077,-1.021 0.23,-1.443 0.153,-0.423 0.363,-0.78 0.631,-1.071 0.268,-0.292 0.582,-0.513 0.943,-0.667 0.362,-0.153 0.75,-0.229 1.167,-0.229 0.255,0 0.483,0.014 0.685,0.041 0.202,0.028 0.388,0.073 0.558,0.134 0.17,0.062 0.331,0.139 0.481,0.233 0.151,0.093 0.301,0.208 0.45,0.344 C -0.17,-0.038 -0.085,0 0,0"
               style="fill:#ffffff;fill-opacity:1;fill-rule:nonzero;stroke:none"
               id="path376" />
          </g>
          <g
             id="g378"
             transform="translate(197.17862,3.041)">
            <path
               d="m 0,0 -0.006,-1.205 h -5.725 v 9.18 h 5.725 V 6.77 H -4.233 V 4.003 h 3.379 V 2.837 H -4.233 V 0 Z"
               style="fill:#ffffff;fill-opacity:1;fill-rule:nonzero;stroke:none"
               id="path380" />
          </g>
        </g>
      </g>
    </g>
  </g>
</svg>
