<?xml version="1.0" encoding="UTF-8" standalone="no"?>
<!-- Created with Inkscape (http://www.inkscape.org/) -->

<svg
   version="1.1"
   id="svg2385"
   width="272.74667"
   height="428.90668"
   viewBox="0 0 272.74667 428.90668"
   sodipodi:docname="uw-crest-black-print.svg"
   inkscape:version="1.2.2 (b0a8486541, 2022-12-01)"
   xmlns:inkscape="http://www.inkscape.org/namespaces/inkscape"
   xmlns:sodipodi="http://sodipodi.sourceforge.net/DTD/sodipodi-0.dtd"
   xmlns="http://www.w3.org/2000/svg"
   xmlns:svg="http://www.w3.org/2000/svg">
  <defs
     id="defs2389" />
  <sodipodi:namedview
     id="namedview2387"
     pagecolor="#ffffff"
     bordercolor="#cccccc"
     borderopacity="1"
     inkscape:showpageshadow="0"
     inkscape:pageopacity="1"
     inkscape:pagecheckerboard="0"
     inkscape:deskcolor="#d1d1d1"
     showgrid="false"
     inkscape:zoom="0.55023625"
     inkscape:cx="93.59616"
     inkscape:cy="215.36204"
     inkscape:window-width="1920"
     inkscape:window-height="1141"
     inkscape:window-x="0"
     inkscape:window-y="0"
     inkscape:window-maximized="1"
     inkscape:current-layer="g2393">
    <inkscape:page
       x="0"
       y="0"
       id="page2391"
       width="272.74667"
       height="428.90668" />
  </sodipodi:namedview>
  <g
     id="g2393"
     inkscape:groupmode="layer"
     inkscape:label="Page 1"
     transform="matrix(1.3333333,0,0,-1.3333333,0,428.90667)">
    <g
       id="g2395"
       transform="scale(0.1)">
      <path
         d="m 1022.78,10.2891 c -5.99,1.6093 -23.608,19.9414 -38.846,42.7929 l -2.293,3.418 -4.016,0.9297 C 309.648,213.148 -62.4648,1238.57 21.3633,2061.45 c 9.7148,95.02 25.6055,184.49 47.3633,267.34 22.2968,84.79 51.1254,164.04 85.6954,235.52 38.598,79.84 85.156,149.89 138.375,208.18 110.961,121.58 248.133,186.96 396.672,189.06 3.406,0.09 13.051,0.35 13.883,9.29 26,52.96 92.91,89.96 142.859,96.92 l 6.973,0.98 1.707,6.84 c 1.386,5.57 33.195,130.95 168.019,130.95 135.21,0 167.72,-128.97 168.06,-130.33 l 1.66,-6.88 7.02,-0.98 c 50.02,-7 116.55,-44.46 142.67,-97.3 0.7,-9.12 10.4,-9.4 13.68,-9.49 148.7,-2.1 285.87,-67.48 396.82,-189.06 61,-66.14 113.61,-149.32 156.41,-247.28 l 8.63,-20.35 c 53.76,-129.07 89.56,-278.26 106.39,-443.41 C 2108.02,1238.54 1735.91,213.148 1067.99,57.4297 l -4.02,-0.9297 -2.29,-3.418 c -15.24,-22.8515 -32.87,-41.1523 -38.9,-42.7929"
         style="fill:#ffffff;fill-opacity:1;fill-rule:nonzero;stroke:none"
         id="path2397" />
      <path
         d="m 2006.66,1601.23 c -11.57,-134.69 -33.58,-268.53 -65.98,-399.77 -31.7,-128.43 -73.38,-254.538 -126.21,-375.858 -54.66,-125.52 -122.75,-247.704 -205.46,-356.961 -17.24,-22.77 -35.1,-45.082 -53.67,-66.789 -27.23,-31.852 -56.13,-62.293 -86.7,-90.973 -37.14,-34.859 -77.19,-67.399 -119.63,-96.52 -66.84,-45.879 -139.78,-82.769 -216.3,-107.98 -15.49,-5.109 -15.95,-6.008 -34.41,-10.1602 15,32.0902 26.12,70.8202 24.51,114.3122 27.88,9.899 55.04,21.778 81.36,35.289 116.74,59.91 217.88,151.61 299.81,253.328 81.6,101.313 147.69,215.122 201.98,332.512 54.04,116.852 96.82,238.84 129.99,363.19 34.15,127.98 58.14,258.72 71.84,390.46 13.54,130.15 17.23,261.6 8.44,392.2 -9.58,142.36 -33.47,284.48 -81.13,419.29 -37.06,104.8 -89.02,207.5 -164.65,289.94 -77.7,84.71 -182.18,143.33 -299.14,143.53 -78.17,0.13 -132.07,-59.52 -148.15,-135.94 -13.07,-61.47 -0.35,-138.03 38.64,-188.07 16.5,-17.05 13.83,-21.84 8.73,-21.9 -33.24,-0.31 -202.89,25.99 -188.34,192.41 9.41,108.45 62.41,179.8 122.93,222.82 54.91,34.52 117.34,38.58 143.11,38.58 31.62,0 63.25,-1.95 94.35,-7.72 12.58,-1.76 26.43,-6.37 38.04,-9.52 12.77,-3.47 25.4,-7.46 37.85,-11.95 24.5,-8.84 48.31,-19.62 71.18,-32.07 54.88,-29.88 103.15,-69.24 146.13,-114.38 46.1,-48.42 84.1,-104.89 116.02,-163.46 31.23,-57.28 56.46,-117.55 77.47,-179.27 22.92,-67.32 39.85,-136.7 52.62,-206.63 12.85,-70.3 21.39,-141.34 27.28,-212.55 10.99,-132.66 8.89,-266.84 -2.51,-399.39 z M 1034.31,49.3906 c -0.45,-0.5312 -5.83,-7.0703 -11.51,-7.7422 -5.68,0.6719 -11.06,7.211 -11.51,7.7422 -28.864,36.2383 -71.919,106.5894 -55.696,190.5584 4.586,23.641 44.34,34.313 67.206,34.563 22.86,-0.25 62.62,-10.922 67.2,-34.563 16.23,-83.969 -26.83,-154.3201 -55.69,-190.5584 z M 912.887,106.379 c -76.52,25.211 -149.457,62.101 -216.293,107.98 -42.446,29.121 -82.496,61.661 -119.641,96.52 -30.562,28.68 -59.461,59.121 -86.699,90.973 -18.563,21.707 -36.426,44.019 -53.664,66.789 -82.715,109.257 -150.801,231.441 -205.465,356.961 -52.824,121.32 -94.508,247.428 -126.211,375.858 -32.4023,131.24 -54.4023,265.08 -65.9765,399.77 -11.3945,132.55 -13.5039,266.73 -2.5156,399.39 5.9023,71.21 14.4375,142.25 27.2851,212.55 12.7735,69.93 29.6993,139.31 52.617,206.63 21.012,61.72 46.242,121.99 77.469,179.27 31.93,58.57 69.922,115.04 116.023,163.46 42.981,45.14 91.247,84.5 146.125,114.38 22.883,12.45 46.68,23.23 71.192,32.07 12.445,4.49 25.07,8.48 37.844,11.95 11.609,3.15 26.207,7.94 38.039,9.52 31.097,5.77 62.726,7.72 94.351,7.72 25.774,0 88.203,-4.06 143.11,-38.58 60.527,-43.02 113.527,-114.37 122.925,-222.82 14.555,-166.42 -155.093,-192.72 -188.339,-192.41 -5.094,0.06 -7.762,4.85 8.738,21.9 38.984,50.04 51.707,126.6 38.637,188.07 -16.086,76.42 -69.977,136.07 -148.149,135.94 -116.965,-0.2 -221.441,-58.82 -299.144,-143.53 -75.622,-82.44 -127.59,-185.14 -164.641,-289.94 -47.668,-134.81 -71.555,-276.93 -81.137,-419.29 -8.789,-130.6 -5.101,-262.05 8.438,-392.2 13.707,-131.74 37.699,-262.48 71.84,-390.46 C 242.816,1070.5 285.598,948.512 339.637,831.66 393.926,714.27 460.02,600.461 541.621,499.148 623.551,397.43 724.688,305.73 841.426,245.82 c 26.32,-13.511 53.48,-25.39 81.363,-35.289 -1.609,-43.492 9.504,-82.222 24.512,-114.3122 -18.465,4.1522 -18.918,5.0512 -34.414,10.1602 z M 1672.89,1916.17 c -22.93,139.98 -92.29,324.22 -242.38,418.75 177.78,104.34 254.87,218.81 272.49,264.59 99.19,-140.88 167.64,-352.37 183.69,-621.89 -36.3,-18.94 -113.37,-52.66 -213.8,-61.45 z M 1459.92,869.391 c 61.83,109.148 114.21,223.889 152.37,343.489 27.96,87.68 48.42,178.23 61.16,269.87 13.45,96.82 18.29,194.86 14.26,292.01 -1.11,27.02 -4.15,70.34 -11.73,121.9 96.96,8.52 171.78,39.09 211.91,59.28 19.27,-395.05 -67.64,-833.27 -238.39,-1172.799 -31.89,6.25 -126.47,28.859 -189.58,86.25 z M 1138.44,478.359 c 85.7,61.551 198.05,178.121 311.38,373.52 63.6,-56.02 152.42,-79.219 190.25,-86.957 C 1541.7,574.75 1416.64,417.211 1268.85,317.84 c -25.83,19.992 -99.36,81.789 -130.41,160.519 z M 924.27,466.41 c 45.738,-33.328 92.45,-52.289 98.53,-54.23 6.08,1.941 52.79,20.902 98.53,54.23 32.27,-76.601 99.59,-135.91 130.22,-160.07 -42.23,-26.738 -86.17,-48.942 -131.89,-65.66 -0.29,1.621 -0.41,3.23 -0.68,4.871 -9.45,48.629 -72.97,58.578 -96.18,58.64 -23.21,-0.062 -86.734,-10.011 -96.179,-58.64 -0.269,-1.641 -0.394,-3.25 -0.687,-4.871 -45.715,16.718 -89.657,38.922 -131.887,65.66 30.637,24.16 97.949,83.469 130.223,160.07 z M 595.777,851.879 C 709.109,656.48 821.457,539.91 907.156,478.359 876.105,399.629 802.578,337.832 776.75,317.84 628.957,417.211 503.902,574.75 405.527,764.922 c 37.832,7.738 126.653,30.937 190.25,86.957 z M 158.91,1977.62 c 16.047,269.52 84.496,481.01 183.688,621.89 17.617,-45.78 94.707,-160.25 272.492,-264.59 -151.102,-90.91 -219.453,-278.77 -242.387,-418.75 -100.422,8.79 -177.5,42.51 -213.793,61.45 z m 210.703,-80.96 c -7.578,-51.56 -10.609,-94.88 -11.73,-121.9 -4.024,-97.15 0.816,-195.19 14.269,-292.01 12.735,-91.64 33.192,-182.19 61.161,-269.87 38.152,-119.6 90.535,-234.341 152.363,-343.489 -63.11,-57.391 -157.688,-80 -189.574,-86.25 -170.754,339.529 -257.668,777.749 -238.395,1172.799 40.133,-20.19 114.949,-50.76 211.906,-59.28 z M 954.25,3026.61 c 28.426,-17.52 50.73,-45.18 58.7,-77.61 2.36,-9.58 5.99,-15.3 9.85,-15.3 3.86,0 7.49,5.72 9.85,15.3 7.97,32.43 30.27,60.09 58.7,77.61 85.99,53.02 183.5,17.93 222.54,-58.39 -19.93,-3.38 -37.54,-8.28 -61.45,-15.45 -34.65,-11.95 -63.26,-26.58 -87.61,-48.7 -54.69,-49.69 -103.11,-126.64 -112.09,-224.69 -24.56,-269.52 284.56,-227.2 300.14,-225.89 39.95,0 70.11,62.9 70.11,146.29 0,83.45 -30.97,146.37 -70.11,146.37 -23.95,0 -65.39,-19.16 -69.25,-93.85 -2.69,-52.48 22.98,-122.24 56.15,-126.6 17.19,-2.27 32.93,28.17 37.84,58.99 4.36,26.82 2.08,68.89 -21.87,74.89 -7.55,1.92 -15.18,-2.72 -17.1,-10.31 -1.73,-6.86 14.84,-18.55 14.23,-49.45 -0.95,-46.12 -47.3,-23.07 -41.09,50.15 5.59,64.96 38.76,60.83 40.14,60.9 18.56,0 46.5,-38.68 46.5,-111.09 0,-64.41 -31.11,-133.75 -90.5,-97.55 -50.02,36.59 -69.77,120.8 -55.94,185.97 6.29,29.91 32.09,111.32 115.33,111.32 120.12,0 232.06,-63.11 321.36,-180.51 -9.79,-31.5 -71.69,-151.19 -268.46,-265.77 -4.22,-2.13 -10.42,-5.72 -10.76,-5.58 -60.05,24.42 -116.38,39.67 -181.87,35.93 -57.96,-3.3 -114.54,-13.92 -170.91,-27.12 -11.11,-2.6 -22.47,-5.54 -33.88,-5.54 v 0 c -11.41,0 -22.78,2.94 -33.882,5.54 -56.375,13.2 -112.949,23.82 -170.914,27.12 -65.484,3.74 -121.82,-11.51 -181.863,-35.93 -0.344,-0.14 -6.547,3.45 -10.766,5.58 -196.766,114.58 -258.672,234.27 -268.453,265.77 89.301,117.4 201.234,180.51 321.355,180.51 83.235,0 109.036,-81.41 115.328,-111.32 13.829,-65.17 -5.914,-149.38 -55.941,-185.97 -59.387,-36.2 -90.496,33.14 -90.496,97.55 0,72.41 27.941,111.09 46.504,111.09 1.375,-0.07 34.543,4.06 40.141,-60.9 6.203,-73.22 -40.141,-96.27 -41.098,-50.15 -0.606,30.9 15.961,42.59 14.234,49.45 -1.926,7.59 -9.554,12.23 -17.101,10.31 -23.953,-6 -26.231,-48.07 -21.875,-74.89 4.91,-30.82 20.648,-61.26 37.84,-58.99 33.171,4.36 58.847,74.12 56.152,126.6 -3.856,74.69 -45.297,93.85 -69.25,93.85 -39.133,0 -70.106,-62.92 -70.106,-146.37 0,-83.39 30.157,-146.29 70.106,-146.29 15.586,-1.31 324.695,-43.63 300.14,225.89 -8.976,98.05 -57.398,175 -112.085,224.69 -24.348,22.12 -52.961,36.75 -87.618,48.7 -23.898,7.17 -41.511,12.07 -61.449,15.45 39.043,76.32 136.551,111.41 222.547,58.39 z m 68.55,157.99 c 118.43,0.01 144.52,-100.62 144.7,-101.67 -58.86,-3.99 -113.75,-39.64 -142.13,-91.04 -0.43,-0.78 -1.47,-3.44 -2.57,-3.44 -1.26,0 -2.14,2.66 -2.57,3.44 -28.382,51.4 -83.273,87.05 -142.136,91.04 0.183,1.05 26.277,101.68 144.706,101.67 z M 2033.71,2062.43 c -6.91,68.05 -17.26,135.78 -31.78,202.63 -13.35,61.51 -30.23,122.3 -51.38,181.6 -22.27,62.47 -49.26,123.82 -82,181.54 -30.76,54.23 -66.88,105.18 -108.93,151.24 -112.08,122.79 -250.51,190.49 -404.02,192.67 l -3.35,-0.02 c -24.91,54.59 -93.62,98.96 -153.33,107.27 0,0 -32.09,136.8 -176.12,137.46 -144.034,-0.66 -176.116,-137.46 -176.116,-137.46 -59.715,-8.31 -128.426,-52.68 -153.332,-107.27 L 690,2972.11 C 536.484,2969.93 398.055,2902.23 285.977,2779.44 243.93,2733.38 207.813,2682.43 177.051,2628.2 144.313,2570.48 117.32,2509.13 95.0469,2446.66 73.8984,2387.36 57.0195,2326.57 43.6641,2265.06 29.1523,2198.21 18.8008,2130.48 11.8906,2062.43 -73.0195,1228.92 301.879,204.391 976.164,47.1914 986.426,31.8203 1009.9,0 1022.8,0 c 12.9,0 36.37,31.8203 46.63,47.1914 C 1743.72,204.391 2118.62,1228.92 2033.71,2062.43"
         style="fill:#231f20;fill-opacity:1;fill-rule:nonzero;stroke:none"
         id="path2399" />
      <path
         d="m 1651.03,1769.48 c -4.17,99.08 -33.11,401.57 -238.94,532.8 -44.5,28.31 -102.92,40.81 -161.63,44.62 -101.07,6.58 -175.97,-32.05 -226.4,-33.47 h -2.52 c -50.438,1.42 -125.931,40.05 -226.989,33.47 -58.656,-3.81 -116.543,-16.31 -161.035,-44.62 C 427.711,2171.05 398.742,1868.56 394.57,1769.48 379.863,1419.01 490.672,1145.3 525.027,1069.77 667.473,756.148 839.395,534.461 1009.2,459.059 l 13.57,-6.079 13.69,6.079 c 169.72,75.402 341.72,297.089 484.09,610.711 34.35,75.53 145.17,349.24 130.48,699.71"
         style="fill:#231f20;fill-opacity:1;fill-rule:nonzero;stroke:none"
         id="path2401" />
      <path
         d="m 1328.58,2007.33 v -68.48 l 13.84,2.11 c 0.21,0.04 2.83,0.38 6.47,0.38 7.59,0 21.52,-1.32 30.24,-10.22 8.21,-8.35 10.82,-22.44 7.89,-40.94 -0.26,-0.69 -137.74,-596.7 -163.89,-710.29 -30.1,143.62 -193.92,927.83 -193.92,927.83 l -0.68,3.33 h -32.487 l -0.52,-3.52 c 0,0 -118.523,-763.42 -142.214,-916.21 -30.899,132.26 -162.961,698.17 -162.961,698.17 -0.379,3.62 -0.532,7.07 -0.532,10.28 0,16.02 3.774,27.8 11.356,35.03 10.035,9.65 25.242,8.29 26.594,8.15 l 13.597,-1.79 0.106,66.17 H 511.453 v -64.73 l 10.172,-1.6 c 5.039,-0.98 30.684,-7.19 34.902,-30.65 0.059,-0.39 269.11,-1154.998 280.543,-1204.112 l 0.789,-3.226 h 40.461 l 0.469,3.5 c 1.274,7.988 110.789,724.608 131.261,858.828 26.01,-133.64 165.47,-851.059 166.97,-858.961 l 0.69,-3.367 h 36.11 l 267.06,1208.018 c 6.16,25.08 28.17,27.76 37.39,27.76 1.33,0 2.23,-0.05 2.67,-0.11 l 13.2,-1.06 v 69.71 h -205.56"
         style="fill:#ffffff;fill-opacity:1;fill-rule:nonzero;stroke:none"
         id="path2403" />
    </g>
  </g>
</svg>
