<?xml version="1.0" encoding="utf-8" ?>
<svg xmlns="http://www.w3.org/2000/svg" xmlns:ev="http://www.w3.org/2001/xml-events" xmlns:xlink="http://www.w3.org/1999/xlink" baseProfile="full" height="500" version="1.1" width="1400">
  <defs>
    <style type="text/css"><![CDATA[.background path {fill: #808080; fill-opacity: 0}.background path:nth-child(odd) {fill-opacity: .1}.axes {font-size: 14px}.x-axis .tick .lab {font-weight: bold; dominant-baseline: hanging}.axes, .tree {font-size: 14px; text-anchor: middle}.axes line, .edge {stroke: black; fill: none}.axes .ax-skip {stroke-dasharray: 4}.y-axis .grid {stroke: #FAFAFA}.node > .sym {fill: black; stroke: none}.site > .sym {stroke: black}.mut text {fill: red; font-style: italic}.mut.extra text {fill: hotpink}.mut line {fill: none; stroke: none}.mut .sym {fill: none; stroke: red}.mut.extra .sym {stroke: hotpink}.node .mut .sym {stroke-width: 1.5px}.tree text, .tree-sequence text {dominant-baseline: central}.plotbox .lab.lft {text-anchor: end}.plotbox .lab.rgt {text-anchor: start}]]></style>
  </defs>
  <g class="tree-sequence">
    <g class="axes">
      <g class="x-axis">
        <g class="title" transform="translate(718.4 500)">
          <text class="lab" text-anchor="middle" transform="translate(0 -11)">Genome position</text>
        </g>
        <line class="ax-line" x1="56.8" x2="1380" y1="463.2" y2="463.2"/>
        <g class="ticks">
          <g class="tick" transform="translate(56.8 463.2)">
            <line x1="0" x2="0" y1="-5" y2="5"/>
            <g transform="translate(0 6)">
              <text class="lab">0</text>
            </g>
          </g>
          <g class="tick" transform="translate(321.44 463.2)">
            <line x1="0" x2="0" y1="-5" y2="5"/>
            <g transform="translate(0 6)">
              <text class="lab">181</text>
            </g>
          </g>
          <g class="tick" transform="translate(586.08 463.2)">
            <line x1="0" x2="0" y1="-5" y2="5"/>
            <g transform="translate(0 6)">
              <text class="lab">352</text>
            </g>
          </g>
          <g class="tick" transform="translate(850.72 463.2)">
            <line x1="0" x2="0" y1="-5" y2="5"/>
            <g transform="translate(0 6)">
              <text class="lab">582</text>
            </g>
          </g>
          <g class="tick" transform="translate(1115.36 463.2)">
            <line x1="0" x2="0" y1="-5" y2="5"/>
            <g transform="translate(0 6)">
              <text class="lab">967</text>
            </g>
          </g>
        </g>
      </g>
      <g class="y-axis">
        <g class="title" transform="translate(0 215.7)">
          <text class="lab" text-anchor="middle" transform="translate(11) rotate(-90)">Time (generations)</text>
        </g>
        <line class="ax-line" x1="56.8" x2="56.8" y1="421.4" y2="10"/>
        <g class="ticks">
          <g class="tick" transform="translate(56.8 421.4)">
            <line class="grid" x1="0" x2="1323.2" y1="0" y2="0"/>
            <line x1="0" x2="-5" y1="0" y2="0"/>
            <g transform="translate(-6 0)">
              <text class="lab" text-anchor="end">0</text>
            </g>
          </g>
          <g class="tick" transform="translate(56.8 388.721)">
            <line class="grid" x1="0" x2="1323.2" y1="0" y2="0"/>
            <line x1="0" x2="-5" y1="0" y2="0"/>
            <g transform="translate(-6 0)">
              <text class="lab" text-anchor="end">20000</text>
            </g>
          </g>
          <g class="tick" transform="translate(56.8 356.041)">
            <line class="grid" x1="0" x2="1323.2" y1="0" y2="0"/>
            <line x1="0" x2="-5" y1="0" y2="0"/>
            <g transform="translate(-6 0)">
              <text class="lab" text-anchor="end">40000</text>
            </g>
          </g>
          <g class="tick" transform="translate(56.8 323.362)">
            <line class="grid" x1="0" x2="1323.2" y1="0" y2="0"/>
            <line x1="0" x2="-5" y1="0" y2="0"/>
            <g transform="translate(-6 0)">
              <text class="lab" text-anchor="end">60000</text>
            </g>
          </g>
          <g class="tick" transform="translate(56.8 290.683)">
            <line class="grid" x1="0" x2="1323.2" y1="0" y2="0"/>
            <line x1="0" x2="-5" y1="0" y2="0"/>
            <g transform="translate(-6 0)">
              <text class="lab" text-anchor="end">80000</text>
            </g>
          </g>
          <g class="tick" transform="translate(56.8 258.004)">
            <line class="grid" x1="0" x2="1323.2" y1="0" y2="0"/>
            <line x1="0" x2="-5" y1="0" y2="0"/>
            <g transform="translate(-6 0)">
              <text class="lab" text-anchor="end">100000</text>
            </g>
          </g>
          <g class="tick" transform="translate(56.8 225.324)">
            <line class="grid" x1="0" x2="1323.2" y1="0" y2="0"/>
            <line x1="0" x2="-5" y1="0" y2="0"/>
            <g transform="translate(-6 0)">
              <text class="lab" text-anchor="end">120000</text>
            </g>
          </g>
          <g class="tick" transform="translate(56.8 192.645)">
            <line class="grid" x1="0" x2="1323.2" y1="0" y2="0"/>
            <line x1="0" x2="-5" y1="0" y2="0"/>
            <g transform="translate(-6 0)">
              <text class="lab" text-anchor="end">140000</text>
            </g>
          </g>
          <g class="tick" transform="translate(56.8 159.966)">
            <line class="grid" x1="0" x2="1323.2" y1="0" y2="0"/>
            <line x1="0" x2="-5" y1="0" y2="0"/>
            <g transform="translate(-6 0)">
              <text class="lab" text-anchor="end">160000</text>
            </g>
          </g>
          <g class="tick" transform="translate(56.8 127.287)">
            <line class="grid" x1="0" x2="1323.2" y1="0" y2="0"/>
            <line x1="0" x2="-5" y1="0" y2="0"/>
            <g transform="translate(-6 0)">
              <text class="lab" text-anchor="end">180000</text>
            </g>
          </g>
          <g class="tick" transform="translate(56.8 94.6074)">
            <line class="grid" x1="0" x2="1323.2" y1="0" y2="0"/>
            <line x1="0" x2="-5" y1="0" y2="0"/>
            <g transform="translate(-6 0)">
              <text class="lab" text-anchor="end">200000</text>
            </g>
          </g>
          <g class="tick" transform="translate(56.8 61.9281)">
            <line class="grid" x1="0" x2="1323.2" y1="0" y2="0"/>
            <line x1="0" x2="-5" y1="0" y2="0"/>
            <g transform="translate(-6 0)">
              <text class="lab" text-anchor="end">220000</text>
            </g>
          </g>
          <g class="tick" transform="translate(56.8 29.2489)">
            <line class="grid" x1="0" x2="1323.2" y1="0" y2="0"/>
            <line x1="0" x2="-5" y1="0" y2="0"/>
            <g transform="translate(-6 0)">
              <text class="lab" text-anchor="end">240000</text>
            </g>
          </g>
          <g class="tick" transform="translate(56.8 -3.43038)">
            <line class="grid" x1="0" x2="1323.2" y1="0" y2="0"/>
            <line x1="0" x2="-5" y1="0" y2="0"/>
            <g transform="translate(-6 0)">
              <text class="lab" text-anchor="end">260000</text>
            </g>
          </g>
          <g class="tick" transform="translate(56.8 -36.1096)">
            <line class="grid" x1="0" x2="1323.2" y1="0" y2="0"/>
            <line x1="0" x2="-5" y1="0" y2="0"/>
            <g transform="translate(-6 0)">
              <text class="lab" text-anchor="end">280000</text>
            </g>
          </g>
          <g class="tick" transform="translate(56.8 -68.7889)">
            <line class="grid" x1="0" x2="1323.2" y1="0" y2="0"/>
            <line x1="0" x2="-5" y1="0" y2="0"/>
            <g transform="translate(-6 0)">
              <text class="lab" text-anchor="end">300000</text>
            </g>
          </g>
        </g>
      </g>
    </g>
    <g class="plotbox trees">
      <g class="tree t-1" transform="translate(56.8 0)">
        <g class="plotbox">
          <g class="c2 node n1220 p0 root" transform="translate(132.32 26.8)">
            <g class="a1220 c2 node n401 p3" transform="translate(56.16 350.185)">
              <g class="a401 c2 node n200 p5" transform="translate(-28.08 21.901)">
                <g class="a200 i2 leaf node n4 p5 sample" transform="translate(-14.04 20.8804)">
                  <path class="edge" d="M 0 0 V -20.8804 H 14.04"/>
                  <rect class="sym" height="6" width="6" x="-3" y="-3"/>
                  <text class="lab" transform="translate(0 11)">4:N</text>
                </g>
                <g class="a200 i2 leaf node n5 p5 sample" transform="translate(14.04 20.8804)">
                  <path class="edge" d="M 0 0 V -20.8804 H -14.04"/>
                  <rect class="sym" height="6" width="6" x="-3" y="-3"/>
                  <text class="lab" transform="translate(0 11)">5:N</text>
                </g>
                <path class="edge" d="M 0 0 V -21.901 H 28.08"/>
                <circle class="sym" cx="0" cy="0" r="3"/>
                <text class="lab lft" transform="translate(-3 -7.0)">200:N</text>
              </g>
              <g class="a401 c2 node n227 p4" transform="translate(28.08 18.8722)">
                <g class="a227 i3 leaf node n6 p4 sample" transform="translate(-14.04 23.9091)">
                  <path class="edge" d="M 0 0 V -23.9091 H 14.04"/>
                  <rect class="sym" height="6" width="6" x="-3" y="-3"/>
                  <text class="lab" transform="translate(0 11)">6:D</text>
                </g>
                <g class="a227 i3 leaf node n7 p4 sample" transform="translate(14.04 23.9091)">
                  <path class="edge" d="M 0 0 V -23.9091 H -14.04"/>
                  <rect class="sym" height="6" width="6" x="-3" y="-3"/>
                  <text class="lab" transform="translate(0 11)">7:D</text>
                </g>
                <path class="edge" d="M 0 0 V -18.8722 H -28.08"/>
                <circle class="sym" cx="0" cy="0" r="3"/>
                <text class="lab rgt" transform="translate(3 -7.0)">227:D</text>
              </g>
              <path class="edge" d="M 0 0 V -350.185 H -56.16"/>
              <circle class="sym" cx="0" cy="0" r="3"/>
              <text class="lab rgt" transform="translate(3 -7.0)">401:ND</text>
            </g>
            <g class="a1220 c2 node n752 p2" transform="translate(-56.16 293.138)">
              <g class="a752 c2 node n22 p6" transform="translate(28.08 96.3168)">
                <g class="a22 i0 leaf node n1 p7 sample" transform="translate(-14.04 5.14507)">
                  <path class="edge" d="M 0 0 V -5.14507 H 14.04"/>
                  <rect class="sym" height="6" width="6" x="-3" y="-3"/>
                  <text class="lab" transform="translate(0 11)">1:X</text>
                </g>
                <g class="a22 i1 leaf node n2 p8 sample" transform="translate(14.04 5.14507)">
                  <path class="edge" d="M 0 0 V -5.14507 H -14.04"/>
                  <rect class="sym" height="6" width="6" x="-3" y="-3"/>
                  <text class="lab" transform="translate(0 11)">2:Y</text>
                </g>
                <path class="edge" d="M 0 0 V -96.3168 H -28.08"/>
                <circle class="sym" cx="0" cy="0" r="3"/>
                <text class="lab rgt" transform="translate(3 -7.0)">22:XY</text>
              </g>
              <g class="a752 c2 node n169 p6" transform="translate(-28.08 81.9626)">
                <g class="a169 i0 leaf node n0 p7 sample" transform="translate(-14.04 19.4993)">
                  <path class="edge" d="M 0 0 V -19.4993 H 14.04"/>
                  <rect class="sym" height="6" width="6" x="-3" y="-3"/>
                  <text class="lab" transform="translate(0 11)">0:X</text>
                </g>
                <g class="a169 i1 leaf node n3 p8 sample" transform="translate(14.04 19.4993)">
                  <path class="edge" d="M 0 0 V -19.4993 H -14.04"/>
                  <rect class="sym" height="6" width="6" x="-3" y="-3"/>
                  <text class="lab" transform="translate(0 11)">3:Y</text>
                </g>
                <path class="edge" d="M 0 0 V -81.9626 H 28.08"/>
                <circle class="sym" cx="0" cy="0" r="3"/>
                <text class="lab lft" transform="translate(-3 -7.0)">169:XY</text>
              </g>
              <path class="edge" d="M 0 0 V -293.138 H 56.16"/>
              <circle class="sym" cx="0" cy="0" r="3"/>
              <text class="lab lft" transform="translate(-3 -7.0)">752:XYND</text>
            </g>
            <circle class="sym" cx="0" cy="0" r="3"/>
            <text class="lab" transform="translate(0 -11)">1220:Ancestral</text>
          </g>
        </g>
      </g>
      <g class="tree t0" transform="translate(321.44 0)">
        <g class="plotbox">
          <g class="c2 node n1220 p0 root" transform="translate(132.32 26.8)">
            <g class="a1220 c2 node n401 p3" transform="translate(56.16 350.185)">
              <g class="a401 c2 node n200 p5" transform="translate(-28.08 21.901)">
                <g class="a200 i2 leaf node n4 p5 sample" transform="translate(-14.04 20.8804)">
                  <path class="edge" d="M 0 0 V -20.8804 H 14.04"/>
                  <rect class="sym" height="6" width="6" x="-3" y="-3"/>
                  <text class="lab" transform="translate(0 11)">4:N</text>
                </g>
                <g class="a200 i2 leaf node n5 p5 sample" transform="translate(14.04 20.8804)">
                  <path class="edge" d="M 0 0 V -20.8804 H -14.04"/>
                  <rect class="sym" height="6" width="6" x="-3" y="-3"/>
                  <text class="lab" transform="translate(0 11)">5:N</text>
                </g>
                <path class="edge" d="M 0 0 V -21.901 H 28.08"/>
                <circle class="sym" cx="0" cy="0" r="3"/>
                <text class="lab lft" transform="translate(-3 -7.0)">200:N</text>
              </g>
              <g class="a401 c2 node n250 p4" transform="translate(28.08 15.7376)">
                <g class="a250 i3 leaf node n6 p4 sample" transform="translate(-14.04 27.0437)">
                  <path class="edge" d="M 0 0 V -27.0437 H 14.04"/>
                  <rect class="sym" height="6" width="6" x="-3" y="-3"/>
                  <text class="lab" transform="translate(0 11)">6:D</text>
                </g>
                <g class="a250 i3 leaf node n7 p4 sample" transform="translate(14.04 27.0437)">
                  <path class="edge" d="M 0 0 V -27.0437 H -14.04"/>
                  <rect class="sym" height="6" width="6" x="-3" y="-3"/>
                  <text class="lab" transform="translate(0 11)">7:D</text>
                </g>
                <path class="edge" d="M 0 0 V -15.7376 H -28.08"/>
                <circle class="sym" cx="0" cy="0" r="3"/>
                <text class="lab rgt" transform="translate(3 -7.0)">250:D</text>
              </g>
              <path class="edge" d="M 0 0 V -350.185 H -56.16"/>
              <circle class="sym" cx="0" cy="0" r="3"/>
              <text class="lab rgt" transform="translate(3 -7.0)">401:ND</text>
            </g>
            <g class="a1220 c2 node n752 p2" transform="translate(-56.16 293.138)">
              <g class="a752 c2 node n22 p6" transform="translate(28.08 96.3168)">
                <g class="a22 i0 leaf node n1 p7 sample" transform="translate(-14.04 5.14507)">
                  <path class="edge" d="M 0 0 V -5.14507 H 14.04"/>
                  <rect class="sym" height="6" width="6" x="-3" y="-3"/>
                  <text class="lab" transform="translate(0 11)">1:X</text>
                </g>
                <g class="a22 i1 leaf node n2 p8 sample" transform="translate(14.04 5.14507)">
                  <path class="edge" d="M 0 0 V -5.14507 H -14.04"/>
                  <rect class="sym" height="6" width="6" x="-3" y="-3"/>
                  <text class="lab" transform="translate(0 11)">2:Y</text>
                </g>
                <path class="edge" d="M 0 0 V -96.3168 H -28.08"/>
                <circle class="sym" cx="0" cy="0" r="3"/>
                <text class="lab rgt" transform="translate(3 -7.0)">22:XY</text>
              </g>
              <g class="a752 c2 node n169 p6" transform="translate(-28.08 81.9626)">
                <g class="a169 i0 leaf node n0 p7 sample" transform="translate(-14.04 19.4993)">
                  <path class="edge" d="M 0 0 V -19.4993 H 14.04"/>
                  <rect class="sym" height="6" width="6" x="-3" y="-3"/>
                  <text class="lab" transform="translate(0 11)">0:X</text>
                </g>
                <g class="a169 i1 leaf node n3 p8 sample" transform="translate(14.04 19.4993)">
                  <path class="edge" d="M 0 0 V -19.4993 H -14.04"/>
                  <rect class="sym" height="6" width="6" x="-3" y="-3"/>
                  <text class="lab" transform="translate(0 11)">3:Y</text>
                </g>
                <path class="edge" d="M 0 0 V -81.9626 H 28.08"/>
                <circle class="sym" cx="0" cy="0" r="3"/>
                <text class="lab lft" transform="translate(-3 -7.0)">169:XY</text>
              </g>
              <path class="edge" d="M 0 0 V -293.138 H 56.16"/>
              <circle class="sym" cx="0" cy="0" r="3"/>
              <text class="lab lft" transform="translate(-3 -7.0)">752:XYND</text>
            </g>
            <circle class="sym" cx="0" cy="0" r="3"/>
            <text class="lab" transform="translate(0 -11)">1220:Ancestral</text>
          </g>
        </g>
      </g>
      <g class="tree t1" transform="translate(586.08 0)">
        <g class="plotbox">
          <g class="c2 node n917 p0 root" transform="translate(132.32 279.121)">
            <g class="a917 c2 node n401 p3" transform="translate(56.16 97.8636)">
              <g class="a401 c2 node n200 p5" transform="translate(-28.08 21.901)">
                <g class="a200 i2 leaf node n4 p5 sample" transform="translate(-14.04 20.8804)">
                  <path class="edge" d="M 0 0 V -20.8804 H 14.04"/>
                  <rect class="sym" height="6" width="6" x="-3" y="-3"/>
                  <text class="lab" transform="translate(0 11)">4:N</text>
                </g>
                <g class="a200 i2 leaf node n5 p5 sample" transform="translate(14.04 20.8804)">
                  <path class="edge" d="M 0 0 V -20.8804 H -14.04"/>
                  <rect class="sym" height="6" width="6" x="-3" y="-3"/>
                  <text class="lab" transform="translate(0 11)">5:N</text>
                </g>
                <path class="edge" d="M 0 0 V -21.901 H 28.08"/>
                <circle class="sym" cx="0" cy="0" r="3"/>
                <text class="lab lft" transform="translate(-3 -7.0)">200:N</text>
              </g>
              <g class="a401 c2 node n250 p4" transform="translate(28.08 15.7376)">
                <g class="a250 i3 leaf node n6 p4 sample" transform="translate(-14.04 27.0437)">
                  <path class="edge" d="M 0 0 V -27.0437 H 14.04"/>
                  <rect class="sym" height="6" width="6" x="-3" y="-3"/>
                  <text class="lab" transform="translate(0 11)">6:D</text>
                </g>
                <g class="a250 i3 leaf node n7 p4 sample" transform="translate(14.04 27.0437)">
                  <path class="edge" d="M 0 0 V -27.0437 H -14.04"/>
                  <rect class="sym" height="6" width="6" x="-3" y="-3"/>
                  <text class="lab" transform="translate(0 11)">7:D</text>
                </g>
                <path class="edge" d="M 0 0 V -15.7376 H -28.08"/>
                <circle class="sym" cx="0" cy="0" r="3"/>
                <text class="lab rgt" transform="translate(3 -7.0)">250:D</text>
              </g>
              <path class="edge" d="M 0 0 V -97.8636 H -56.16"/>
              <circle class="sym" cx="0" cy="0" r="3"/>
              <text class="lab rgt" transform="translate(3 -7.0)">401:ND</text>
            </g>
            <g class="a917 c2 node n752 p2" transform="translate(-56.16 40.817)">
              <g class="a752 c2 node n22 p6" transform="translate(28.08 96.3168)">
                <g class="a22 i0 leaf node n1 p7 sample" transform="translate(-14.04 5.14507)">
                  <path class="edge" d="M 0 0 V -5.14507 H 14.04"/>
                  <rect class="sym" height="6" width="6" x="-3" y="-3"/>
                  <text class="lab" transform="translate(0 11)">1:X</text>
                </g>
                <g class="a22 i1 leaf node n2 p8 sample" transform="translate(14.04 5.14507)">
                  <path class="edge" d="M 0 0 V -5.14507 H -14.04"/>
                  <rect class="sym" height="6" width="6" x="-3" y="-3"/>
                  <text class="lab" transform="translate(0 11)">2:Y</text>
                </g>
                <path class="edge" d="M 0 0 V -96.3168 H -28.08"/>
                <circle class="sym" cx="0" cy="0" r="3"/>
                <text class="lab rgt" transform="translate(3 -7.0)">22:XY</text>
              </g>
              <g class="a752 c2 node n169 p6" transform="translate(-28.08 81.9626)">
                <g class="a169 i0 leaf node n0 p7 sample" transform="translate(-14.04 19.4993)">
                  <path class="edge" d="M 0 0 V -19.4993 H 14.04"/>
                  <rect class="sym" height="6" width="6" x="-3" y="-3"/>
                  <text class="lab" transform="translate(0 11)">0:X</text>
                </g>
                <g class="a169 i1 leaf node n3 p8 sample" transform="translate(14.04 19.4993)">
                  <path class="edge" d="M 0 0 V -19.4993 H -14.04"/>
                  <rect class="sym" height="6" width="6" x="-3" y="-3"/>
                  <text class="lab" transform="translate(0 11)">3:Y</text>
                </g>
                <path class="edge" d="M 0 0 V -81.9626 H 28.08"/>
                <circle class="sym" cx="0" cy="0" r="3"/>
                <text class="lab lft" transform="translate(-3 -7.0)">169:XY</text>
              </g>
              <path class="edge" d="M 0 0 V -40.817 H 56.16"/>
              <circle class="sym" cx="0" cy="0" r="3"/>
              <text class="lab lft" transform="translate(-3 -7.0)">752:XYND</text>
            </g>
            <circle class="sym" cx="0" cy="0" r="3"/>
            <text class="lab" transform="translate(0 -11)">917:Ancestral</text>
          </g>
        </g>
      </g>
      <g class="tree t2" transform="translate(850.72 0)">
        <g class="plotbox">
          <g class="c2 node n1032 p0 root" transform="translate(132.32 238.516)">
            <g class="a1032 c2 node n401 p3" transform="translate(56.16 138.469)">
              <g class="a401 c2 node n200 p5" transform="translate(-28.08 21.901)">
                <g class="a200 i2 leaf node n4 p5 sample" transform="translate(-14.04 20.8804)">
                  <path class="edge" d="M 0 0 V -20.8804 H 14.04"/>
                  <rect class="sym" height="6" width="6" x="-3" y="-3"/>
                  <text class="lab" transform="translate(0 11)">4:N</text>
                </g>
                <g class="a200 i2 leaf node n5 p5 sample" transform="translate(14.04 20.8804)">
                  <path class="edge" d="M 0 0 V -20.8804 H -14.04"/>
                  <rect class="sym" height="6" width="6" x="-3" y="-3"/>
                  <text class="lab" transform="translate(0 11)">5:N</text>
                </g>
                <path class="edge" d="M 0 0 V -21.901 H 28.08"/>
                <circle class="sym" cx="0" cy="0" r="3"/>
                <text class="lab lft" transform="translate(-3 -7.0)">200:N</text>
              </g>
              <g class="a401 c2 node n250 p4" transform="translate(28.08 15.7376)">
                <g class="a250 i3 leaf node n6 p4 sample" transform="translate(-14.04 27.0437)">
                  <path class="edge" d="M 0 0 V -27.0437 H 14.04"/>
                  <rect class="sym" height="6" width="6" x="-3" y="-3"/>
                  <text class="lab" transform="translate(0 11)">6:D</text>
                </g>
                <g class="a250 i3 leaf node n7 p4 sample" transform="translate(14.04 27.0437)">
                  <path class="edge" d="M 0 0 V -27.0437 H -14.04"/>
                  <rect class="sym" height="6" width="6" x="-3" y="-3"/>
                  <text class="lab" transform="translate(0 11)">7:D</text>
                </g>
                <path class="edge" d="M 0 0 V -15.7376 H -28.08"/>
                <circle class="sym" cx="0" cy="0" r="3"/>
                <text class="lab rgt" transform="translate(3 -7.0)">250:D</text>
              </g>
              <path class="edge" d="M 0 0 V -138.469 H -56.16"/>
              <circle class="sym" cx="0" cy="0" r="3"/>
              <text class="lab rgt" transform="translate(3 -7.0)">401:ND</text>
            </g>
            <g class="a1032 c2 node n752 p2" transform="translate(-56.16 81.4221)">
              <g class="a752 c2 node n22 p6" transform="translate(28.08 96.3168)">
                <g class="a22 i0 leaf node n1 p7 sample" transform="translate(-14.04 5.14507)">
                  <path class="edge" d="M 0 0 V -5.14507 H 14.04"/>
                  <rect class="sym" height="6" width="6" x="-3" y="-3"/>
                  <text class="lab" transform="translate(0 11)">1:X</text>
                </g>
                <g class="a22 i1 leaf node n2 p8 sample" transform="translate(14.04 5.14507)">
                  <path class="edge" d="M 0 0 V -5.14507 H -14.04"/>
                  <rect class="sym" height="6" width="6" x="-3" y="-3"/>
                  <text class="lab" transform="translate(0 11)">2:Y</text>
                </g>
                <path class="edge" d="M 0 0 V -96.3168 H -28.08"/>
                <circle class="sym" cx="0" cy="0" r="3"/>
                <text class="lab rgt" transform="translate(3 -7.0)">22:XY</text>
              </g>
              <g class="a752 c2 node n169 p6" transform="translate(-28.08 81.9626)">
                <g class="a169 i0 leaf node n0 p7 sample" transform="translate(-14.04 19.4993)">
                  <path class="edge" d="M 0 0 V -19.4993 H 14.04"/>
                  <rect class="sym" height="6" width="6" x="-3" y="-3"/>
                  <text class="lab" transform="translate(0 11)">0:X</text>
                </g>
                <g class="a169 i1 leaf node n3 p8 sample" transform="translate(14.04 19.4993)">
                  <path class="edge" d="M 0 0 V -19.4993 H -14.04"/>
                  <rect class="sym" height="6" width="6" x="-3" y="-3"/>
                  <text class="lab" transform="translate(0 11)">3:Y</text>
                </g>
                <path class="edge" d="M 0 0 V -81.9626 H 28.08"/>
                <circle class="sym" cx="0" cy="0" r="3"/>
                <text class="lab lft" transform="translate(-3 -7.0)">169:XY</text>
              </g>
              <path class="edge" d="M 0 0 V -81.4221 H 56.16"/>
              <circle class="sym" cx="0" cy="0" r="3"/>
              <text class="lab lft" transform="translate(-3 -7.0)">752:XYND</text>
            </g>
            <circle class="sym" cx="0" cy="0" r="3"/>
            <text class="lab" transform="translate(0 -11)">1032:Ancestral</text>
          </g>
        </g>
      </g>
      <g class="tree t3" transform="translate(1115.36 0)">
        <g class="plotbox">
          <g class="c2 node n1220 p0 root" transform="translate(132.32 26.8)">
            <g class="a1220 c2 node n401 p3" transform="translate(56.16 350.185)">
              <g class="a401 c2 node n200 p5" transform="translate(-28.08 21.901)">
                <g class="a200 i2 leaf node n4 p5 sample" transform="translate(-14.04 20.8804)">
                  <path class="edge" d="M 0 0 V -20.8804 H 14.04"/>
                  <rect class="sym" height="6" width="6" x="-3" y="-3"/>
                  <text class="lab" transform="translate(0 11)">4:N</text>
                </g>
                <g class="a200 i2 leaf node n5 p5 sample" transform="translate(14.04 20.8804)">
                  <path class="edge" d="M 0 0 V -20.8804 H -14.04"/>
                  <rect class="sym" height="6" width="6" x="-3" y="-3"/>
                  <text class="lab" transform="translate(0 11)">5:N</text>
                </g>
                <path class="edge" d="M 0 0 V -21.901 H 28.08"/>
                <circle class="sym" cx="0" cy="0" r="3"/>
                <text class="lab lft" transform="translate(-3 -7.0)">200:N</text>
              </g>
              <g class="a401 c2 node n250 p4" transform="translate(28.08 15.7376)">
                <g class="a250 i3 leaf node n6 p4 sample" transform="translate(-14.04 27.0437)">
                  <path class="edge" d="M 0 0 V -27.0437 H 14.04"/>
                  <rect class="sym" height="6" width="6" x="-3" y="-3"/>
                  <text class="lab" transform="translate(0 11)">6:D</text>
                </g>
                <g class="a250 i3 leaf node n7 p4 sample" transform="translate(14.04 27.0437)">
                  <path class="edge" d="M 0 0 V -27.0437 H -14.04"/>
                  <rect class="sym" height="6" width="6" x="-3" y="-3"/>
                  <text class="lab" transform="translate(0 11)">7:D</text>
                </g>
                <path class="edge" d="M 0 0 V -15.7376 H -28.08"/>
                <circle class="sym" cx="0" cy="0" r="3"/>
                <text class="lab rgt" transform="translate(3 -7.0)">250:D</text>
              </g>
              <path class="edge" d="M 0 0 V -350.185 H -56.16"/>
              <circle class="sym" cx="0" cy="0" r="3"/>
              <text class="lab rgt" transform="translate(3 -7.0)">401:ND</text>
            </g>
            <g class="a1220 c2 node n752 p2" transform="translate(-56.16 293.138)">
              <g class="a752 c2 node n22 p6" transform="translate(28.08 96.3168)">
                <g class="a22 i0 leaf node n1 p7 sample" transform="translate(-14.04 5.14507)">
                  <path class="edge" d="M 0 0 V -5.14507 H 14.04"/>
                  <rect class="sym" height="6" width="6" x="-3" y="-3"/>
                  <text class="lab" transform="translate(0 11)">1:X</text>
                </g>
                <g class="a22 i1 leaf node n2 p8 sample" transform="translate(14.04 5.14507)">
                  <path class="edge" d="M 0 0 V -5.14507 H -14.04"/>
                  <rect class="sym" height="6" width="6" x="-3" y="-3"/>
                  <text class="lab" transform="translate(0 11)">2:Y</text>
                </g>
                <path class="edge" d="M 0 0 V -96.3168 H -28.08"/>
                <circle class="sym" cx="0" cy="0" r="3"/>
                <text class="lab rgt" transform="translate(3 -7.0)">22:XY</text>
              </g>
              <g class="a752 c2 node n169 p6" transform="translate(-28.08 81.9626)">
                <g class="a169 i0 leaf node n0 p7 sample" transform="translate(-14.04 19.4993)">
                  <path class="edge" d="M 0 0 V -19.4993 H 14.04"/>
                  <rect class="sym" height="6" width="6" x="-3" y="-3"/>
                  <text class="lab" transform="translate(0 11)">0:X</text>
                </g>
                <g class="a169 i1 leaf node n3 p8 sample" transform="translate(14.04 19.4993)">
                  <path class="edge" d="M 0 0 V -19.4993 H -14.04"/>
                  <rect class="sym" height="6" width="6" x="-3" y="-3"/>
                  <text class="lab" transform="translate(0 11)">3:Y</text>
                </g>
                <path class="edge" d="M 0 0 V -81.9626 H 28.08"/>
                <circle class="sym" cx="0" cy="0" r="3"/>
                <text class="lab lft" transform="translate(-3 -7.0)">169:XY</text>
              </g>
              <path class="edge" d="M 0 0 V -293.138 H 56.16"/>
              <circle class="sym" cx="0" cy="0" r="3"/>
              <text class="lab lft" transform="translate(-3 -7.0)">752:XYND</text>
            </g>
            <circle class="sym" cx="0" cy="0" r="3"/>
            <text class="lab" transform="translate(0 -11)">1220:Ancestral</text>
          </g>
        </g>
      </g>
    </g>
  </g>
</svg>
