<?xml version="1.0" encoding="utf-8" ?>
<svg xmlns="http://www.w3.org/2000/svg" xmlns:ev="http://www.w3.org/2001/xml-events" xmlns:xlink="http://www.w3.org/1999/xlink" baseProfile="full" height="500" version="1.1" width="1400">
  <defs>
    <style type="text/css"><![CDATA[.background path {fill: #808080; fill-opacity: 0}.background path:nth-child(odd) {fill-opacity: .1}.axes {font-size: 14px}.x-axis .tick .lab {font-weight: bold; dominant-baseline: hanging}.axes, .tree {font-size: 14px; text-anchor: middle}.axes line, .edge {stroke: black; fill: none}.axes .ax-skip {stroke-dasharray: 4}.y-axis .grid {stroke: #FAFAFA}.node > .sym {fill: black; stroke: none}.site > .sym {stroke: black}.mut text {fill: red; font-style: italic}.mut.extra text {fill: hotpink}.mut line {fill: none; stroke: none}.mut .sym {fill: none; stroke: red}.mut.extra .sym {stroke: hotpink}.node .mut .sym {stroke-width: 1.5px}.tree text, .tree-sequence text {dominant-baseline: central}.plotbox .lab.lft {text-anchor: end}.plotbox .lab.rgt {text-anchor: start}]]></style>
  </defs>
  <g class="tree-sequence">
    <g class="axes">
      <g class="x-axis">
        <g class="title" transform="translate(718.4 500)">
          <text class="lab" text-anchor="middle" transform="translate(0 -11)">Genome position</text>
        </g>
        <line class="ax-line" x1="56.8" x2="1380" y1="463.2" y2="463.2"/>
        <g class="ticks">
          <g class="tick" transform="translate(56.8 463.2)">
            <line x1="0" x2="0" y1="-5" y2="5"/>
            <g transform="translate(0 6)">
              <text class="lab">0</text>
            </g>
          </g>
          <g class="tick" transform="translate(387.6 463.2)">
            <line x1="0" x2="0" y1="-5" y2="5"/>
            <g transform="translate(0 6)">
              <text class="lab">1007</text>
            </g>
          </g>
          <g class="tick" transform="translate(718.4 463.2)">
            <line x1="0" x2="0" y1="-5" y2="5"/>
            <g transform="translate(0 6)">
              <text class="lab">1831</text>
            </g>
          </g>
          <g class="tick" transform="translate(1049.2 463.2)">
            <line x1="0" x2="0" y1="-5" y2="5"/>
            <g transform="translate(0 6)">
              <text class="lab">1963</text>
            </g>
          </g>
        </g>
      </g>
      <g class="y-axis">
        <g class="title" transform="translate(0 215.7)">
          <text class="lab" text-anchor="middle" transform="translate(11) rotate(-90)">Time (generations)</text>
        </g>
        <line class="ax-line" x1="56.8" x2="56.8" y1="421.4" y2="10"/>
        <g class="ticks">
          <g class="tick" transform="translate(56.8 421.4)">
            <line class="grid" x1="0" x2="1323.2" y1="0" y2="0"/>
            <line x1="0" x2="-5" y1="0" y2="0"/>
            <g transform="translate(-6 0)">
              <text class="lab" text-anchor="end">0</text>
            </g>
          </g>
          <g class="tick" transform="translate(56.8 370.418)">
            <line class="grid" x1="0" x2="1323.2" y1="0" y2="0"/>
            <line x1="0" x2="-5" y1="0" y2="0"/>
            <g transform="translate(-6 0)">
              <text class="lab" text-anchor="end">20000</text>
            </g>
          </g>
          <g class="tick" transform="translate(56.8 319.436)">
            <line class="grid" x1="0" x2="1323.2" y1="0" y2="0"/>
            <line x1="0" x2="-5" y1="0" y2="0"/>
            <g transform="translate(-6 0)">
              <text class="lab" text-anchor="end">40000</text>
            </g>
          </g>
          <g class="tick" transform="translate(56.8 268.454)">
            <line class="grid" x1="0" x2="1323.2" y1="0" y2="0"/>
            <line x1="0" x2="-5" y1="0" y2="0"/>
            <g transform="translate(-6 0)">
              <text class="lab" text-anchor="end">60000</text>
            </g>
          </g>
          <g class="tick" transform="translate(56.8 217.472)">
            <line class="grid" x1="0" x2="1323.2" y1="0" y2="0"/>
            <line x1="0" x2="-5" y1="0" y2="0"/>
            <g transform="translate(-6 0)">
              <text class="lab" text-anchor="end">80000</text>
            </g>
          </g>
          <g class="tick" transform="translate(56.8 166.49)">
            <line class="grid" x1="0" x2="1323.2" y1="0" y2="0"/>
            <line x1="0" x2="-5" y1="0" y2="0"/>
            <g transform="translate(-6 0)">
              <text class="lab" text-anchor="end">100000</text>
            </g>
          </g>
          <g class="tick" transform="translate(56.8 115.508)">
            <line class="grid" x1="0" x2="1323.2" y1="0" y2="0"/>
            <line x1="0" x2="-5" y1="0" y2="0"/>
            <g transform="translate(-6 0)">
              <text class="lab" text-anchor="end">120000</text>
            </g>
          </g>
          <g class="tick" transform="translate(56.8 64.5266)">
            <line class="grid" x1="0" x2="1323.2" y1="0" y2="0"/>
            <line x1="0" x2="-5" y1="0" y2="0"/>
            <g transform="translate(-6 0)">
              <text class="lab" text-anchor="end">140000</text>
            </g>
          </g>
          <g class="tick" transform="translate(56.8 13.5446)">
            <line class="grid" x1="0" x2="1323.2" y1="0" y2="0"/>
            <line x1="0" x2="-5" y1="0" y2="0"/>
            <g transform="translate(-6 0)">
              <text class="lab" text-anchor="end">160000</text>
            </g>
          </g>
          <g class="tick" transform="translate(56.8 -37.4373)">
            <line class="grid" x1="0" x2="1323.2" y1="0" y2="0"/>
            <line x1="0" x2="-5" y1="0" y2="0"/>
            <g transform="translate(-6 0)">
              <text class="lab" text-anchor="end">180000</text>
            </g>
          </g>
          <g class="tick" transform="translate(56.8 -88.4192)">
            <line class="grid" x1="0" x2="1323.2" y1="0" y2="0"/>
            <line x1="0" x2="-5" y1="0" y2="0"/>
            <g transform="translate(-6 0)">
              <text class="lab" text-anchor="end">200000</text>
            </g>
          </g>
          <g class="tick" transform="translate(56.8 -139.401)">
            <line class="grid" x1="0" x2="1323.2" y1="0" y2="0"/>
            <line x1="0" x2="-5" y1="0" y2="0"/>
            <g transform="translate(-6 0)">
              <text class="lab" text-anchor="end">220000</text>
            </g>
          </g>
          <g class="tick" transform="translate(56.8 -190.383)">
            <line class="grid" x1="0" x2="1323.2" y1="0" y2="0"/>
            <line x1="0" x2="-5" y1="0" y2="0"/>
            <g transform="translate(-6 0)">
              <text class="lab" text-anchor="end">240000</text>
            </g>
          </g>
          <g class="tick" transform="translate(56.8 -241.365)">
            <line class="grid" x1="0" x2="1323.2" y1="0" y2="0"/>
            <line x1="0" x2="-5" y1="0" y2="0"/>
            <g transform="translate(-6 0)">
              <text class="lab" text-anchor="end">260000</text>
            </g>
          </g>
          <g class="tick" transform="translate(56.8 -292.347)">
            <line class="grid" x1="0" x2="1323.2" y1="0" y2="0"/>
            <line x1="0" x2="-5" y1="0" y2="0"/>
            <g transform="translate(-6 0)">
              <text class="lab" text-anchor="end">280000</text>
            </g>
          </g>
          <g class="tick" transform="translate(56.8 -343.329)">
            <line class="grid" x1="0" x2="1323.2" y1="0" y2="0"/>
            <line x1="0" x2="-5" y1="0" y2="0"/>
            <g transform="translate(-6 0)">
              <text class="lab" text-anchor="end">300000</text>
            </g>
          </g>
        </g>
      </g>
    </g>
    <g class="plotbox trees">
      <g class="tree t-1" transform="translate(56.8 0)">
        <g class="plotbox">
          <g class="c2 node n27 p2 root" transform="translate(176.759 266.629)">
            <g class="a27 c2 node n15 p3" transform="translate(61.3406 88.5447)">
              <g class="a15 c2 node n8 p4" transform="translate(36.35 59.2717)">
                <g class="a8 i3 leaf node n6 p4 sample" transform="translate(-18.175 4.40537)">
                  <path class="edge" d="M 0 0 V -4.40537 H 18.175"/>
                  <rect class="sym" height="6" width="6" x="-3" y="-3"/>
                  <text class="lab" transform="translate(0 11)">6:D</text>
                </g>
                <g class="a8 i3 leaf node n7 p4 sample" transform="translate(18.175 4.40537)">
                  <path class="edge" d="M 0 0 V -4.40537 H -18.175"/>
                  <rect class="sym" height="6" width="6" x="-3" y="-3"/>
                  <text class="lab" transform="translate(0 11)">7:D</text>
                </g>
                <path class="edge" d="M 0 0 V -59.2717 H -36.35"/>
                <circle class="sym" cx="0" cy="0" r="3"/>
                <text class="lab rgt" transform="translate(3 -7.0)">8:D</text>
              </g>
              <g class="a15 c2 node n9 p5" transform="translate(-36.35 54.995)">
                <g class="a9 i2 leaf node n4 p5 sample" transform="translate(-18.175 8.68204)">
                  <path class="edge" d="M 0 0 V -8.68204 H 18.175"/>
                  <rect class="sym" height="6" width="6" x="-3" y="-3"/>
                  <text class="lab" transform="translate(0 11)">4:N</text>
                </g>
                <g class="a9 i2 leaf node n5 p5 sample" transform="translate(18.175 8.68204)">
                  <path class="edge" d="M 0 0 V -8.68204 H -18.175"/>
                  <rect class="sym" height="6" width="6" x="-3" y="-3"/>
                  <text class="lab" transform="translate(0 11)">5:N</text>
                </g>
                <path class="edge" d="M 0 0 V -54.995 H 36.35"/>
                <circle class="sym" cx="0" cy="0" r="3"/>
                <text class="lab lft" transform="translate(-3 -7.0)">9:N</text>
              </g>
              <path class="edge" d="M 0 0 V -88.5447 H -61.3406"/>
              <circle class="sym" cx="0" cy="0" r="3"/>
              <text class="lab rgt" transform="translate(3 -7.0)">15:ND</text>
            </g>
            <g class="a27 c2 node n20 p2" transform="translate(-61.3406 56.2362)">
              <g class="a20 i1 leaf node n2 p8 sample" transform="translate(31.8063 98.5347)">
                <path class="edge" d="M 0 0 V -98.5347 H -31.8063"/>
                <rect class="sym" height="6" width="6" x="-3" y="-3"/>
                <text class="lab" transform="translate(0 11)">2:Y</text>
              </g>
              <g class="a20 c2 node n18 p6" transform="translate(-31.8062 25.5213)">
                <g class="a18 i1 leaf node n3 p8 sample" transform="translate(27.2625 73.0134)">
                  <path class="edge" d="M 0 0 V -73.0134 H -27.2625"/>
                  <rect class="sym" height="6" width="6" x="-3" y="-3"/>
                  <text class="lab" transform="translate(0 11)">3:Y</text>
                </g>
                <g class="a18 c2 node n10 p6" transform="translate(-27.2625 54.5406)">
                  <g class="a10 i0 leaf node n0 p7 sample" transform="translate(-18.175 18.4728)">
                    <path class="edge" d="M 0 0 V -18.4728 H 18.175"/>
                    <rect class="sym" height="6" width="6" x="-3" y="-3"/>
                    <text class="lab" transform="translate(0 11)">0:X</text>
                  </g>
                  <g class="a10 i0 leaf node n1 p7 sample" transform="translate(18.175 18.4728)">
                    <path class="edge" d="M 0 0 V -18.4728 H -18.175"/>
                    <rect class="sym" height="6" width="6" x="-3" y="-3"/>
                    <text class="lab" transform="translate(0 11)">1:X</text>
                  </g>
                  <path class="edge" d="M 0 0 V -54.5406 H 27.2625"/>
                  <circle class="sym" cx="0" cy="0" r="3"/>
                  <text class="lab lft" transform="translate(-3 -7.0)">10:XY</text>
                </g>
                <path class="edge" d="M 0 0 V -25.5213 H 31.8062"/>
                <circle class="sym" cx="0" cy="0" r="3"/>
                <text class="lab lft" transform="translate(-3 -7.0)">18:XY</text>
              </g>
              <path class="edge" d="M 0 0 V -56.2362 H 61.3406"/>
              <circle class="sym" cx="0" cy="0" r="3"/>
              <text class="lab lft" transform="translate(-3 -7.0)">20:XYND</text>
            </g>
            <circle class="sym" cx="0" cy="0" r="3"/>
            <text class="lab" transform="translate(0 -11)">27:XYND</text>
          </g>
        </g>
      </g>
      <g class="tree t0" transform="translate(387.6 0)">
        <g class="plotbox">
          <g class="c2 node n27 p2 root" transform="translate(176.759 266.629)">
            <g class="a27 c2 node n15 p3" transform="translate(61.3406 88.5447)">
              <g class="a15 c2 node n8 p4" transform="translate(36.35 59.2717)">
                <g class="a8 i3 leaf node n6 p4 sample" transform="translate(-18.175 4.40537)">
                  <path class="edge" d="M 0 0 V -4.40537 H 18.175"/>
                  <rect class="sym" height="6" width="6" x="-3" y="-3"/>
                  <text class="lab" transform="translate(0 11)">6:D</text>
                </g>
                <g class="a8 i3 leaf node n7 p4 sample" transform="translate(18.175 4.40537)">
                  <path class="edge" d="M 0 0 V -4.40537 H -18.175"/>
                  <rect class="sym" height="6" width="6" x="-3" y="-3"/>
                  <text class="lab" transform="translate(0 11)">7:D</text>
                </g>
                <path class="edge" d="M 0 0 V -59.2717 H -36.35"/>
                <circle class="sym" cx="0" cy="0" r="3"/>
                <text class="lab rgt" transform="translate(3 -7.0)">8:D</text>
              </g>
              <g class="a15 c2 node n9 p5" transform="translate(-36.35 54.995)">
                <g class="a9 i2 leaf node n4 p5 sample" transform="translate(-18.175 8.68204)">
                  <path class="edge" d="M 0 0 V -8.68204 H 18.175"/>
                  <rect class="sym" height="6" width="6" x="-3" y="-3"/>
                  <text class="lab" transform="translate(0 11)">4:N</text>
                </g>
                <g class="a9 i2 leaf node n5 p5 sample" transform="translate(18.175 8.68204)">
                  <path class="edge" d="M 0 0 V -8.68204 H -18.175"/>
                  <rect class="sym" height="6" width="6" x="-3" y="-3"/>
                  <text class="lab" transform="translate(0 11)">5:N</text>
                </g>
                <path class="edge" d="M 0 0 V -54.995 H 36.35"/>
                <circle class="sym" cx="0" cy="0" r="3"/>
                <text class="lab lft" transform="translate(-3 -7.0)">9:N</text>
              </g>
              <path class="edge" d="M 0 0 V -88.5447 H -61.3406"/>
              <circle class="sym" cx="0" cy="0" r="3"/>
              <text class="lab rgt" transform="translate(3 -7.0)">15:ND</text>
            </g>
            <g class="a27 c2 node n20 p2" transform="translate(-61.3406 56.2362)">
              <g class="a20 i1 leaf node n2 p8 sample" transform="translate(31.8063 98.5347)">
                <path class="edge" d="M 0 0 V -98.5347 H -31.8063"/>
                <rect class="sym" height="6" width="6" x="-3" y="-3"/>
                <text class="lab" transform="translate(0 11)">2:Y</text>
              </g>
              <g class="a20 c2 node n16 p6" transform="translate(-31.8062 32.306)">
                <g class="a16 i1 leaf node n3 p8 sample" transform="translate(27.2625 66.2286)">
                  <path class="edge" d="M 0 0 V -66.2286 H -27.2625"/>
                  <rect class="sym" height="6" width="6" x="-3" y="-3"/>
                  <text class="lab" transform="translate(0 11)">3:Y</text>
                </g>
                <g class="a16 c2 node n10 p6" transform="translate(-27.2625 47.7558)">
                  <g class="a10 i0 leaf node n0 p7 sample" transform="translate(-18.175 18.4728)">
                    <path class="edge" d="M 0 0 V -18.4728 H 18.175"/>
                    <rect class="sym" height="6" width="6" x="-3" y="-3"/>
                    <text class="lab" transform="translate(0 11)">0:X</text>
                  </g>
                  <g class="a10 i0 leaf node n1 p7 sample" transform="translate(18.175 18.4728)">
                    <path class="edge" d="M 0 0 V -18.4728 H -18.175"/>
                    <rect class="sym" height="6" width="6" x="-3" y="-3"/>
                    <text class="lab" transform="translate(0 11)">1:X</text>
                  </g>
                  <path class="edge" d="M 0 0 V -47.7558 H 27.2625"/>
                  <circle class="sym" cx="0" cy="0" r="3"/>
                  <text class="lab lft" transform="translate(-3 -7.0)">10:XY</text>
                </g>
                <path class="edge" d="M 0 0 V -32.306 H 31.8062"/>
                <circle class="sym" cx="0" cy="0" r="3"/>
                <text class="lab lft" transform="translate(-3 -7.0)">16:XY</text>
              </g>
              <path class="edge" d="M 0 0 V -56.2362 H 61.3406"/>
              <circle class="sym" cx="0" cy="0" r="3"/>
              <text class="lab lft" transform="translate(-3 -7.0)">20:XYND</text>
            </g>
            <circle class="sym" cx="0" cy="0" r="3"/>
            <text class="lab" transform="translate(0 -11)">27:XYND</text>
          </g>
        </g>
      </g>
      <g class="tree t1" transform="translate(718.4 0)">
        <g class="plotbox">
          <g class="c2 node n33 p0 root" transform="translate(176.759 26.8)">
            <g class="a33 c2 node n15 p3" transform="translate(61.3406 328.374)">
              <g class="a15 c2 node n8 p4" transform="translate(36.35 59.2717)">
                <g class="a8 i3 leaf node n6 p4 sample" transform="translate(-18.175 4.40537)">
                  <path class="edge" d="M 0 0 V -4.40537 H 18.175"/>
                  <rect class="sym" height="6" width="6" x="-3" y="-3"/>
                  <text class="lab" transform="translate(0 11)">6:D</text>
                </g>
                <g class="a8 i3 leaf node n7 p4 sample" transform="translate(18.175 4.40537)">
                  <path class="edge" d="M 0 0 V -4.40537 H -18.175"/>
                  <rect class="sym" height="6" width="6" x="-3" y="-3"/>
                  <text class="lab" transform="translate(0 11)">7:D</text>
                </g>
                <path class="edge" d="M 0 0 V -59.2717 H -36.35"/>
                <circle class="sym" cx="0" cy="0" r="3"/>
                <text class="lab rgt" transform="translate(3 -7.0)">8:D</text>
              </g>
              <g class="a15 c2 node n9 p5" transform="translate(-36.35 54.995)">
                <g class="a9 i2 leaf node n4 p5 sample" transform="translate(-18.175 8.68204)">
                  <path class="edge" d="M 0 0 V -8.68204 H 18.175"/>
                  <rect class="sym" height="6" width="6" x="-3" y="-3"/>
                  <text class="lab" transform="translate(0 11)">4:N</text>
                </g>
                <g class="a9 i2 leaf node n5 p5 sample" transform="translate(18.175 8.68204)">
                  <path class="edge" d="M 0 0 V -8.68204 H -18.175"/>
                  <rect class="sym" height="6" width="6" x="-3" y="-3"/>
                  <text class="lab" transform="translate(0 11)">5:N</text>
                </g>
                <path class="edge" d="M 0 0 V -54.995 H 36.35"/>
                <circle class="sym" cx="0" cy="0" r="3"/>
                <text class="lab lft" transform="translate(-3 -7.0)">9:N</text>
              </g>
              <path class="edge" d="M 0 0 V -328.374 H -61.3406"/>
              <circle class="sym" cx="0" cy="0" r="3"/>
              <text class="lab rgt" transform="translate(3 -7.0)">15:ND</text>
            </g>
            <g class="a33 c2 node n20 p2" transform="translate(-61.3406 296.065)">
              <g class="a20 i1 leaf node n2 p8 sample" transform="translate(31.8063 98.5347)">
                <path class="edge" d="M 0 0 V -98.5347 H -31.8063"/>
                <rect class="sym" height="6" width="6" x="-3" y="-3"/>
                <text class="lab" transform="translate(0 11)">2:Y</text>
              </g>
              <g class="a20 c2 node n16 p6" transform="translate(-31.8062 32.306)">
                <g class="a16 i1 leaf node n3 p8 sample" transform="translate(27.2625 66.2286)">
                  <path class="edge" d="M 0 0 V -66.2286 H -27.2625"/>
                  <rect class="sym" height="6" width="6" x="-3" y="-3"/>
                  <text class="lab" transform="translate(0 11)">3:Y</text>
                </g>
                <g class="a16 c2 node n10 p6" transform="translate(-27.2625 47.7558)">
                  <g class="a10 i0 leaf node n0 p7 sample" transform="translate(-18.175 18.4728)">
                    <path class="edge" d="M 0 0 V -18.4728 H 18.175"/>
                    <rect class="sym" height="6" width="6" x="-3" y="-3"/>
                    <text class="lab" transform="translate(0 11)">0:X</text>
                  </g>
                  <g class="a10 i0 leaf node n1 p7 sample" transform="translate(18.175 18.4728)">
                    <path class="edge" d="M 0 0 V -18.4728 H -18.175"/>
                    <rect class="sym" height="6" width="6" x="-3" y="-3"/>
                    <text class="lab" transform="translate(0 11)">1:X</text>
                  </g>
                  <path class="edge" d="M 0 0 V -47.7558 H 27.2625"/>
                  <circle class="sym" cx="0" cy="0" r="3"/>
                  <text class="lab lft" transform="translate(-3 -7.0)">10:XY</text>
                </g>
                <path class="edge" d="M 0 0 V -32.306 H 31.8062"/>
                <circle class="sym" cx="0" cy="0" r="3"/>
                <text class="lab lft" transform="translate(-3 -7.0)">16:XY</text>
              </g>
              <path class="edge" d="M 0 0 V -296.065 H 61.3406"/>
              <circle class="sym" cx="0" cy="0" r="3"/>
              <text class="lab lft" transform="translate(-3 -7.0)">20:XYND</text>
            </g>
            <circle class="sym" cx="0" cy="0" r="3"/>
            <text class="lab" transform="translate(0 -11)">33:Ancestral</text>
          </g>
        </g>
      </g>
      <g class="tree t2" transform="translate(1049.2 0)">
        <g class="plotbox">
          <g class="c2 node n33 p0 root" transform="translate(192.662 26.8)">
            <g class="a33 c2 node n20 p2" transform="translate(81.7875 296.065)">
              <g class="a20 i1 leaf node n2 p8 sample" transform="translate(-18.175 98.5347)">
                <path class="edge" d="M 0 0 V -98.5347 H 18.175"/>
                <rect class="sym" height="6" width="6" x="-3" y="-3"/>
                <text class="lab" transform="translate(0 11)">2:Y</text>
              </g>
              <g class="a20 i1 leaf node n3 p8 sample" transform="translate(18.175 98.5347)">
                <path class="edge" d="M 0 0 V -98.5347 H -18.175"/>
                <rect class="sym" height="6" width="6" x="-3" y="-3"/>
                <text class="lab" transform="translate(0 11)">3:Y</text>
              </g>
              <path class="edge" d="M 0 0 V -296.065 H -81.7875"/>
              <circle class="sym" cx="0" cy="0" r="3"/>
              <text class="lab rgt" transform="translate(3 -7.0)">20:XYND</text>
            </g>
            <g class="a33 c2 node n21 p2" transform="translate(-81.7875 290.942)">
              <g class="a21 c2 node n10 p6" transform="translate(-54.525 85.1848)">
                <g class="a10 i0 leaf node n0 p7 sample" transform="translate(-18.175 18.4728)">
                  <path class="edge" d="M 0 0 V -18.4728 H 18.175"/>
                  <rect class="sym" height="6" width="6" x="-3" y="-3"/>
                  <text class="lab" transform="translate(0 11)">0:X</text>
                </g>
                <g class="a10 i0 leaf node n1 p7 sample" transform="translate(18.175 18.4728)">
                  <path class="edge" d="M 0 0 V -18.4728 H -18.175"/>
                  <rect class="sym" height="6" width="6" x="-3" y="-3"/>
                  <text class="lab" transform="translate(0 11)">1:X</text>
                </g>
                <path class="edge" d="M 0 0 V -85.1848 H 54.525"/>
                <circle class="sym" cx="0" cy="0" r="3"/>
                <text class="lab lft" transform="translate(-3 -7.0)">10:XY</text>
              </g>
              <g class="a21 c2 node n15 p3" transform="translate(54.525 37.4315)">
                <g class="a15 c2 node n8 p4" transform="translate(36.35 59.2717)">
                  <g class="a8 i3 leaf node n6 p4 sample" transform="translate(-18.175 4.40537)">
                    <path class="edge" d="M 0 0 V -4.40537 H 18.175"/>
                    <rect class="sym" height="6" width="6" x="-3" y="-3"/>
                    <text class="lab" transform="translate(0 11)">6:D</text>
                  </g>
                  <g class="a8 i3 leaf node n7 p4 sample" transform="translate(18.175 4.40537)">
                    <path class="edge" d="M 0 0 V -4.40537 H -18.175"/>
                    <rect class="sym" height="6" width="6" x="-3" y="-3"/>
                    <text class="lab" transform="translate(0 11)">7:D</text>
                  </g>
                  <path class="edge" d="M 0 0 V -59.2717 H -36.35"/>
                  <circle class="sym" cx="0" cy="0" r="3"/>
                  <text class="lab rgt" transform="translate(3 -7.0)">8:D</text>
                </g>
                <g class="a15 c2 node n9 p5" transform="translate(-36.35 54.995)">
                  <g class="a9 i2 leaf node n4 p5 sample" transform="translate(-18.175 8.68204)">
                    <path class="edge" d="M 0 0 V -8.68204 H 18.175"/>
                    <rect class="sym" height="6" width="6" x="-3" y="-3"/>
                    <text class="lab" transform="translate(0 11)">4:N</text>
                  </g>
                  <g class="a9 i2 leaf node n5 p5 sample" transform="translate(18.175 8.68204)">
                    <path class="edge" d="M 0 0 V -8.68204 H -18.175"/>
                    <rect class="sym" height="6" width="6" x="-3" y="-3"/>
                    <text class="lab" transform="translate(0 11)">5:N</text>
                  </g>
                  <path class="edge" d="M 0 0 V -54.995 H 36.35"/>
                  <circle class="sym" cx="0" cy="0" r="3"/>
                  <text class="lab lft" transform="translate(-3 -7.0)">9:N</text>
                </g>
                <path class="edge" d="M 0 0 V -37.4315 H -54.525"/>
                <circle class="sym" cx="0" cy="0" r="3"/>
                <text class="lab rgt" transform="translate(3 -7.0)">15:ND</text>
              </g>
              <path class="edge" d="M 0 0 V -290.942 H 81.7875"/>
              <circle class="sym" cx="0" cy="0" r="3"/>
              <text class="lab lft" transform="translate(-3 -7.0)">21:XYND</text>
            </g>
            <circle class="sym" cx="0" cy="0" r="3"/>
            <text class="lab" transform="translate(0 -11)">33:Ancestral</text>
          </g>
        </g>
      </g>
    </g>
  </g>
</svg>
